<?xml version="1.0" encoding="UTF-8"?><svg id="svg369" xmlns="http://www.w3.org/2000/svg" viewBox="0 0 55.86 58.9"><defs><style>.cls-1{fill:#ea0a2a;}.cls-2{fill:#fff;}.cls-3{fill:#876e4c;}</style></defs><g id="layer1"><g id="path2"><path class="cls-1" d="m29.34,20.56c-4.09,0-7.43-3.29-7.43-7.34s3.34-7.34,7.44-7.34,7.44,3.29,7.44,7.34c0,1.97-.76,3.81-2.14,5.2-1.38,1.38-3.22,2.14-5.18,2.14h-.14Z"/><path class="cls-2" d="m29.36,6.69c3.66,0,6.64,2.94,6.64,6.54s-2.92,6.54-6.52,6.54c-.04,0-.08,0-.12,0-3.66,0-6.64-2.94-6.64-6.54s2.98-6.54,6.64-6.54m0-1.6c-4.54,0-8.24,3.65-8.24,8.14s3.7,8.14,8.24,8.14h.12c4.48,0,8.12-3.65,8.12-8.14s-3.7-8.14-8.24-8.14h0Z"/></g><g id="path4"><path class="cls-3" d="m26.19,52.59v-4.74l-14.65.07c-2.94,0-6.22-2.63-6.22-6.4v-10.14h14.42c.92,0,1.61.69,1.61,1.53v6.34l14.11-.07c1.96,0,3.49.56,4.54,1.65,1.05,1.09,1.56,2.7,1.48,4.65v7.1s-15.29,0-15.29,0Z"/><path class="cls-2" d="m19.8,32.17c.41,0,.75.33.75.73v6.34c0,.4.34.73.75.73h14.16c3.73,0,5.35,2.2,5.22,5.47v6.34h-13.69v-3.94c0-.4-.34-.73-.75-.73h-14.7c-2.51,0-5.42-2.34-5.42-5.6v-9.34h13.69m0-1.6H4.52v10.94c0,4.25,3.7,7.2,7.02,7.2h13.85v4.67h16.89v-7.91c.08-2.16-.51-3.96-1.7-5.21-1.21-1.26-2.93-1.9-5.11-1.9h-13.31s0-5.47,0-5.47c0-1.29-1.05-2.33-2.35-2.33h0Z"/></g><g id="path6"><path class="cls-1" d="m23.33,38.78c-.85,0-1.54-.69-1.54-1.53v-6.07s0,0,0,0c0,0-.03-.07-.05-.1l-16.34.03v-.8c0-6.06,2.81-9.67,7.51-9.67h22.22c.85,0,1.54.69,1.54,1.53v6.21l.07,8.87c0,.85-.69,1.54-1.54,1.54h-11.86Z"/><path class="cls-2" d="m35.12,21.43c.41,0,.75.33.75.73v6.2l.07,8.87c0,.4-.34.73-.75.73h-11.86c-.41,0-.75-.33-.75-.73v-6.07s-.07-.87-.81-.87H6.18c0-5.67,2.51-8.87,6.71-8.87h22.22m0-1.6H12.89c-5.12,0-8.31,4.01-8.31,10.47v1.6h16.4v5.34c0,1.29,1.05,2.33,2.35,2.33h11.86c1.29,0,2.35-1.05,2.35-2.33l-.07-8.89v-6.19c0-1.29-1.05-2.33-2.35-2.33h0Z"/></g><g id="path8"><path class="cls-1" d="m36.96,31.04v-8.87c0-.85.69-1.53,1.54-1.53h13.13v.8c0,6.37-2.18,9.61-6.49,9.61h-8.19Z"/><path class="cls-2" d="m50.84,21.43c0,4.2-.95,8.81-5.69,8.81h-7.39v-8.07c0-.4.34-.73.75-.73h12.33m1.6-1.6h-13.93c-1.29,0-2.35,1.05-2.35,2.33v9.67h8.99c3.33,0,7.29-1.81,7.29-10.41v-1.6h0Z"/></g></g></svg>