<?xml version="1.0" encoding="UTF-8" standalone="no"?>
<!-- Created with Inkscape (http://www.inkscape.org/) -->

<svg
   version="1.1"
   id="svg2"
   width="254.34666"
   height="285.93332"
   viewBox="0 0 254.34666 285.93332"
   sodipodi:docname="FHQ_Logo_2021_CMYK.eps"
   xmlns:inkscape="http://www.inkscape.org/namespaces/inkscape"
   xmlns:sodipodi="http://sodipodi.sourceforge.net/DTD/sodipodi-0.dtd"
   xmlns="http://www.w3.org/2000/svg"
   xmlns:svg="http://www.w3.org/2000/svg">
  <defs
     id="defs6" />
  <sodipodi:namedview
     id="namedview4"
     pagecolor="#ffffff"
     bordercolor="#000000"
     borderopacity="0.25"
     inkscape:showpageshadow="2"
     inkscape:pageopacity="0.0"
     inkscape:pagecheckerboard="0"
     inkscape:deskcolor="#d1d1d1" />
  <g
     id="g8"
     inkscape:groupmode="layer"
     inkscape:label="ink_ext_XXXXXX"
     transform="matrix(1.3333333,0,0,-1.3333333,0,285.93333)">
    <g
       id="g10"
       transform="scale(0.1)">
      <path
         d="m 779.02,740.082 c 0,5.777 4.668,10.449 10.441,10.449 h 33.105 c 5.782,0 10.45,-4.672 10.45,-10.449 V 566.699 c 0,-5.777 -4.668,-10.449 -10.45,-10.449 h -33.105 c -5.773,0 -10.441,4.672 -10.441,10.449 v 173.383"
         style="fill:#a7a5a6;fill-opacity:1;fill-rule:nonzero;stroke:none"
         id="path12" />
      <path
         d="m 774.281,673.699 h -18.367 c -6.258,0 -11.316,-5.07 -11.316,-11.32 v -18.367 c 0,-6.262 5.058,-11.321 11.316,-11.321 h 18.367 v 41.008"
         style="fill:#a7a5a6;fill-opacity:1;fill-rule:nonzero;stroke:none"
         id="path14" />
      <path
         d="m 1044.41,750.531 h -33.11 c -5.77,0 -10.45,-4.672 -10.45,-10.449 V 673.871 H 987.391 981.5 891.742 v 66.211 c 0,5.777 -4.668,10.449 -10.445,10.449 h -33.106 c -5.773,0 -10.461,-4.672 -10.461,-10.449 V 566.699 c 0,-5.777 4.688,-10.449 10.461,-10.449 h 33.106 c 5.777,0 10.445,4.672 10.445,10.449 v 66.59 h 89.817 5.918 13.373 v -66.59 c 0,-5.777 4.68,-10.449 10.45,-10.449 h 33.11 c 5.77,0 10.45,4.672 10.45,10.449 v 173.383 c 0,5.777 -4.68,10.449 -10.45,10.449"
         style="fill:#152a42;fill-opacity:1;fill-rule:nonzero;stroke:none"
         id="path16" />
      <path
         d="m 1113.59,740.082 c 0,5.777 -4.68,10.449 -10.46,10.449 h -33.09 c -5.78,0 -10.45,-4.672 -10.45,-10.449 V 566.699 c 0,-5.777 4.67,-10.449 10.45,-10.449 h 33.09 c 5.78,0 10.46,4.672 10.46,10.449 v 173.383"
         style="fill:#a7a5a6;fill-opacity:1;fill-rule:nonzero;stroke:none"
         id="path18" />
      <path
         d="m 1118.31,673.699 h 18.37 c 6.26,0 11.31,-5.07 11.31,-11.32 v -18.367 c 0,-6.262 -5.05,-11.321 -11.31,-11.321 h -18.37 v 41.008"
         style="fill:#a7a5a6;fill-opacity:1;fill-rule:nonzero;stroke:none"
         id="path20" />
      <path
         d="m 1258.3,594.441 c -14.56,0 -25.46,4.688 -32.73,14.11 -7.28,9.41 -10.92,24.679 -10.92,45.859 0,20.121 3.73,34.852 11.17,44.18 7.44,9.32 18.28,13.98 32.48,13.98 14.27,0 25.15,-4.8 32.59,-14.379 7.46,-9.582 11.19,-24.793 11.19,-45.609 0,-20.043 -3.73,-34.742 -11.19,-44.113 -7.44,-9.36 -18.32,-14.028 -32.59,-14.028 z m 85.59,-43.281 0.02,0.031 c -18.54,2.559 -35.94,6.039 -52.16,10.43 20.21,4.879 35.56,15.258 46,31.109 10.46,15.86 15.69,36.11 15.69,60.77 0,21.691 -3.89,39.969 -11.65,54.82 -7.74,14.86 -18.72,25.989 -32.93,33.391 -14.2,7.398 -31.04,11.09 -50.56,11.09 -19.43,0 -36.25,-3.711 -50.52,-11.16 -14.24,-7.45 -25.21,-18.661 -32.92,-33.653 -7.72,-14.988 -11.57,-33.527 -11.57,-55.668 0,-24.738 5.46,-46.179 16.34,-64.3 10.87,-18.129 29.49,-33.629 55.8,-46.52 25.19,-12.352 59.12,-22.059 101.75,-29.141 l 0.01,0.012 c 4.01,-0.691 7.84,2 8.54,6.02 l 4.19,24.238 c 0.69,4.019 -2,7.84 -6.03,8.531"
         style="fill:#152a42;fill-opacity:1;fill-rule:nonzero;stroke:none"
         id="path22" />
      <path
         d="m 735.895,750.48 h -95.184 c -0.188,0 -0.371,0.051 -0.559,0.051 h -33.105 c -5.77,0 -10.449,-4.672 -10.449,-10.449 V 566.699 c 0,-5.777 4.679,-10.449 10.449,-10.449 h 33.105 c 5.774,0 10.45,4.672 10.45,10.449 v 66.59 h 72.492 c 3.535,0 6.402,2.859 6.402,6.391 v 27.789 c 0,3.531 -2.867,6.402 -6.402,6.402 h -72.492 v 36.02 h 85.293 c 3.527,0 6.398,2.871 6.398,6.398 v 27.781 c 0,3.539 -2.871,6.41 -6.398,6.41"
         style="fill:#152a42;fill-opacity:1;fill-rule:nonzero;stroke:none"
         id="path24" />
      <path
         d="m 825.652,772.371 c 0,0 -42.082,555.399 -417.953,583.449 -375.867,28.04 -300.133,-510.519 -16.824,-603.082 0,0 -115.012,221.602 50.488,258.062 165.5,36.47 384.289,-238.429 384.289,-238.429"
         style="fill:#264a96;fill-opacity:1;fill-rule:nonzero;stroke:none"
         id="path26" />
      <path
         d="m 947.047,773.309 c 0,0 220.653,388.961 220.653,785.401 0,396.44 -220.653,531.09 -220.653,531.09 h 0.156 c 0,0 -220.652,-134.65 -220.652,-531.09 0,-396.44 220.652,-785.401 220.652,-785.401 h -0.156"
         style="fill:#264a96;fill-opacity:1;fill-rule:nonzero;stroke:none"
         id="path28" />
      <path
         d="m 1068.61,772.371 c 0,0 42.07,555.399 417.94,583.449 375.87,28.04 300.14,-510.519 16.84,-603.082 0,0 115,221.602 -50.49,258.062 -165.5,36.47 -384.29,-238.429 -384.29,-238.429"
         style="fill:#264a96;fill-opacity:1;fill-rule:nonzero;stroke:none"
         id="path30" />
      <path
         d="m 946.148,534.18 c 0,0 66.342,-116.918 66.342,-236.09 0,-119.168 -66.342,-205.0509 -66.342,-205.0509 h 0.051 c 0,0 -66.32,85.8829 -66.32,205.0509 0,119.172 66.32,236.09 66.32,236.09 h -0.051"
         style="fill:#264a96;fill-opacity:1;fill-rule:nonzero;stroke:none"
         id="path32" />
      <path
         d="m 998.551,511.07 c 0,0 -12.371,-143.929 117.489,-165.129 129.87,-21.179 160.31,107.821 64.59,148.629 0,0 2.97,-70.461 -55.7,-78.109 -58.66,-7.641 -126.379,94.609 -126.379,94.609"
         style="fill:#264a96;fill-opacity:1;fill-rule:nonzero;stroke:none"
         id="path34" />
      <path
         d="m 893.465,511.07 c 0,0 12.351,-154.031 -117.492,-175.23 -129.864,-21.18 -160.301,117.922 -64.61,158.73 0,0 -2.949,-70.461 55.711,-78.109 58.664,-7.641 126.391,94.609 126.391,94.609"
         style="fill:#264a96;fill-opacity:1;fill-rule:nonzero;stroke:none"
         id="path36" />
    </g>
  </g>
</svg>
