<?xml version="1.0" encoding="UTF-8"?><svg id="svg369" xmlns="http://www.w3.org/2000/svg" viewBox="0 0 55.86 58.9"><defs><style>.cls-1{fill:#005faa;}.cls-2{fill:#e63329;}</style></defs><g id="layer1"><g id="path2"><path class="cls-2" d="m36,13.23c0-3.6-2.98-6.54-6.64-6.54s-6.64,2.94-6.64,6.54,2.98,6.54,6.64,6.54c3.66.07,6.64-2.87,6.64-6.54Z"/></g><g id="path4"><path class="cls-1" d="m35.46,39.98h-14.16c-.41,0-.75-.33-.75-.73v-6.34c0-.4-.34-.73-.75-.73H6.12v9.34c0,3.27,2.91,5.6,5.42,5.6h14.7c.41,0,.75.33.75.73v3.94h13.69v-6.34c.14-3.27-1.49-5.47-5.22-5.47h0Z"/></g><g id="path6"><path class="cls-2" d="m35.86,28.37v-6.2c0-.4-.34-.73-.75-.73H12.89c-4.2,0-6.71,3.2-6.71,8.87h15.58c.75,0,.81.87.81.87v6.07c0,.4.34.73.75.73h11.86c.41,0,.75-.33.75-.73l-.07-8.87Z"/></g><g id="path8"><path class="cls-2" d="m38.5,21.43c-.41,0-.75.33-.75.73v8.07h7.39c4.74,0,5.69-4.6,5.69-8.81h-12.33Z"/></g></g></svg>