<?xml version="1.0" encoding="UTF-8"?>
<svg width="301.8307px" height="136.9996px" viewBox="0 0 301.8307 136.9996" version="1.1" xmlns="http://www.w3.org/2000/svg" xmlns:xlink="http://www.w3.org/1999/xlink">
    <title>Group 106</title>
    <defs>
        <polygon id="path-1" points="0 137 301.831 137 301.831 0 0 0"></polygon>
    </defs>
    <g id="Page-1" stroke="none" stroke-width="1" fill="none" fill-rule="evenodd">
        <g id="Group-106" transform="translate(0.000000, -0.000400)">
            <path d="M252.1897,99.0157 C224.8177,99.0157 202.5487,76.8027 202.5487,49.5147 C202.5487,22.2267 224.8177,0.0007 252.1897,0.0007 C279.5617,0.0007 301.8307,22.2127 301.8307,49.5007 C301.8307,76.7887 279.5617,99.0157 252.1897,99.0157 M252.1897,1.1297 C225.4467,1.1297 203.6807,22.8267 203.6807,49.5147 C203.6807,76.2037 225.4327,97.9007 252.1897,97.9007 C278.9467,97.9007 300.6987,76.2037 300.6987,49.5147 C300.6987,22.8267 278.9327,1.1297 252.1897,1.1297" id="Fill-1" fill="#FFFFFF"></path>
            <path d="M254.2172,21.711 C254.2172,21.656 254.2312,21.6 254.2312,21.531 C254.2312,21.433 254.2172,21.32 254.2172,21.223 L253.8802,21.182 L253.5172,21.349 L253.5882,21.796 L254.0202,21.796 L254.2172,21.711 Z M253.0002,21.098 L253.0142,21.069 L253.0002,20.903 C252.9452,20.931 252.9022,20.986 252.8332,21.014 C252.8052,21.029 252.8052,21.029 252.6932,21.057 C252.6362,21.069 252.5812,21.083 252.3702,21.209 C252.3152,21.237 252.2592,21.265 252.2182,21.294 C252.2732,21.334 252.3012,21.405 252.3702,21.419 C252.3702,21.419 252.4272,21.433 252.5532,21.405 C252.6792,21.377 252.8332,21.265 252.8472,21.251 C252.8882,21.223 252.8882,21.223 253.0002,21.098 L253.0002,21.098 Z M278.1082,65.579 C278.2062,64.352 278.0372,64.269 277.8422,64.156 C277.6742,64.17 277.5062,64.17 277.2272,64.156 C276.6392,63.99 276.5132,62.972 275.7312,63.237 C275.5082,63.251 275.2692,63.251 274.9762,63.265 C274.4872,63.014 274.1382,62.818 274.0392,63.306 C273.8992,63.391 273.7602,63.488 273.4102,63.251 C273.4522,63.125 273.4522,63.125 273.7732,62.915 C272.9352,62.372 272.9352,62.372 272.5022,62.316 C272.4602,62.316 272.4172,62.316 272.2502,62.261 C271.9852,62.121 271.9422,62.107 271.5792,62.176 C271.5512,62.358 271.5362,62.553 271.5102,62.735 C271.3412,62.735 271.1732,62.749 271.0062,62.749 C271.0202,62.664 271.0202,62.595 271.0902,62.372 C271.1592,62.316 271.2582,62.219 271.3132,62.15 C271.3702,62.107 271.4252,62.065 271.4812,62.037 C271.4672,61.996 271.4532,61.925 271.4392,61.884 C271.4392,61.884 271.1592,61.8 270.7552,61.674 L270.6292,61.674 L270.4892,61.674 C270.4462,61.702 270.3912,61.745 270.3492,61.773 C270.3062,62.079 270.2922,62.288 269.7902,62.233 C269.8032,62.15 269.8032,62.079 269.8602,61.87 C270.6842,60.992 270.6842,60.992 270.4892,60.587 L270.1542,60.587 C270.1662,60.364 270.1952,60.155 270.2092,59.931 C269.9572,59.235 269.9572,59.235 269.9152,59.178 C269.9152,59.178 268.6012,58.565 268.2662,58.37 C267.9302,58.202 267.6232,58.439 267.3022,58.427 L267.0502,58.427 C265.8472,58.216 265.7642,57.965 265.5262,57.255 C265.4292,57.24 265.4292,57.24 264.7712,56.892 C264.7712,56.85 264.7712,56.809 264.7432,56.753 C264.2822,56.683 264.3102,56.418 264.3232,56.167 C264.2822,56.167 264.2402,56.167 264.0592,56.196 C263.5132,56.348 263.5132,56.348 263.3872,56.334 C263.3452,55.999 263.3452,55.999 263.3452,55.86 C263.4442,55.846 263.5682,55.791 263.6532,55.734 C263.5272,55.568 263.4992,55.526 263.0522,55.455 L262.7442,55.679 C262.7152,55.679 262.7012,55.679 262.6462,55.665 C262.3662,55.54 262.3522,55.554 262.1292,55.582 C261.8492,56.153 261.8492,56.153 261.6402,56.196 C261.3602,56.014 261.1652,55.72 260.8152,55.665 C260.5902,55.665 260.3532,55.665 259.9902,55.609 C259.8922,55.582 259.7522,55.568 259.6552,55.54 C259.6552,55.414 259.6552,55.289 259.5292,55.163 C259.1372,55.135 258.8572,54.704 258.3962,54.87 C258.3962,55.093 258.3962,55.135 258.2012,55.33 C257.8102,55.317 257.6132,55.568 257.5992,55.568 C257.4322,55.945 257.7672,56.319 257.6132,56.696 C256.9572,56.348 257.5302,55.665 257.2212,55.218 C257.2782,54.967 257.8102,54.578 257.8102,54.578 L257.7532,54.453 L257.4602,54.453 C257.0692,54.536 256.9982,54.564 257.0122,54.995 C256.7602,54.995 256.5092,54.995 256.1452,55.024 C255.9652,55.177 255.5872,55.483 254.8322,55.469 C254.8322,55.72 254.8322,55.957 254.7752,56.265 C254.5662,56.418 254.5662,56.418 254.2722,56.418 C254.0632,56.767 254.0632,56.864 254.0352,57.018 C253.5312,57.352 253.4202,57.631 253.3912,57.771 C253.4762,57.826 253.6022,57.882 253.6992,57.896 C253.6852,58.412 254.2862,59.04 253.6432,59.431 C253.5452,60.196 253.5452,60.196 253.3912,60.364 C253.2802,60.364 253.1402,60.378 253.0282,60.392 C253.0562,60.518 253.0842,60.684 253.0992,60.824 C252.9872,60.88 252.8332,60.963 252.7212,61.034 C252.7072,61.103 252.7072,61.2 252.6932,61.284 C252.3292,61.354 252.1332,61.396 252.1472,61.996 C251.9662,61.996 251.7982,61.996 251.6302,62.093 C251.6862,62.427 251.5602,62.763 251.6722,63.097 C251.7142,63.125 251.7842,63.154 251.8262,63.166 C252.0352,63.083 252.0352,63.083 252.3442,63.125 C252.3442,63.209 252.3442,63.278 252.3012,63.474 C252.1332,63.543 251.9522,63.543 251.7842,63.64 C251.7982,63.905 251.7982,63.905 251.4202,64.144 C251.3652,64.421 251.3652,64.421 251.6302,64.743 L251.6302,64.854 C251.6862,65.984 253.2512,66.053 253.3642,67.126 C253.3642,67.211 253.3642,67.294 253.3772,67.391 C255.3492,70.223 255.3492,70.223 255.5872,70.25 C255.5872,70.25 256.5092,70.432 257.5012,71.59 L257.8502,71.59 C257.8382,71.938 257.8382,72.272 257.8242,72.606 C257.7952,72.705 257.7812,72.843 257.7952,72.942 L257.7672,72.997 L257.7672,73.151 C257.7812,73.206 257.7952,73.262 257.8102,73.319 C257.8102,73.331 257.8102,73.359 257.7532,73.499 C257.7252,73.582 257.7122,73.722 257.7252,73.807 L257.6982,73.833 C257.6982,73.876 257.6982,73.918 257.7392,74.015 L257.7392,74.169 L257.7392,74.224 C257.7392,74.252 257.7392,74.28 257.6552,74.434 C257.6552,74.531 257.6842,74.671 257.7252,74.754 L257.7252,74.851 C257.7252,74.88 257.7252,74.908 257.6842,74.991 C257.6132,75.313 257.3472,75.562 257.3352,75.898 C257.0122,76.916 257.0122,76.916 256.9002,77.166 C256.9002,77.18 256.9002,77.208 256.9152,77.25 C257.1382,78.463 257.1802,78.714 256.5942,79.188 C256.5942,79.244 256.5942,79.285 256.6062,79.384 C256.6062,79.425 256.5942,79.495 256.5942,79.55 L256.6202,79.607 C256.5092,79.858 256.2712,80.012 256.1452,80.248 C256.4252,80.708 256.3552,80.862 256.1172,81.322 C256.1312,81.364 256.1602,81.419 256.1882,81.475 C256.2292,81.544 256.2572,81.656 256.2432,81.726 C256.1882,81.74 256.1312,81.755 256.0762,81.767 C255.9652,82.089 255.9652,82.089 255.9912,82.214 C256.0342,82.243 256.0902,82.269 256.1452,82.283 L256.3692,82.283 L256.4112,81.74 L256.6912,81.74 C256.6912,81.795 256.6912,81.866 256.6492,81.977 C256.6062,82.006 256.5512,82.046 256.5092,82.075 C256.5092,82.186 256.5092,82.283 256.4802,82.409 C256.4542,82.437 256.4542,82.437 256.3692,83.008 C256.3002,82.967 256.2292,82.897 256.1742,82.842 C256.1742,82.828 256.1742,82.799 256.1452,82.674 C256.1452,82.688 256.1452,82.688 256.0482,82.702 C256.0482,82.759 256.0482,82.814 256.1882,82.953 C256.2432,83.036 256.2852,83.162 256.3002,83.247 C256.1882,83.19 256.0762,83.107 255.9652,83.051 C255.9652,83.107 255.9772,83.162 255.8252,83.259 L255.8252,83.427 C255.9222,83.441 256.0622,83.484 256.1452,83.524 C256.1312,83.567 256.1172,83.636 256.1172,83.678 C256.1602,83.692 256.2292,83.706 256.2852,83.706 C256.3002,83.749 256.3282,83.818 256.3422,83.86 C256.0052,83.887 256.0052,83.887 255.8652,83.986 C255.8652,83.998 255.8652,83.998 255.9082,84.124 C255.9502,84.166 255.9912,84.208 256.0202,84.237 L256.0202,84.403 C256.0482,84.488 256.1172,84.599 256.1882,84.668 L256.0902,84.71 L256.1742,84.751 C256.2162,84.751 256.2432,84.751 256.2572,84.891 C256.3142,84.905 256.3692,84.919 256.4252,84.933 L256.4252,84.961 L256.3972,85.002 C256.5092,85.198 256.7202,85.281 256.8582,85.449 C256.9152,85.449 256.9842,85.463 257.0262,85.463 C257.0262,85.478 257.0262,85.49 257.1242,85.561 C257.2232,85.575 257.3472,85.603 257.4462,85.616 C257.4602,85.616 257.4732,85.616 257.5862,85.644 C257.6982,85.644 257.8242,85.644 258.0192,85.63 C258.0752,85.589 258.1452,85.533 258.2152,85.504 C258.1162,85.478 257.9902,85.463 257.8932,85.449 C257.9072,85.421 257.9072,85.393 257.7532,85.365 C257.7392,85.267 257.7122,85.142 257.6842,85.059 L257.6982,85.016 C257.6982,84.919 257.6702,84.794 257.6552,84.71 C257.6552,84.696 257.6552,84.682 257.6412,84.626 C257.6552,84.585 257.6552,84.528 257.6982,84.375 C257.7952,84.375 257.8932,84.375 257.9902,84.362 C257.9902,84.32 258.0052,84.249 258.0052,84.208 C258.2702,84.026 258.5082,83.804 258.8022,83.65 C258.8162,83.623 258.8162,83.581 258.6902,83.538 C258.6342,83.524 258.5792,83.524 258.5222,83.51 C258.2702,83.273 258.2702,83.273 258.2422,83.148 C258.2422,83.134 258.2422,83.107 258.2852,83.051 C258.3682,82.996 258.4942,82.925 258.5912,82.897 L258.9972,82.897 C259.0252,82.799 259.0402,82.688 259.1512,82.508 C259.2632,82.395 259.2632,82.395 259.4172,82.089 C259.7242,82.117 259.7242,82.117 259.8642,81.949 C259.8642,81.935 259.8782,81.907 259.8232,81.824 L259.7802,81.838 C259.6972,81.88 259.5712,81.921 259.4722,81.907 C259.4722,81.81 259.4602,81.684 259.4602,81.587 C259.4722,81.518 259.4862,81.461 259.5002,81.392 C259.5432,81.392 259.5852,81.392 259.7802,81.433 C259.8232,81.461 259.8782,81.504 259.9202,81.53 C260.0752,81.53 260.2412,81.53 260.4102,81.392 C260.4102,81.364 260.4242,81.35 260.4522,81.253 C260.4932,81.224 260.5502,81.196 260.5902,81.168 C260.6052,81.071 260.6052,80.945 260.5902,80.848 C260.6052,80.791 260.6192,80.751 260.6332,80.694 C260.7592,80.694 260.8852,80.694 261.1082,80.666 L261.2902,80.666 C261.3882,80.652 261.5282,80.625 261.6252,80.597 C261.7652,80.597 261.8912,80.597 262.1572,80.639 C262.1572,80.639 262.8152,80.192 263.1072,79.955 L263.2472,79.815 C263.2752,79.746 263.3042,79.662 263.3302,79.593 C263.3042,79.593 263.2752,79.593 263.1642,79.579 C263.1782,79.536 263.1922,79.481 263.2332,79.328 C263.1212,79.188 263.1212,79.188 262.8552,79.022 C262.8412,78.979 262.8412,78.91 262.8272,78.868 L263.1782,78.868 C264.4772,79.076 264.4772,79.076 265.0232,78.617 C266.5192,77.305 266.5192,77.305 266.5332,77.305 C266.4622,77.39 266.3932,77.501 266.3502,77.584 C266.4762,77.584 268.2662,76.315 268.2242,75.702 C268.2102,75.368 268.1812,75.048 269.7902,74.155 C269.9432,74.155 270.1112,74.141 270.2652,74.141 C270.3352,74.112 270.3352,74.112 270.8382,73.778 C271.2442,73.764 271.6352,73.75 272.0682,73.639 C272.1112,73.555 272.1942,73.457 272.2652,73.388 C272.4312,73.345 272.4312,73.345 273.7462,71.827 C273.8162,71.812 273.8162,71.812 274.3192,70.891 C274.3332,70.863 274.3472,70.822 274.4312,70.697 C274.6682,70.389 274.7672,70.223 274.8502,69.985 C274.8652,69.93 274.8792,69.887 274.9202,69.734 C274.9202,69.693 274.9342,69.622 274.9342,69.581 C274.9622,69.497 274.9912,69.428 275.0172,69.246 C275.0882,69.037 275.1572,68.814 275.3682,68.577 C275.3682,68.577 276.4722,67.671 276.7792,67.391 L277.7712,66.262 C278.0372,65.816 278.0372,65.816 278.1082,65.579 L278.1082,65.579 Z M267.2452,30.524 L267.2742,30.469 C267.2452,30.398 267.2032,30.315 267.1762,30.246 C266.9102,30.232 266.9102,30.232 266.8262,30.203 C266.8262,30.203 266.4622,30.022 266.3502,29.91 C266.2952,29.841 266.2532,29.799 266.1822,29.785 C266.0302,29.744 265.8752,29.77 265.7352,29.744 C265.6522,29.73 265.5812,29.673 265.4982,29.645 C265.5552,29.283 265.5552,29.283 265.5952,29.214 C265.6242,29.144 265.7072,29.171 265.7642,29.144 C265.8062,29.13 265.8902,28.92 265.7502,28.78 C265.6932,28.726 265.6932,28.726 265.6662,28.683 C265.6102,28.697 265.5552,28.669 265.4982,28.669 C265.4702,28.669 265.2892,28.726 265.2462,28.795 C265.2042,28.865 265.2752,28.92 265.2892,28.991 C265.3032,29.074 265.2752,29.171 265.2892,29.256 C265.2892,29.325 265.2892,29.325 265.2752,29.353 C265.2752,29.353 265.0232,29.813 264.6312,30.26 C264.5202,30.385 264.4492,30.469 264.3942,30.594 C264.3512,30.677 264.3372,30.789 264.3512,30.914 C264.3652,31.011 264.4222,31.082 264.4492,31.179 C264.9952,31.165 265.5552,31.165 266.0992,31.151 C266.2392,31.165 266.2952,31.179 266.5052,31.361 C266.8402,31.667 266.9652,31.724 267.1482,31.807 C267.1762,31.765 267.1762,31.765 267.2602,31.724 C267.3022,31.71 267.4262,31.653 267.2602,31.151 C267.1052,30.803 267.1052,30.803 267.2452,30.524 L267.2452,30.524 Z M262.5902,29.896 L262.6042,29.882 C262.5352,29.855 262.4782,29.813 262.3952,29.785 C262.3522,29.77 262.2972,29.77 262.2692,29.77 C262.1572,29.785 262.1432,29.785 262.0742,29.756 C261.8772,29.673 261.7942,29.59 261.7802,29.562 C261.6962,29.465 261.6542,29.45 261.5972,29.45 C261.5422,29.45 261.4852,29.465 261.4302,29.465 C261.3602,29.493 261.2762,29.534 261.2202,29.576 C261.2902,29.618 261.3882,29.631 261.4572,29.687 C261.5282,29.744 261.5562,29.827 261.6112,29.882 L261.6682,29.924 C261.7372,29.967 261.8082,30.007 261.8772,30.064 C261.9342,30.106 261.9892,30.161 262.0452,30.203 C262.1002,30.246 262.1292,30.26 262.1852,30.273 C262.2692,30.287 262.3802,30.315 262.5902,29.896 L262.5902,29.896 Z M265.2752,28.181 L265.4552,27.973 L265.1772,27.764 L265.3032,27.554 L265.2462,27.122 L264.6742,27.052 L264.5202,26.801 C264.3232,26.801 264.1142,26.801 263.9192,26.815 L263.4852,27.08 L263.2052,27.288 L262.9262,27.191 L262.9812,26.885 L263.4992,26.703 L264.1282,26.535 L264.3652,26.272 L263.9452,26.258 L263.4992,26.062 L262.9402,25.922 L262.5632,25.63 L262.1432,25.337 L261.9482,25.072 L262.1712,25.017 L262.2122,24.821 L261.7942,24.361 L261.3052,23.859 L260.6192,22.994 L260.3812,22.604 L260.0182,23.12 C260.0322,23.274 260.0462,23.413 260.0602,23.565 L259.6122,23.705 L259.3462,24.013 L258.9142,23.998 L258.8022,23.705 L258.5082,23.496 L258.0902,23.594 L258.1872,23.106 C258.1732,22.883 258.1732,22.674 258.1592,22.464 L258.1162,22.13 L257.6272,22.102 L257.2352,21.851 L256.8862,21.502 L256.2852,21.126 L256.0622,21.308 L255.5452,21.28 L255.3352,21.14 L254.7612,21.14 L254.4952,21.377 L254.6782,21.725 L254.5522,22.199 L254.5942,22.521 L254.7612,22.952 L254.4402,22.952 L254.4262,23.371 L254.2032,23.608 L254.4692,23.802 L254.8732,24.11 L254.9582,24.667 C254.9442,24.877 254.9302,25.086 254.9152,25.309 L254.5662,25.756 L254.0912,26.104 L253.4622,26.173 L253.7692,26.731 C253.7552,26.968 253.7282,27.205 253.7142,27.456 L253.8662,27.875 L253.7402,28.209 L253.4202,28.628 L252.7762,28.697 L252.4552,28.084 L252.0642,27.554 C252.0782,27.4 252.0922,27.262 252.1202,27.122 L252.0642,26.509 L252.2042,26.007 L251.4492,25.895 L250.8892,25.867 L250.6242,25.685 L249.9532,25.505 L249.7442,25.197 L249.2262,24.863 L248.7092,24.515 L247.8702,24.681 L247.7712,24.361 L247.6742,23.636 L247.3672,23.44 L247.2132,23.162 L247.5902,22.31 L248.1632,21.698 L248.7092,21.154 L249.2122,20.972 L249.6452,20.694 L249.6042,20.387 L249.1142,20.247 L248.5972,20.024 L249.2402,20.15 L249.7562,20.318 L250.0362,20.261 L250.2042,19.954 L250.6242,20.136 L250.9172,20.079 L251.0152,19.828 L251.2252,19.731 L251.4062,19.411 L251.0992,19.369 L250.6942,19.314 L250.6102,19.132 L250.2192,18.923 L250.5252,18.951 L250.9742,19.103 L251.2662,19.229 L251.6442,19.118 L251.9522,18.826 L251.7842,18.587 L252.1202,18.587 L252.2592,18.812 L252.0212,19.049 L251.7552,19.494 C251.7002,19.676 251.6582,19.857 251.6032,20.053 L251.2112,20.178 L251.2392,20.429 L251.6172,20.456 C251.6032,20.541 251.5742,20.61 251.6032,20.694 C251.7432,20.707 251.9382,20.694 252.0782,20.652 L252.2872,20.359 L252.7622,20.387 L253.0142,20.429 L253.2652,20.555 L253.6572,20.555 L253.7402,20.233 L253.3642,20.15 L253.2512,19.759 L252.8052,19.717 L252.5252,19.411 L252.2182,19.328 C252.2322,19.257 252.2592,19.174 252.2732,19.103 L252.5672,19.174 L252.7352,19.02 L252.7352,18.838 L253.0842,18.838 L253.2652,18.587 L253.6432,18.338 L253.7972,18.128 L253.6712,17.905 L253.6022,17.528 L253.9092,17.472 L254.0492,17.208 L253.8952,16.929 L253.6292,16.789 L253.3222,16.567 L253.7402,16.567 L253.8252,16.427 L254.1182,16.469 L254.3292,16.621 L254.6782,16.607 L254.9992,16.538 L254.7902,16.273 L254.9722,16.218 L255.1952,16.51 L255.5022,16.552 L255.6012,16.832 L255.8252,16.887 L255.9502,17.097 L256.2022,17.208 L256.3282,17.486 L256.6202,17.597 L256.8722,17.877 L256.9292,18.225 L256.5512,18.587 L256.2162,18.964 L256.3832,19.328 L255.7962,19.411 L255.4882,19.328 L255.1532,19.328 L254.7062,19.634 C254.6922,19.745 254.6782,19.857 254.6642,19.968 L255.1672,20.053 L255.5732,20.024 L255.6562,19.802 L255.8392,19.704 L256.0902,19.773 L256.5652,19.913 L257.0402,20.373 L257.1522,20.624 L257.4602,20.945 L257.8932,20.945 L258.3682,21.377 L259.0542,21.391 L259.5152,21.585 L259.5292,21.32 L258.7602,20.777 L258.4532,20.569 L258.2852,20.318 L258.7602,20.555 L259.5852,20.958 L260.0322,21.195 C260.0182,21.069 259.9902,20.931 259.9752,20.806 L260.1582,20.456 L259.7522,20.247 L259.5982,19.731 L259.0682,19.551 L258.4102,18.909 L258.5912,18.727 L258.7602,18.575 L259.6122,19.16 L259.9492,19.537 L260.2982,19.591 L260.3122,19.146 L260.6902,18.978 L260.7042,18.798 L260.9682,18.798 L261.0392,18.601 L260.9412,18.31 L260.4102,18.31 C260.3952,18.253 260.3812,18.212 260.3812,18.156 L260.0182,17.905 L259.7952,17.862 L259.4452,17.723 L259.1942,17.723 L259.0822,17.514 L258.9692,17.334 L258.5502,17.334 L258.3682,17.32 C258.3542,17.222 258.3412,17.109 258.3272,17.012 L258.6202,17.012 L258.7452,16.872 L258.3412,16.761 L258.3682,16.636 L258.5502,16.595 L258.3132,16.385 L258.0052,16.301 L258.1022,16.107 L257.7812,15.967 L257.4462,15.981 L257.3902,15.828 L257.1242,15.813 L257.0122,15.785 L257.2212,15.631 L256.9292,15.534 L256.5652,15.631 L256.3422,15.366 L256.3142,15.228 L256.1032,15.214 L256.1032,15.046 L255.7822,14.921 L255.3492,14.921 L255.2652,15.06 L255.0272,15.089 L254.8182,15.032 L254.7062,15.2 L254.4832,15.214 L254.5242,14.99 L254.6922,14.795 L254.5522,14.516 L254.5242,14.279 L254.1602,14.279 L253.9372,14.447 L253.6852,14.461 L253.4622,14.572 L253.3222,14.809 L253.3912,15.075 L253.2102,15.241 L253.3222,15.577 L253.1132,15.605 L252.9592,15.311 L253.0282,14.935 L253.0992,14.684 L253.3772,14.433 L253.6992,14.238 L253.3772,14.238 L253.0002,14.279 L252.5392,14.572 L252.1202,14.99 L251.8262,15.548 L252.1332,15.617 L252.3582,15.646 L252.3702,15.868 L252.1202,15.813 L251.7982,15.897 L251.9242,16.176 L252.2592,16.176 L252.4552,16.107 L252.6222,16.287 L253.0142,16.455 L252.7212,16.538 L252.6222,16.789 L252.7622,16.97 L252.3012,17.459 L252.0352,17.808 L251.7002,18.087 L251.5042,17.961 L251.4772,17.528 L251.7432,17.277 L251.4772,16.872 L251.0292,17.166 L250.8192,16.607 L250.6942,16.538 L250.8622,16.259 L250.9592,15.953 L250.7912,15.911 L250.9172,15.66 L250.7772,15.38 L250.4422,15.354 L250.2882,15.506 L250.1212,15.52 L249.7992,15.771 L249.7442,15.994 L249.5892,16.162 L249.7152,16.455 L249.8962,16.65 L249.6592,16.915 L249.3662,16.832 L249.2952,17.138 L249.5892,17.124 L250.0222,16.915 C249.9672,17.026 249.9102,17.124 249.8552,17.235 L249.1142,17.557 L248.9182,18.044 L248.6802,17.765 L248.9602,17.431 C248.8902,17.431 248.8062,17.431 248.7372,17.417 L248.8902,17.109 L249.1002,17.109 L249.2952,16.664 L248.9742,16.385 L248.6662,16.692 L248.3172,16.832 L248.5542,17.194 L248.2192,17.389 L247.9822,17.654 L247.0872,17.654 L246.7932,17.431 L246.5272,17.36 L246.3322,17.069 L245.9122,17.249 L245.3252,17.459 L245.1852,17.779 L244.7672,18.267 L244.9342,17.668 L244.7102,17.431 L244.1792,17.514 L243.3262,17.348 L243.4662,17.18 L243.9132,17.054 L243.7462,16.72 L243.4522,16.72 L243.0052,16.37 L243.0742,16.134 L242.8092,16.065 L242.5992,16.065 L242.2912,16.245 L242.0542,16.287 L242.3902,15.856 L241.8302,16.218 L241.6902,16.148 L242.1242,15.646 L242.0272,15.548 L241.5502,15.856 L241.1602,16.05 L240.8802,16.079 L240.4192,16.204 L239.8592,16.399 L240.5172,16.079 L240.8802,15.994 L241.1732,15.911 L241.4672,15.757 L241.4242,15.716 L240.9492,15.842 L240.3632,16.036 L240.1682,16.036 C240.1112,16.036 240.0692,16.022 240.0142,16.022 L239.2872,16.287 L239.0762,16.204 L239.3142,15.856 L238.9932,15.771 L239.1192,15.591 L239.0492,15.506 L238.6992,15.577 L238.8242,15.395 C238.7552,15.38 238.6992,15.366 238.6292,15.366 L238.6442,15.2 C238.5872,15.186 238.5322,15.172 238.4752,15.172 L238.3782,15.158 C235.6942,16.706 233.1922,18.547 230.9412,20.666 L231.2482,20.581 L231.1782,20.777 L230.6612,20.986 L230.2982,21.28 C230.2412,21.334 230.1862,21.391 230.1292,21.446 L229.8782,21.739 L230.6192,21.391 L230.9822,21.32 C231.1222,21.154 231.3042,20.903 231.4992,20.806 L231.7102,20.861 L231.5972,21.223 L231.5702,21.531 L231.6962,21.698 L232.0172,21.614 L232.0732,21.796 C232.1292,21.81 232.1992,21.81 232.2542,21.822 L232.1852,22.144 L232.2542,22.45 C232.2692,22.59 232.2692,22.786 232.2832,22.925 C232.3522,22.911 232.4372,22.869 232.5062,22.855 L232.5342,23.092 L232.4232,23.427 L232.6322,23.608 L232.3382,23.915 L232.5062,24.166 L232.2402,24.444 L232.3662,24.584 L232.5482,24.654 L232.3252,25.003 L232.2542,25.393 L232.0312,25.825 L231.8772,26.244 L232.1432,26.327 L231.9332,26.815 L231.9892,27.303 L231.8912,27.651 L232.0882,27.944 L232.3382,28.153 L232.5632,28.307 L232.4782,28.572 L232.6882,28.948 L232.8412,29.27 L232.7032,29.924 C232.6322,30.092 232.5482,30.273 232.4782,30.44 L232.4082,30.092 L232.3522,29.645 L232.4232,29.367 L232.2402,29.074 L232.0882,28.948 L232.2542,28.515 C232.1712,28.515 232.1002,28.503 232.0172,28.503 L231.9192,28.278 L231.7932,28.153 L231.6542,28.056 L231.4162,28.084 L231.4162,28.446 L231.5422,28.683 L231.6392,29.005 L231.9192,29.534 L231.8492,30.064 L231.7512,30.734 L231.5142,31.262 L231.1782,31.987 C231.0672,32.252 230.9682,32.532 230.8562,32.811 L230.6042,32.993 C230.5352,33.173 230.4662,33.354 230.4092,33.536 L230.4382,34.135 L230.1722,34.68 L230.0882,35.125 L230.1292,35.516 L229.9342,36.074 L230.0322,36.562 L230.2552,36.98 L230.2412,37.803 L230.4522,38.166 L230.4232,38.597 L230.5922,39.113 C230.7302,39.127 230.8702,39.127 231.0102,39.142 L231.2482,39.504 L231.6682,39.81 L231.9192,40.271 L231.9192,40.8 L232.0032,41.344 L232.0882,42.237 L232.3382,42.642 L232.6602,43.101 L232.7152,43.422 L232.3802,43.687 L232.5342,44.049 L232.8842,44.426 L233.3442,44.845 L233.5962,45.276 L233.5132,45.626 L233.5962,45.918 L233.9742,46.128 L234.3242,46.531 L234.5762,46.867 L234.5762,47.257 L234.7992,47.145 L234.8832,46.727 L234.7572,46.239 L234.5762,46.016 L234.5622,45.583 L234.1842,45.207 L234.0732,44.648 L233.9742,44.12 L233.6812,43.715 L233.6242,43.227 L233.3032,43.045 L233.1782,42.405 L232.8692,41.846 L232.9262,41.15 L233.2332,41.136 L233.6392,41.373 L233.8342,41.763 L233.7792,42.363 L234.1422,43.185 L234.5762,43.855 L234.9802,44.328 L235.2602,44.788 L235.3032,45.304 L235.7642,45.652 L236.0842,46.155 L236.3222,46.685 L236.8682,47.424 L237.0642,48.051 L237.3712,48.359 L237.0502,48.582 L236.9512,48.972 L237.5942,49.6 L238.1262,50.114 L238.7982,50.38 L239.4962,50.868 L240.3202,51.301 L241.2442,51.831 L241.9992,52.082 L242.4882,52.068 L242.6422,51.803 L243.1862,51.76 L243.8012,52.109 L244.4872,52.681 L244.8642,53.155 C245.0452,53.155 245.2422,53.169 245.4232,53.169 L245.6482,53.169 L245.9692,53.309 L246.3182,53.811 L247.0182,54.048 L247.0442,53.726 L247.4362,53.936 C248.5832,55.512 248.5832,55.512 248.4852,55.832 L248.7092,56.097 L248.9892,55.971 L249.3802,56.167 C250.1482,56.878 250.1482,56.878 250.5112,56.85 L251.4912,57.338 L252.0072,57.561 L251.9662,57.06 L252.2182,56.738 L253.1252,56.809 L253.2242,57.129 L253.5172,57.101 L253.6712,56.683 L253.3362,56.293 C253.0142,56.293 252.7072,56.293 252.3992,56.279 L251.7842,56.236 L250.8762,56.167 L250.4562,55.874 L249.8692,55.26 L249.8962,54.773 C249.8962,54.564 249.8962,54.34 249.8822,54.131 L250.0642,53.323 L250.0642,52.764 L249.7702,52.333 L249.1982,52.025 L248.3312,52.082 L247.7302,51.942 L247.0592,52.193 L246.6122,51.886 L247.0182,51.566 L247.0182,51.301 L247.0182,50.966 L247.1702,50.604 L247.3942,50.017 C247.3942,49.794 247.3942,49.572 247.4082,49.349 L247.7992,49.098 L247.8702,48.61 L247.5902,48.414 L246.6402,48.456 L246.0382,48.539 L245.7742,48.999 L245.5082,49.683 L245.2282,50.311 L244.7242,50.365 L244.0122,50.547 L243.2712,50.631 L242.9342,50.157 L242.3342,49.809 L242.1242,49.278 L241.7192,48.582 L241.5242,47.396 L241.4672,46.545 L241.8022,45.904 L241.9992,45.165 L241.7472,44.385 L242.3342,43.673 L242.7822,43.66 L243.2572,43.296 L243.7462,42.865 L244.3752,42.976 L244.8222,43.144 L245.1992,42.99 L245.4792,43.407 C245.6602,43.407 245.8432,43.422 246.0242,43.422 L246.4582,43.395 L246.3892,43.073 L246.5692,42.571 L247.2552,42.557 L247.7302,42.502 L248.5972,42.614 L248.9182,43.059 L249.1982,43.059 L249.3932,42.808 L249.6452,42.753 L250.0642,43.087 L250.4282,43.561 C250.4282,43.743 250.4142,43.924 250.4142,44.106 L250.6242,44.426 L250.7082,44.788 L250.9882,45.053 L251.1402,45.444 L251.4912,45.64 L251.5182,46.057 L251.8402,46.155 L252.0352,45.863 L252.2042,45.416 L252.0212,44.873 L251.8542,44.035 L251.4632,43.296 C251.4772,42.976 251.4912,42.67 251.5322,42.195 C251.5892,42.041 251.6722,41.846 251.7432,41.693 L252.1202,41.01 L252.6652,40.8 L253.3082,40.271 L253.9092,39.88 L254.4832,39.672 L254.5802,39.267 L255.0272,39.016 L254.6642,38.346 L254.3842,38.04 L254.5242,37.678 L254.2862,37.342 L254.7202,37.133 L255.0842,37.621 L255.3072,37.133 L255.5592,36.714 L255.8392,36.451 L256.1312,35.558 L256.9572,35.558 L257.4732,35.265 L258.0902,35.21 L257.8932,34.86 L257.8502,34.135 L258.2562,33.592 L258.7312,33.592 L258.8712,33.271 L259.4862,33.299 L260.0322,32.979 L260.3672,32.546 C261.3452,32.518 261.3452,32.518 261.8082,32.671 C261.7512,32.728 261.6822,32.797 261.6252,32.853 C261.3742,32.853 261.1082,32.853 260.8422,32.867 C260.7162,32.965 260.5502,33.09 260.4242,33.188 C260.4242,33.327 260.4522,33.508 260.4792,33.633 L260.8152,33.773 L261.1652,33.479 L261.4162,33.299 L261.9052,33.145 L262.4232,32.88 L262.9402,32.755 L263.3042,32.267 L263.6812,31.932 L263.6942,31.542 L263.1642,31.681 L262.8412,32.281 L262.2002,32.323 L261.6542,32.072 L261.0672,31.653 L260.7302,30.928 L261.1932,30.566 L261.1222,29.995 L260.4242,29.938 L259.6832,30.161 L258.8572,30.635 L258.0472,31.416 L257.3902,31.863 L257.6412,31.444 L258.0332,30.997 L258.2852,30.775 L257.6272,30.608 L258.4532,30.608 L258.6342,30.218 L259.0682,29.869 L259.5982,29.841 L259.7952,29.408 L260.2272,29.242 L260.9132,29.242 L262.1572,29.199 L262.8002,29.297 L263.2902,29.27 L263.7362,28.906 L264.1002,28.418 L264.8692,28.321 L265.2752,28.181 Z M254.2312,45.541 C254.2312,45.541 254.4122,45.737 254.3842,45.863 C254.3702,45.988 254.2722,46.114 254.3842,46.253 C254.4952,46.393 254.5662,46.448 254.4952,46.545 C254.4402,46.63 254.2442,46.81 254.2172,46.588 C254.2032,46.365 254.3152,46.253 254.0772,46.128 C253.8392,46.002 253.6432,45.96 253.7402,45.778 C253.8392,45.598 253.8802,45.318 253.9922,45.389 C254.1052,45.458 254.2312,45.541 254.2312,45.541 L254.2312,45.541 Z M249.1142,47.772 C249.2542,47.632 249.7992,47.327 250.5112,47.173 C251.2252,47.019 251.7702,46.796 252.3292,47.173 C252.8882,47.549 252.8742,47.8 253.1822,47.772 C253.4892,47.745 254.1322,47.814 254.4122,48.094 C254.6922,48.386 254.9442,48.624 255.1812,48.665 C255.4332,48.721 255.6142,48.79 255.6142,48.79 C255.6142,48.79 256.1032,48.804 255.9652,48.986 C255.8102,49.167 255.9222,49.124 256.0902,49.112 C256.2432,49.098 256.5942,49.124 256.7202,49.264 C256.8452,49.39 256.9572,49.474 256.9572,49.474 C256.9572,49.474 257.2782,49.655 257.0262,49.655 C256.7752,49.655 256.5372,49.612 256.4252,49.74 C256.3142,49.865 256.0622,49.948 255.8942,49.837 C255.7272,49.725 255.4472,49.683 255.0552,49.794 C254.6642,49.906 253.9512,50.074 254.3002,49.794 C254.6642,49.515 254.9442,49.376 254.7902,49.223 C254.6352,49.07 254.3572,49.139 254.3572,49.139 C254.3572,49.139 253.9652,49.264 253.8252,48.986 C253.6992,48.721 253.5032,48.525 253.2942,48.484 C253.0842,48.442 252.6222,48.456 252.4962,48.288 C252.3702,48.122 252.0502,47.954 251.8542,47.982 C251.6582,48.009 251.0852,48.08 250.9882,47.926 C250.8892,47.772 250.8892,47.647 251.0292,47.661 C251.1692,47.675 251.2802,47.452 250.9172,47.509 C250.5542,47.563 250.3302,47.494 250.1482,47.689 C249.9672,47.883 249.9952,47.996 249.7702,47.982 C249.5472,47.968 249.4782,47.926 249.4072,48.065 C249.3522,48.205 249.0302,48.316 249.1002,48.135 C249.1842,47.982 249.0302,47.857 249.1142,47.772 L249.1142,47.772 Z M258.0192,48.707 C257.9762,48.847 257.9762,49.013 257.8382,49.027 C257.6982,49.041 257.2502,48.958 257.4462,48.819 C257.6272,48.679 257.5862,48.735 257.7122,48.762 C257.8382,48.79 258.0612,48.596 258.0192,48.707 L258.0192,48.707 Z M258.4802,48.108 C258.7742,48.08 258.9422,47.982 258.9692,48.108 C259.0112,48.233 259.0952,48.205 259.1512,48.26 C259.2202,48.316 259.2352,48.414 259.1512,48.456 C259.0682,48.498 258.9972,48.414 258.8432,48.359 C258.6902,48.302 258.4672,48.371 258.3822,48.331 C258.2992,48.288 258.3542,48.122 258.4802,48.108 L258.4802,48.108 Z M253.8662,51.05 C254.0062,51.021 254.0912,50.993 254.1322,50.981 C254.1752,50.966 254.3002,50.91 254.4692,50.981 C254.6352,51.05 254.7202,51.078 254.8182,51.05 C254.9152,51.035 254.9722,51.021 255.0272,51.106 C255.0842,51.189 255.0842,51.232 255.2102,51.203 C255.3352,51.175 255.3212,51.119 255.3902,51.272 C255.4612,51.426 255.6012,51.495 255.4472,51.495 C255.2932,51.495 255.2652,51.495 255.2242,51.537 C255.1812,51.58 255.0842,51.537 255.0552,51.481 C255.0272,51.426 254.9722,51.398 254.9302,51.468 C254.8872,51.552 254.8592,51.594 254.7902,51.552 C254.7202,51.509 254.7612,51.691 254.6922,51.649 C254.6212,51.607 254.5242,51.523 254.4402,51.537 C254.3572,51.537 254.2312,51.58 254.1892,51.481 C254.1322,51.384 254.1052,51.355 254.0062,51.301 C253.8802,51.244 253.7142,51.078 253.8662,51.05 L253.8662,51.05 Z M257.6702,49.962 C257.8102,49.851 258.0612,49.683 258.2992,49.809 C258.5362,49.934 258.6902,50.157 258.8432,50.003 C258.9972,49.851 259.0252,49.78 259.2202,49.851 C259.4172,49.92 259.4452,49.991 259.5292,49.906 C259.6122,49.823 259.8352,49.823 260.0182,49.962 C260.2002,50.102 260.2702,50.102 260.3262,50.06 C260.3812,50.003 260.4102,50.102 260.4102,50.171 C260.4102,50.254 260.3952,50.464 260.5642,50.394 C260.7302,50.325 261.0392,50.227 261.1362,50.394 C261.2342,50.562 261.4302,50.729 261.4302,50.729 C261.4302,50.729 261.6822,50.868 261.5832,50.966 C261.5002,51.064 261.3602,51.064 261.3882,51.161 C261.4162,51.258 261.3742,51.412 261.3052,51.286 C261.2342,51.161 261.1792,51.035 261.0532,51.05 C260.9272,51.064 260.7592,51.092 260.6472,51.05 C260.5212,51.007 260.3532,50.91 260.2842,51.035 C260.2132,51.161 260.2272,51.232 260.1012,51.232 C259.9612,51.232 259.8502,51.232 259.7952,51.161 C259.7382,51.092 259.7522,51.092 259.6402,51.119 C259.5292,51.147 259.5002,51.147 259.5002,51.232 C259.5002,51.315 259.4862,51.355 259.3752,51.481 C259.2632,51.607 259.1942,51.76 259.0822,51.607 C258.9692,51.454 259.0112,51.189 258.7882,51.217 C258.5652,51.244 258.3682,51.286 258.1732,51.286 C257.9762,51.286 257.7122,51.05 257.5722,51.161 C257.4322,51.272 257.1802,51.44 257.1102,51.315 C257.0402,51.189 256.8582,51.161 256.8452,51.092 C256.8312,51.021 256.8032,50.813 257.0122,50.841 C257.2232,50.868 257.3202,50.981 257.4602,50.952 C257.5992,50.924 257.6842,50.853 257.9072,50.952 C258.1302,51.05 258.2282,51.092 258.2702,50.993 C258.3272,50.896 258.5912,50.896 258.3962,50.784 C258.2152,50.673 258.0052,50.547 258.1022,50.478 C258.2012,50.408 258.2562,50.325 258.1592,50.227 C258.0472,50.129 258.0332,50.031 257.8652,50.074 C257.6982,50.114 257.5992,50.031 257.6702,49.962 L257.6702,49.962 Z M257.8102,50.547 C257.7532,50.617 257.6842,50.687 257.7672,50.729 C257.8502,50.77 258.1022,50.799 258.0332,50.729 C257.9502,50.645 257.8652,50.464 257.8102,50.547 L257.8102,50.547 Z M262.7442,50.966 C262.8842,51.092 263.3042,51.035 263.3042,51.035 C263.3042,51.035 263.9052,51.035 263.7792,51.161 C263.6532,51.286 263.6672,51.58 263.3872,51.523 C263.1072,51.468 262.8982,51.412 262.7442,51.426 C262.5902,51.44 262.4372,51.398 262.4642,51.301 C262.4922,51.203 262.4372,51.175 262.4642,51.078 C262.4922,50.966 262.6462,50.882 262.7442,50.966 L262.7442,50.966 Z M266.6452,52.123 C266.7142,52.096 266.8542,52.137 266.8262,52.179 C266.7992,52.222 266.7282,52.262 266.6852,52.234 C266.6452,52.207 266.6302,52.123 266.6452,52.123 L266.6452,52.123 Z M266.9372,52.653 C266.9372,52.736 266.9102,52.848 266.8542,52.793 C266.7992,52.736 266.7282,52.681 266.7142,52.764 C266.7002,52.848 266.7282,52.862 266.7422,52.946 C266.7562,53.044 266.7422,53.099 266.7992,53.086 C266.8682,53.058 266.9102,53.072 266.9102,52.987 C266.9102,52.904 266.8962,52.848 266.9652,52.862 C267.0362,52.876 267.0502,52.848 267.1052,52.848 C267.1622,52.848 267.2172,52.835 267.1622,52.793 C267.1052,52.75 267.0362,52.764 267.0222,52.695 C267.0082,52.639 266.9372,52.584 266.9372,52.653 L266.9372,52.653 Z M267.0912,53.337 C267.1342,53.378 267.1622,53.378 267.1482,53.448 C267.1342,53.517 267.1342,53.629 267.0912,53.643 C267.0502,53.657 267.0082,53.588 267.0082,53.588 C267.0082,53.588 266.9802,53.475 266.9652,53.406 C266.9512,53.337 267.0632,53.295 267.0912,53.337 L267.0912,53.337 Z M267.3022,53.977 C267.3022,53.977 267.4002,54.062 267.4402,54.145 C267.4832,54.228 267.5402,54.354 267.4692,54.313 C267.4002,54.271 267.3852,54.242 267.3152,54.256 C267.2452,54.271 267.2172,54.187 267.2452,54.173 C267.2742,54.159 267.2742,54.131 267.2172,54.089 C267.1762,54.076 267.1892,53.88 267.3022,53.977 L267.3022,53.977 Z M267.4262,54.661 C267.4262,54.661 267.4832,54.815 267.4262,54.829 C267.3712,54.842 267.3012,54.884 267.2742,54.815 C267.2452,54.744 267.2312,54.661 267.2742,54.605 C267.3152,54.55 267.4142,54.605 267.4262,54.661 L267.4262,54.661 Z M267.2602,55.177 C267.2602,55.275 267.2602,55.386 267.2032,55.358 C267.1342,55.33 267.0502,55.289 267.1202,55.232 C267.1892,55.177 267.1892,55.177 267.1892,55.135 C267.1892,55.093 267.2602,55.107 267.2602,55.177 L267.2602,55.177 Z M268.4332,55.218 C268.5182,55.26 268.4752,55.303 268.5322,55.303 C268.5872,55.317 268.6582,55.358 268.6012,55.386 C268.5452,55.414 268.4902,55.414 268.4202,55.414 C268.3502,55.4 268.3502,55.317 268.3502,55.317 C268.3502,55.317 268.3212,55.177 268.4332,55.218 L268.4332,55.218 Z M266.7992,56.097 C266.8682,56.083 266.9372,56.125 266.9252,56.181 C266.9102,56.236 266.8402,56.307 266.7852,56.279 C266.7282,56.25 266.7422,56.111 266.7992,56.097 L266.7992,56.097 Z M258.5792,53.852 C258.6762,53.825 258.7602,53.894 258.7452,53.963 C258.7312,54.034 258.6342,54.131 258.5652,54.089 C258.4802,54.062 258.4942,53.88 258.5792,53.852 L258.5792,53.852 Z M259.5712,42.306 C259.7242,42.265 259.8502,42.377 259.8352,42.488 C259.8232,42.599 259.6692,42.753 259.5432,42.683 C259.4312,42.628 259.4452,42.334 259.5712,42.306 L259.5712,42.306 Z M267.4552,56.906 C267.4402,56.85 267.4972,56.878 267.5252,56.823 C267.5522,56.767 267.5522,56.724 267.6232,56.753 C267.6922,56.781 267.7772,56.795 267.7062,56.85 C267.6372,56.906 267.5802,56.878 267.5402,56.906 C267.5112,56.947 267.4692,56.961 267.4552,56.906 L267.4552,56.906 Z M267.2882,57.157 C267.3152,57.269 267.2452,57.311 267.2882,57.366 C267.3292,57.435 267.3712,57.534 267.3852,57.603 C267.4142,57.659 267.4692,57.742 267.3022,57.771 C267.1342,57.799 267.0362,57.742 266.9252,57.771 C266.8112,57.799 266.6592,57.84 266.6732,57.785 C266.6852,57.728 266.7702,57.686 266.8542,57.659 C266.9372,57.631 267.0222,57.603 266.9942,57.506 C266.9652,57.408 267.0082,57.297 266.8962,57.324 C266.7852,57.338 266.7702,57.269 266.8822,57.255 C266.9942,57.24 267.0772,57.283 267.1342,57.212 C267.2032,57.115 267.2882,57.101 267.2882,57.157 L267.2882,57.157 Z M265.7352,51.189 C265.6802,51.189 265.6932,51.258 265.6522,51.272 C265.6102,51.286 265.6382,51.315 265.6662,51.301 C265.7072,51.286 265.7502,51.301 265.7782,51.272 C265.8062,51.232 265.7922,51.203 265.7352,51.189 L265.7352,51.189 Z M264.3102,51.607 C264.3232,51.566 264.3942,51.552 264.4492,51.58 C264.5052,51.607 264.5482,51.649 264.4912,51.649 C264.4222,51.649 264.4082,51.649 264.3652,51.677 C264.3232,51.705 264.2822,51.663 264.3102,51.607 L264.3102,51.607 Z" id="Fill-3" fill="#FFFFFF"></path>
            <path d="M252.3706,86.5219 C231.9886,86.5219 215.3956,69.9859 215.3956,49.6559 C215.3956,29.3239 231.9746,12.7739 252.3706,12.7739 C272.7536,12.7739 289.332609,29.3099 289.332609,49.6559 C289.3466,69.9719 272.7536,86.5219 252.3706,86.5219 M252.3706,13.8469 C232.5896,13.8469 216.4856,29.9109 216.4856,49.6419 C216.4856,69.3719 232.5896,85.4349 252.3706,85.4349 C272.1536,85.4349 288.2566,69.3719 288.2566,49.6419 C288.2566,29.9109 272.1656,13.8469 252.3706,13.8469" id="Fill-5" fill="#FFFFFF"></path>
            <path d="M264.6315,116.0275 C264.9525,116.0275 265.2745,116.0415 265.5955,116.0695 C266.2815,116.1385 266.9515,116.2925 267.5805,116.4875 C270.9645,117.5885 273.4945,120.5175 274.0395,124.1015 C274.6825,124.3095 275.3395,124.4495 276.0245,124.5195 C275.5915,119.6535 272.0965,115.6655 267.4835,114.4665 C266.8685,114.2985 266.2395,114.2015 265.5815,114.1445 C265.2745,114.1165 264.9525,114.1025 264.6315,114.1025 C264.2825,114.1025 263.9335,114.1165 263.5965,114.1585 C263.6245,114.4665 263.6395,114.7725 263.6395,115.0795 C263.6395,115.4145 263.6245,115.7485 263.5825,116.0695 C263.9335,116.0415 264.2825,116.0275 264.6315,116.0275" id="Fill-7" fill="#FFFFFF"></path>
            <path d="M276.9899,103.6316 C270.9779,103.6316 266.0299,108.2616 265.5669,114.1586 C266.2249,114.2156 266.8539,114.3126 267.4689,114.4806 C267.7769,109.5026 271.9139,105.5566 276.9759,105.5566 C282.2449,105.5566 286.5089,109.8086 286.5089,115.0656 C286.5089,120.3216 282.2449,124.5746 276.9759,124.5746 C276.6529,124.5746 276.3319,124.5606 276.0119,124.5346 C275.3259,124.4636 274.6539,124.3236 274.0249,124.1156 C270.6429,123.0136 268.0979,120.0846 267.5669,116.5016 C266.9249,116.2926 266.2669,116.1526 265.5819,116.0836 C266.0159,120.9496 269.5109,124.9516 274.1239,126.1376 C274.7389,126.2896 275.3819,126.4016 276.0239,126.4576 C276.3319,126.4856 276.6529,126.4996 276.9759,126.4996 C283.3079,126.4996 288.425014,121.3826 288.425014,115.0796 C288.4529,108.7496 283.3229,103.6316 276.9899,103.6316" id="Fill-9" fill="#FFFFFF"></path>
            <path d="M238.7979,114.2008 C238.3499,108.2888 233.4149,103.6448 227.3749,103.6448 C221.0569,103.6448 215.9259,108.7628 215.9259,115.0648 C215.9259,121.3678 221.0569,126.4858 227.3749,126.4858 C227.7259,126.4858 228.0609,126.4708 228.3819,126.4428 C228.3679,126.1508 228.3549,125.8718 228.3549,125.5788 C228.3549,125.2298 228.3679,124.8678 228.3959,124.5198 C228.0609,124.5618 227.7119,124.5748 227.3609,124.5748 C222.1059,124.5748 217.8279,120.3228 217.8279,115.0648 C217.8279,109.8078 222.1059,105.5558 227.3609,105.5558 C232.4509,105.5558 236.5879,109.5298 236.8819,114.5348 C236.8959,114.7168 236.9109,114.8848 236.9109,115.0648 C236.9109,115.5818 236.8539,116.0698 236.7849,116.5578 C236.2249,120.0858 233.7219,122.9708 230.3949,124.0868 C230.3119,124.5748 230.2699,125.0768 230.2699,125.5788 C230.2699,125.7608 230.2839,125.9408 230.2979,126.1088 C234.8689,124.9098 238.3359,120.9498 238.7839,116.1118 C238.8249,115.7618 238.8389,115.4138 238.8389,115.0648 C238.8389,114.7718 238.8249,114.4798 238.7979,114.2008" id="Fill-11" fill="#FFFFFF"></path>
            <path d="M239.8172,116.0556 C240.1392,116.0556 240.4602,116.0696 240.7832,116.0976 C241.4672,116.1666 242.1392,116.3066 242.7682,116.5156 C246.1502,117.6166 248.6802,120.5316 249.2402,124.1146 C249.8842,124.3236 250.5402,124.4636 251.2252,124.5336 C250.7912,119.6676 247.2962,115.6786 242.6832,114.4946 C242.0682,114.3406 241.4252,114.2296 240.7832,114.1726 C240.4742,114.1446 240.1542,114.1306 239.8312,114.1306 C239.4822,114.1306 239.1612,114.1446 238.8242,114.1726 C238.8532,114.4666 238.8672,114.7436 238.8672,115.0376 C238.8672,115.3856 238.8532,115.7476 238.8102,116.0836 C239.1332,116.0836 239.4682,116.0556 239.8172,116.0556" id="Fill-13" fill="#FFFFFF"></path>
            <path d="M249.3239,126.151 C249.0159,131.129 244.8929,135.089 239.8169,135.089 C234.7289,135.089 230.5919,131.115 230.3119,126.109 C230.2979,125.928 230.2839,125.76 230.2839,125.58 C230.2839,125.078 230.3399,124.576 230.4099,124.088 C230.9679,120.559 233.4709,117.673 236.7989,116.557 C236.8819,116.069 236.9249,115.581 236.9249,115.065 C236.9249,114.885 236.9109,114.703 236.8959,114.536 C232.3109,115.735 228.8569,119.695 228.4109,124.519 C228.3819,124.868 228.3679,125.23 228.3679,125.58 C228.3679,125.872 228.3819,126.165 228.3959,126.444 C228.8449,132.342 233.7789,137 239.8169,137 C245.8429,137 250.7769,132.356 251.2399,126.471 C250.5819,126.416 249.9389,126.305 249.3239,126.151" id="Fill-15" fill="#FFFFFF"></path>
            <path d="M252.1897,124.603 C251.8687,124.603 251.5467,124.589 251.2257,124.547 C250.5397,124.477 249.8697,124.338 249.2407,124.129 C245.8567,123.028 243.3267,120.099 242.7677,116.529 C242.1387,116.321 241.4667,116.181 240.7827,116.111 C241.2157,120.977 244.7107,124.98 249.3237,126.164 C249.9387,126.318 250.5817,126.429 251.2257,126.486 C251.5467,126.514 251.8547,126.528 252.1757,126.528 C252.5247,126.528 252.8737,126.514 253.2107,126.486 C253.1827,126.178 253.1677,125.872 253.1677,125.565 C253.1677,125.231 253.1827,124.896 253.2107,124.561 C252.8877,124.575 252.5387,124.603 252.1897,124.603" id="Fill-17" fill="#FFFFFF"></path>
            <path d="M263.5965,114.1593 C263.1215,108.2743 258.2015,103.6603 252.1895,103.6603 C246.1635,103.6603 241.2435,108.2883 240.7685,114.1873 C241.4245,114.2423 242.0535,114.3413 242.6685,114.5073 C242.9775,109.5153 247.1015,105.5693 252.1755,105.5693 C257.2495,105.5693 261.3735,109.5153 261.6825,114.4933 C261.6965,114.6893 261.7095,114.8843 261.7095,115.0943 C261.7095,115.5823 261.6685,116.0563 261.5835,116.5303 C261.0535,120.0853 258.5365,123.0003 255.1955,124.1153 C255.1245,124.5893 255.0695,125.0633 255.0695,125.5513 C255.0695,125.7473 255.0835,125.9413 255.0985,126.1383 C259.6975,124.9233 263.1495,120.9353 263.5695,116.0843 C263.5965,115.7483 263.6245,115.4283 263.6245,115.0943 C263.6385,114.7723 263.6245,114.4663 263.5965,114.1593" id="Fill-19" fill="#FFFFFF"></path>
            <path d="M274.1382,126.1229 C273.8302,131.1009 269.7062,135.0469 264.6312,135.0469 C259.5572,135.0469 255.4332,131.1009 255.1252,126.1229 C255.1102,125.9279 255.0982,125.7319 255.0982,125.5379 C255.0982,125.0499 255.1392,124.5759 255.2242,124.1009 C255.7682,120.5459 258.2702,117.6309 261.6112,116.5149 C261.6822,116.0409 261.7372,115.5669 261.7372,115.0789 C261.7372,114.8709 261.7232,114.6749 261.7092,114.4799 C257.1242,115.6929 253.6572,119.6809 253.2392,124.5199 C253.2102,124.8539 253.1962,125.1749 253.1962,125.5239 C253.1962,125.8299 253.2102,126.1369 253.2392,126.4429 C253.7142,132.3139 258.6342,136.9439 264.6602,136.9439 C270.6702,136.9439 275.6062,132.2999 276.0662,126.4159 C275.3822,126.3879 274.7532,126.2769 274.1382,126.1229" id="Fill-21" fill="#FFFFFF"></path>
            <path d="M217.7853,21.976 C219.0293,22.84 219.2403,24.193 218.1633,25.727 L217.3383,26.912 L219.4633,28.391 L218.4423,29.841 L212.2923,25.545 L214.1373,22.911 C215.1853,21.391 216.5413,21.112 217.7853,21.976 M216.7803,23.482 C216.2343,23.106 215.6883,23.245 215.3533,23.733 L214.5153,24.932 L216.1923,26.104 L217.0303,24.905 C217.3673,24.403 217.3103,23.859 216.7803,23.482" id="Fill-23" fill="#FFFFFF"></path>
            <path d="M226.9146,19.5778 L226.9566,19.7318 L225.6986,21.0138 L224.3836,20.4708 L222.1896,22.7018 L222.7496,24.0118 L221.5316,25.2388 L221.3796,25.1978 L218.4996,17.6258 L219.2546,16.8588 L226.9146,19.5778 Z M223.1396,19.9548 L220.5966,18.9078 L221.6716,21.4468 L223.1396,19.9548 Z" id="Fill-25" fill="#FFFFFF"></path>
            <polygon id="Fill-27" fill="#FFFFFF" points="228.7596 9.413 233.0096 15.632 232.1006 16.246 226.4816 14.67 228.9826 18.323 227.5296 19.313 223.2936 13.122 224.2026 12.508 229.8086 14.084 227.2916 10.403"></polygon>
            <path d="M240.698,12.076 L240.684,12.23 L239.035,12.926 L238.029,11.922 L235.149,13.137 L235.163,14.558 L233.57,15.228 L233.444,15.131 L233.722,7.029 L234.715,6.61 L240.698,12.076 Z M237.077,10.975 L235.135,9.037 L235.149,11.797 L237.077,10.975 Z" id="Fill-29" fill="#FFFFFF"></path>
            <polygon id="Fill-31" fill="#FFFFFF" points="247.9256 10.8214 246.7526 6.9304 245.7456 11.2264 244.7676 11.4064 242.3336 7.7404 242.5996 11.7974 240.8806 12.1184 240.5456 4.5594 241.5646 4.3794 244.8226 9.0364 246.1636 3.5434 247.1706 3.3614 249.5336 10.5424"></polygon>
            <path d="M252.4839,9.3432 L252.4969,9.2032 L253.4479,8.2562 L253.5739,8.2702 C253.9919,8.8412 254.8039,9.3572 255.5309,9.4262 C256.2569,9.4832 256.7319,9.2172 256.7749,8.7862 C256.8319,8.1582 256.1169,8.0192 255.2369,7.6562 C254.2579,7.2522 253.0709,6.5822 253.1819,5.1872 C253.2799,3.8912 254.4959,3.0692 256.1319,3.2072 C257.3349,3.3062 258.3269,3.8632 258.8019,4.5612 L258.7879,4.6862 L257.8379,5.6202 L257.7119,5.6062 C257.3759,5.2012 256.8029,4.7132 256.0339,4.6442 C255.4469,4.6022 255.0129,4.8122 254.9849,5.2292 C254.9439,5.7172 255.4879,5.9682 256.0769,6.2192 C257.3069,6.7212 258.7319,7.2382 258.5929,8.9102 C258.4799,10.3752 257.1099,11.0722 255.5169,10.9462 C254.2029,10.8352 253.0849,10.2222 252.4839,9.3432" id="Fill-33" fill="#FFFFFF"></path>
            <path d="M266.5741,7.8656 C266.1961,9.3296 264.9951,9.9996 263.1921,9.5236 L261.7941,9.1616 L261.1511,11.6576 L259.4311,11.2116 L261.3051,3.9606 L264.4221,4.7706 C266.2111,5.2296 266.9521,6.4016 266.5741,7.8656 M264.8001,7.4606 C264.9661,6.8196 264.6461,6.3596 264.0591,6.2056 L262.6461,5.8436 L262.1291,7.8236 L263.5561,8.1856 C264.1421,8.3396 264.6311,8.0886 264.8001,7.4606" id="Fill-35" fill="#FFFFFF"></path>
            <path d="M267.3291,9.4407 C268.3071,7.4327 270.6011,6.7077 272.6831,7.7117 C274.7531,8.7157 275.6061,10.9607 274.6271,12.9687 C273.6621,14.9637 271.3561,15.7027 269.2871,14.6977 C267.2031,13.6937 266.3511,11.4347 267.3291,9.4407 M272.9921,12.1737 C273.5641,10.9747 273.0891,9.7057 271.9711,9.1617 C270.8521,8.6187 269.5521,9.0217 268.9651,10.2217 C268.3921,11.4067 268.8671,12.6897 269.9861,13.2327 C271.1181,13.7767 272.4171,13.3587 272.9921,12.1737" id="Fill-37" fill="#FFFFFF"></path>
            <path d="M278.7091,20.5404 L278.5551,20.5954 L277.1571,19.5364 L277.6741,16.3984 L276.8501,15.7714 L275.1431,18.0024 L273.7321,16.9284 L278.2751,10.9744 L280.8201,12.9124 C282.3021,14.0424 282.5391,15.3664 281.6441,16.5384 C281.0291,17.3464 280.1481,17.5564 279.2411,17.3054 L278.7091,20.5404 Z M277.6051,14.7954 L278.7371,15.6594 C279.2121,16.0224 279.7851,15.9934 280.1481,15.5204 C280.5261,15.0324 280.4141,14.4604 279.9391,14.0984 L278.8071,13.2344 L277.6051,14.7954 Z" id="Fill-39" fill="#FFFFFF"></path>
            <polygon id="Fill-41" fill="#FFFFFF" points="281.5608 23.7612 280.3448 22.4642 284.7338 18.3512 283.1398 16.6632 284.2178 15.6592 288.6198 20.3312 287.5438 21.3352 285.9508 19.6472"></polygon>
            <path d="M284.2033,24.8488 L284.3153,24.7658 L285.6563,24.9178 L285.7263,25.0168 C285.5453,25.6988 285.6423,26.6608 286.0483,27.2618 C286.4543,27.8608 286.9573,28.0698 287.3213,27.8188 C287.8513,27.4708 287.5163,26.8288 287.2363,25.9078 C286.9433,24.8908 286.7183,23.5518 287.8793,22.7578 C288.9553,22.0328 290.3533,22.4498 291.2763,23.8168 C291.9463,24.8068 292.1293,25.9358 291.8913,26.7458 L291.7803,26.8148 L290.4513,26.6608 L290.3813,26.5638 C290.4933,26.0478 290.5073,25.2948 290.0733,24.6538 C289.7383,24.1648 289.3063,23.9698 288.9553,24.2068 C288.5513,24.4868 288.6913,25.0578 288.8573,25.6708 C289.2353,26.9398 289.7243,28.3768 288.3273,29.3108 C287.1103,30.1328 285.7133,29.5058 284.8183,28.1948 C284.1043,27.1078 283.8813,25.8528 284.2033,24.8488" id="Fill-43" fill="#FFFFFF"></path>
            <path d="M216.5144,72.4532 C218.2334,71.1572 220.5394,71.5342 221.8954,73.3172 C223.2384,75.0892 222.9724,77.4032 221.2534,78.7002 C219.5324,79.9962 217.2274,79.6202 215.8854,77.8502 C214.5294,76.0652 214.7934,73.7502 216.5144,72.4532 M220.1904,77.3062 C221.2114,76.5382 221.3654,75.2282 220.6374,74.2672 C219.9104,73.3032 218.6114,73.0812 217.5764,73.8622 C216.5554,74.6292 216.4024,75.9392 217.1294,76.9012 C217.8564,77.8632 219.1694,78.0732 220.1904,77.3062" id="Fill-45" fill="#FFFFFF"></path>
            <path d="M224.5379,86.3838 L224.3839,86.4248 L223.1129,85.2948 L223.8539,82.3108 L223.1129,81.6428 L221.2949,83.6778 L220.0099,82.5348 L224.8599,77.1238 L227.1519,79.1748 C228.4939,80.3738 228.6199,81.6708 227.6699,82.7298 C227.0119,83.4688 226.1459,83.6088 225.2789,83.2888 L224.5379,86.3838 Z M223.9089,80.7498 L224.9299,81.6708 C225.3639,82.0598 225.9219,82.0738 226.2999,81.6428 C226.6909,81.1958 226.6349,80.6388 226.2019,80.2478 L225.1809,79.3288 L223.9089,80.7498 Z" id="Fill-47" fill="#FFFFFF"></path>
            <path d="M234.1421,88.4192 C233.6101,89.2982 232.8001,89.8832 231.8911,90.1062 C230.9821,90.3302 229.9751,90.2042 229.0391,89.6602 C227.1941,88.5592 226.6341,86.3562 227.7531,84.5002 C228.8711,82.6452 231.1221,82.1312 232.9261,83.2042 C233.9741,83.8322 234.6171,84.8642 234.7711,85.9372 L234.6881,86.0342 L233.3181,86.2712 L233.2051,86.2022 C233.1211,85.5462 232.7721,84.9332 232.1431,84.5702 C231.1641,83.9852 229.9061,84.2772 229.2341,85.3932 C228.5791,86.4812 228.8851,87.7222 229.9201,88.3362 C230.3671,88.5992 230.8841,88.6982 231.3451,88.5992 C231.7101,88.5162 232.0451,88.3362 232.2971,88.0422 L230.6471,87.0672 L231.3041,85.9652 L234.3241,87.7772 L234.3801,87.9452 C234.3241,88.0992 234.2251,88.2792 234.1421,88.4192" id="Fill-49" fill="#FFFFFF"></path>
            <path d="M240.6839,94.4295 L240.5719,94.5265 L238.9359,93.9415 L238.8809,92.5755 L236.0299,91.5565 L235.1059,92.5755 L233.5269,92.0165 L233.4989,91.8625 L239.0209,86.2715 L239.9999,86.6195 L240.6839,94.4295 Z M238.8249,91.2775 L238.7129,88.6135 L236.9109,90.5805 L238.8249,91.2775 Z" id="Fill-51" fill="#FFFFFF"></path>
            <polygon id="Fill-53" fill="#FFFFFF" points="250.0364 88.7257 249.0034 95.9347 247.9394 95.7807 244.9624 90.9847 244.3474 95.2237 242.6564 94.9867 243.6894 87.8047 244.7534 87.9587 247.7164 92.7567 248.3314 88.4747"></polygon>
            <polygon id="Fill-55" fill="#FFFFFF" points="252.9589 88.6702 252.8469 95.9212 251.1269 95.8932 251.2399 88.6422"></polygon>
            <polygon id="Fill-57" fill="#FFFFFF" points="260.0464 93.9268 260.2004 95.3218 254.2174 95.9628 254.0914 94.8198 257.2084 89.7728 253.7404 90.1478 253.5884 88.7538 259.2344 88.1408 259.3604 89.2968 256.2574 94.3458"></polygon>
            <path d="M268.7966,92.8386 L268.7556,92.9926 L267.0916,93.4806 L266.2246,92.4076 L263.3186,93.2716 L263.1786,94.6386 L261.5706,95.1116 L261.4576,95.0006 L262.5896,87.2346 L263.5966,86.9406 L268.7966,92.8386 Z M265.4286,91.3886 L263.7646,89.3116 L263.4706,91.9746 L265.4286,91.3886 Z" id="Fill-59" fill="#FFFFFF"></path>
            <polygon id="Fill-61" fill="#FFFFFF" points="272.4033 91.2079 270.8383 91.9469 268.3353 86.6749 266.3083 87.6389 265.6933 86.3409 271.3133 83.6789 271.9283 84.9749 269.9023 85.9379"></polygon>
            <polygon id="Fill-63" fill="#FFFFFF" points="273.0199 82.5207 276.8499 88.6837 275.3949 89.5897 271.5649 83.4277"></polygon>
            <path d="M276.0383,85.0733 C274.6543,83.4273 274.9203,81.0993 276.6263,79.6623 C278.3313,78.2403 280.6663,78.3783 282.0503,80.0383 C283.4343,81.6843 283.1683,84.0123 281.4633,85.4353 C279.7563,86.8713 277.4223,86.7313 276.0383,85.0733 M280.7223,81.1683 C279.8963,80.1783 278.5833,80.1093 277.6463,80.8753 C276.7243,81.6563 276.5703,82.9533 277.3943,83.9433 C278.2203,84.9193 279.5333,85.0023 280.4703,84.2353 C281.3923,83.4553 281.5323,82.1443 280.7223,81.1683" id="Fill-65" fill="#FFFFFF"></path>
            <polygon id="Fill-67" fill="#FFFFFF" points="284.315 71.4911 290.061 75.9951 289.403 76.8321 283.755 77.0141 287.138 79.6621 286.077 81.0001 280.359 76.5111 281.015 75.6741 286.663 75.5071 283.252 72.8291"></polygon>
            <path d="M210.7402,62.8171 C210.5022,62.0781 210.8942,61.2841 211.6352,61.0471 C212.3762,60.7961 213.1722,61.1991 213.4112,61.9401 C213.6622,62.6771 213.2572,63.4731 212.5302,63.7101 C212.4042,63.7521 212.2922,63.7801 212.1672,63.7801 C211.5522,63.8071 210.9492,63.4301 210.7402,62.8171 M208.5462,51.4961 C208.5032,50.7291 209.0902,50.0591 209.8592,50.0041 C210.6282,49.9611 211.3002,50.5471 211.3552,51.3141 C211.3972,52.0811 210.8092,52.7491 210.0422,52.8061 C209.2582,52.8621 208.5872,52.2761 208.5462,51.4961 M210.4332,41.6511 C209.6782,41.4971 209.1752,40.7581 209.3282,39.9911 C209.4822,39.2381 210.2222,38.7501 210.9922,38.8901 C211.7472,39.0431 212.2362,39.7821 212.0962,40.5501 C211.9702,41.1911 211.4262,41.6371 210.8092,41.6791 C210.6712,41.6931 210.5592,41.6791 210.4332,41.6511" id="Fill-69" fill="#FFFFFF"></path>
            <path d="M292.8276,63.7798 C292.7156,63.7658 292.5906,63.7518 292.4646,63.7108 C291.7236,63.4598 291.3316,62.6648 291.5836,61.9398 C291.8356,61.2008 292.6326,60.8098 293.3596,61.0468 C294.0996,61.2978 294.4916,62.0928 294.2546,62.8178 C294.0446,63.4318 293.4566,63.8078 292.8276,63.7798 M294.9666,52.8198 C294.1976,52.7788 293.6106,52.1088 293.6536,51.3278 C293.6946,50.5618 294.3656,49.9608 295.1496,50.0178 C295.9186,50.0598 296.5196,50.7418 296.4626,51.5098 C296.4076,52.2768 295.7356,52.8618 294.9666,52.8198 M294.1976,41.6928 C293.5826,41.6508 293.0386,41.2048 292.9126,40.5628 C292.7586,39.7958 293.2476,39.0568 294.0166,38.9048 C294.7856,38.7508 295.5266,39.2388 295.6796,40.0058 C295.8336,40.7718 295.3446,41.5128 294.5756,41.6648 C294.4496,41.6788 294.3236,41.6928 294.1976,41.6928" id="Fill-71" fill="#FFFFFF"></path>
            <polygon id="Fill-73" fill="#FFFFFF" points="162.763 137 163.979 137 163.979 0.002 162.763 0.002"></polygon>
            <mask id="mask-2" fill="white">
                <use xlink:href="#path-1"></use>
            </mask>
            <g id="Clip-76"></g>
            <path d="M11.518,18.726 L28.178,18.726 L28.178,10.972 L11.518,10.972 L11.518,18.726 Z M39.693,2.719 C39.626,1.207 38.379,0.001 36.851,0.001 L36.85,0.001 L2.879,0.001 L2.878,0.001 C2.867,0.001 2.856,0.001 2.845,0.001 C1.312,0.001 0.063,1.213 0.003,2.731 L0,2.734 L0,95.631 L11.518,95.631 L11.518,29.697 L28.178,29.697 L28.178,41.776 L39.696,41.776 L39.696,2.719 L39.693,2.719 Z" id="Fill-75" fill="#FFFFFF" mask="url(#mask-2)"></path>
            <path d="M112.1011,0.0284 L112.1011,84.6874 L95.4411,84.6874 L95.4411,0.0004 L83.9231,0.0004 L83.9231,92.8134 C83.9231,94.3844 85.1971,95.6584 86.7681,95.6584 L120.7741,95.6584 C122.3451,95.6584 123.6191,94.3844 123.6191,92.8134 L123.6191,0.0284 L112.1011,0.0284 Z" id="Fill-77" fill="#FFFFFF" mask="url(#mask-2)"></path>
            <path d="M52.8034,8.0872 L52.8034,25.1842 L76.2694,42.5142 L76.2694,77.1732 L47.3924,77.1732 L47.3924,46.6392 L44.3374,46.6392 L44.3374,69.5232 L44.3374,74.6852 L44.3374,77.2002 C44.3374,78.7722 45.6114,80.0462 47.1834,80.0462 L76.4714,80.0462 C78.0424,80.0462 79.3174,78.7722 79.3174,77.2002 L79.3174,42.7832 C79.3174,41.5722 78.7104,40.5032 77.7844,39.8622 L77.7864,39.8602 L55.8674,23.6892 L55.8674,10.9712 L62.8664,10.9712 L62.8664,10.9702 L79.3174,10.9702 L79.3174,10.5232 L79.3174,8.0872 L52.8034,8.0872 Z" id="Fill-78" fill="#FFFFFF" mask="url(#mask-2)"></path>
            <path d="M45.7368,30.3685 L45.7358,30.3695 L45.7638,30.3895 C45.7648,30.3905 45.7658,30.3915 45.7668,30.3915 L67.7878,46.6255 L67.7878,69.0745 L55.8678,69.0745 L55.8678,46.6385 L52.8028,46.6385 L52.8028,71.9465 L70.8508,71.9465 L70.8508,45.1635 L47.3928,27.8485 L47.3928,2.8645 L79.3168,2.8645 L79.3168,2.8465 L79.3168,0.0005 L76.4718,0.0005 L76.4708,0.0005 L72.1798,0.0005 L61.8468,0.0005 L47.2188,0.0005 L47.2188,0.0015 C47.2068,0.0015 47.1958,0.0005 47.1828,0.0005 C45.6188,0.0005 44.3488,1.2635 44.3388,2.8255 L44.3378,2.8255 L44.3378,27.4945 L44.3398,27.4945 C44.3388,27.5115 44.3378,27.5275 44.3378,27.5445 C44.3378,28.6965 44.8868,29.7195 45.7368,30.3685" id="Fill-79" fill="#FFFFFF" mask="url(#mask-2)"></path>
            <polygon id="Fill-80" fill="#FFFFFF" mask="url(#mask-2)" points="48.9628 4.4338 48.9628 27.0558 72.4198 44.3718 72.4198 73.5168 51.2338 73.5168 51.2338 46.6388 48.9628 46.6388 48.9628 75.6038 74.6998 75.6038 74.6998 43.3058 51.2338 25.9758 51.2338 6.5178 79.3168 6.5178 79.3168 4.8978 79.3168 4.4338"></polygon>
            <polygon id="Fill-81" fill="#FFFFFF" mask="url(#mask-2)" points="23.0608 89.1242 23.0608 77.7032 35.0638 68.8022 35.0638 51.0772 16.1598 51.0772 16.1598 52.7932 16.1598 53.1612 32.7928 53.1612 32.7928 67.8562 20.7878 76.7542 20.7878 91.2092 79.2818 91.2092 79.2818 89.5052 79.2818 89.1242"></polygon>
            <path d="M36.6333,49.5074 L36.6333,69.5914 L24.6303,78.4934 L24.6303,87.5544 L79.2813,87.5544 L79.2813,86.0664 L79.2813,84.6874 L27.6893,84.6874 L27.6893,79.8214 L38.2513,72.0124 L38.2473,72.0064 C39.1263,71.3594 39.6953,70.3184 39.6953,69.1444 L39.6953,69.1344 L39.6953,49.4844 C39.6953,47.9124 38.4223,46.6394 36.8503,46.6394 L36.8503,46.6394 L16.1593,46.6394 L16.1593,47.2674 L16.1593,49.2854 L16.1593,49.5074 L36.6333,49.5074 Z" id="Fill-82" fill="#FFFFFF" mask="url(#mask-2)"></path>
            <path d="M19.2178,92.7789 L19.2178,75.9629 L31.2228,67.0659 L31.2228,54.7299 L16.1598,54.7299 L16.1598,57.1539 L16.1598,57.6109 L28.1668,57.6109 L28.1668,65.7459 L17.7528,73.4549 C16.7928,74.0909 16.1598,75.1799 16.1598,76.4179 L16.1598,92.8129 C16.1598,94.3849 17.4338,95.6589 19.0048,95.6589 L79.2818,95.6589 L79.2818,94.7699 L79.2818,93.0119 L79.2818,92.7789 L19.2178,92.7789 Z" id="Fill-83" fill="#FFFFFF" mask="url(#mask-2)"></path>
            <path d="M13.217,117.6066 C13.217,119.1936 13.007,120.4606 10.889,120.4606 C10.626,120.4606 10.247,120.4276 9.954,120.3786 L9.954,118.8166 C10.106,118.8346 10.259,118.8526 10.509,118.8526 C11.149,118.8526 11.383,118.6816 11.383,117.8276 L11.383,108.4266 L13.217,108.4266 L13.217,117.6066 Z" id="Fill-84" fill="#FFFFFF" mask="url(#mask-2)"></path>
            <path d="M20.0388,117.6273 C20.0388,118.9823 20.0388,119.8353 20.0568,120.3183 L18.3048,120.3183 C18.2718,120.1283 18.2378,119.6953 18.2378,119.4443 C17.9128,120.2503 17.2738,120.4613 16.5188,120.4613 C15.6608,120.4613 14.6868,120.0503 14.6868,118.0633 L14.6868,111.1033 L16.5208,111.1033 L16.5208,117.5873 C16.5208,118.4343 16.7648,118.8193 17.3158,118.8193 C17.9138,118.8193 18.2048,118.4433 18.2048,117.2433 L18.2048,111.1033 L20.0388,111.1033 L20.0388,117.6273 Z" id="Fill-85" fill="#FFFFFF" mask="url(#mask-2)"></path>
            <path d="M21.5784,113.9467 C21.5784,112.0747 21.5784,111.5217 21.5604,111.1047 L23.3124,111.1047 C23.3454,111.3157 23.3784,111.6767 23.3784,111.9417 C23.6454,111.4077 24.1394,110.9617 25.0774,110.9617 C26.1984,110.9617 26.9704,111.6417 26.9704,113.3827 L26.9704,120.3187 L25.1364,120.3187 L25.1364,113.7287 C25.1364,112.8977 24.8494,112.6057 24.3434,112.6057 C23.6904,112.6057 23.4124,112.9517 23.4124,114.2037 L23.4124,120.3187 L21.5784,120.3187 L21.5784,113.9467 Z" id="Fill-86" fill="#FFFFFF" mask="url(#mask-2)"></path>
            <path d="M28.519,109.868 L30.353,109.868 L30.353,107.908 L28.519,107.908 L28.519,109.868 Z M28.503,120.318 L30.337,120.318 L30.337,111.104 L28.503,111.104 L28.503,120.318 Z" id="Fill-87" fill="#FFFFFF" mask="url(#mask-2)"></path>
            <path d="M33.4703,113.8279 L33.4703,117.5509 C33.4703,118.2949 33.6953,118.8369 34.3493,118.8369 C34.9623,118.8369 35.1983,118.3839 35.1983,117.5189 L35.1983,113.8129 C35.1983,113.1019 35.0083,112.5859 34.3353,112.5859 C33.7363,112.5859 33.4703,113.0139 33.4703,113.8279 M37.0343,113.9329 L37.0343,117.4749 C37.0343,119.4489 36.0523,120.4609 34.3153,120.4609 C32.5193,120.4609 31.6343,119.4239 31.6343,117.4849 L31.6343,113.8569 C31.6343,111.8629 32.7673,110.9609 34.3693,110.9609 C36.0373,110.9609 37.0343,111.9849 37.0343,113.9329" id="Fill-88" fill="#FFFFFF" mask="url(#mask-2)"></path>
            <path d="M38.3119,114.2266 C38.3119,112.6966 38.3269,112.0446 38.2939,111.1046 L40.0319,111.1046 C40.0499,111.2806 40.0829,112.1006 40.0829,112.5956 C40.4489,111.3506 41.2589,110.9706 42.1139,110.9656 L42.1139,113.2266 C41.0629,113.2286 40.1459,113.4956 40.1459,115.3836 L40.1459,120.3186 L38.3119,120.3186 L38.3119,114.2266 Z" id="Fill-89" fill="#FFFFFF" mask="url(#mask-2)"></path>
            <path d="M47.1797,113.9311 L47.6827,113.9311 C48.8257,113.9311 49.0217,113.2631 49.0217,112.1021 L49.0217,111.5181 C49.0217,110.6541 48.8637,109.9411 47.8457,109.9411 L47.1797,109.9411 L47.1797,113.9311 Z M45.3457,108.4261 L47.9907,108.4261 C49.8797,108.4261 50.8427,109.3591 50.8427,111.4621 L50.8427,112.1631 C50.8427,114.1261 50.1417,115.4301 47.8887,115.4301 L47.1797,115.4301 L47.1797,120.3181 L45.3457,120.3181 L45.3457,108.4261 Z" id="Fill-90" fill="#FFFFFF" mask="url(#mask-2)"></path>
            <path d="M54.8314,116.1415 L54.5254,116.1415 C53.6894,116.1415 53.1384,116.4585 53.1384,117.6065 L53.1384,117.7515 C53.1384,118.4015 53.3744,118.8645 53.9464,118.8645 C54.5604,118.8645 54.8314,118.4405 54.8314,117.1975 L54.8314,116.1415 Z M56.6184,118.4315 C56.6184,119.0125 56.6204,119.9685 56.6544,120.3185 L54.9784,120.3185 C54.9414,120.1455 54.8764,119.7735 54.8604,119.6425 C54.5464,120.2065 54.0484,120.4605 53.3404,120.4605 C51.9554,120.4605 51.3964,119.1775 51.3964,117.7865 L51.3964,117.6265 C51.3964,115.3565 52.9264,114.7525 54.5864,114.7525 L54.7984,114.7525 L54.7984,113.5765 C54.7984,112.8545 54.7114,112.4485 54.1534,112.4485 C53.6094,112.4485 53.4834,112.8725 53.4834,113.4445 L53.4834,113.5945 L51.6804,113.5945 L51.6804,113.4765 C51.6804,112.1425 52.1924,110.9615 54.2174,110.9615 C55.9964,110.9615 56.6184,111.9425 56.6184,113.4315 L56.6184,118.4315 Z" id="Fill-91" fill="#FFFFFF" mask="url(#mask-2)"></path>
            <path d="M58.1787,113.9467 C58.1787,112.0747 58.1787,111.5217 58.1607,111.1047 L59.9127,111.1047 C59.9457,111.3157 59.9787,111.6767 59.9787,111.9417 C60.2457,111.4077 60.7397,110.9617 61.6777,110.9617 C62.7987,110.9617 63.5707,111.6417 63.5707,113.3827 L63.5707,120.3187 L61.7367,120.3187 L61.7367,113.7287 C61.7367,112.8977 61.4497,112.6057 60.9437,112.6057 C60.2907,112.6057 60.0127,112.9517 60.0127,114.2037 L60.0127,120.3187 L58.1787,120.3187 L58.1787,113.9467 Z" id="Fill-92" fill="#FFFFFF" mask="url(#mask-2)"></path>
            <path d="M68.0939,116.1415 L67.7879,116.1415 C66.9519,116.1415 66.4009,116.4585 66.4009,117.6065 L66.4009,117.7515 C66.4009,118.4015 66.6369,118.8645 67.2089,118.8645 C67.8229,118.8645 68.0939,118.4405 68.0939,117.1975 L68.0939,116.1415 Z M69.8809,118.4315 C69.8809,119.0125 69.8829,119.9685 69.9169,120.3185 L68.2409,120.3185 C68.2039,120.1455 68.1389,119.7735 68.1229,119.6425 C67.8089,120.2065 67.3109,120.4605 66.6029,120.4605 C65.2179,120.4605 64.6589,119.1775 64.6589,117.7865 L64.6589,117.6265 C64.6589,115.3565 66.1889,114.7525 67.8489,114.7525 L68.0609,114.7525 L68.0609,113.5765 C68.0609,112.8545 67.9739,112.4485 67.4159,112.4485 C66.8719,112.4485 66.7459,112.8725 66.7459,113.4445 L66.7459,113.5945 L64.9429,113.5945 L64.9429,113.4765 C64.9429,112.1425 65.4549,110.9615 67.4799,110.9615 C69.2589,110.9615 69.8809,111.9425 69.8809,113.4315 L69.8809,118.4315 Z" id="Fill-93" fill="#FFFFFF" mask="url(#mask-2)"></path>
            <path d="M71.4412,113.7751 C71.4412,111.9411 71.4412,111.5201 71.4232,111.1041 L73.1752,111.1041 C73.2262,111.3841 73.2262,111.6001 73.2412,111.9151 C73.5652,111.2951 74.1202,110.9611 74.8602,110.9611 C75.6112,110.9611 76.1112,111.2891 76.3372,111.9561 C76.6622,111.4451 77.1402,110.9611 78.1072,110.9611 C79.1072,110.9611 79.9262,111.4661 79.9262,113.2671 L79.9262,120.3191 L78.0922,120.3191 L78.0922,113.6011 C78.0922,112.9591 77.9232,112.6051 77.4062,112.6051 C76.7622,112.6051 76.6082,113.1051 76.6082,114.0141 L76.6082,120.3191 L74.7582,120.3191 L74.7582,113.6461 C74.7582,112.8061 74.5092,112.6051 74.0692,112.6051 C73.4152,112.6051 73.2752,113.1091 73.2752,113.9891 L73.2752,120.3191 L71.4412,120.3191 L71.4412,113.7751 Z" id="Fill-94" fill="#FFFFFF" mask="url(#mask-2)"></path>
            <path d="M84.7457,114.7633 L84.7457,113.8203 C84.7457,112.9673 84.5487,112.5073 83.8907,112.5073 C83.3007,112.5073 83.0147,112.9263 83.0147,113.8223 L83.0147,114.7633 L84.7457,114.7633 Z M82.9987,116.1993 L82.9987,117.5533 C82.9987,118.2643 83.1637,118.9153 83.8597,118.9153 C84.5907,118.9153 84.6807,118.2613 84.6807,117.5993 L84.6807,117.5553 L86.4677,117.5553 L86.4677,117.5963 C86.4677,118.5633 86.2617,120.4613 83.9027,120.4613 C81.5557,120.4613 81.2117,119.0073 81.2117,117.1443 L81.2117,114.1253 C81.2117,112.8643 81.6097,110.9613 83.8937,110.9613 C85.8607,110.9613 86.5017,112.2883 86.5017,114.1113 L86.5017,116.1993 L82.9987,116.1993 Z" id="Fill-95" fill="#FFFFFF" mask="url(#mask-2)"></path>
            <path d="M87.7298,114.2266 C87.7298,112.6966 87.7448,112.0446 87.7118,111.1046 L89.4498,111.1046 C89.4678,111.2806 89.5008,112.1006 89.5008,112.5956 C89.8668,111.3506 90.6768,110.9706 91.5318,110.9656 L91.5318,113.2266 C90.4808,113.2286 89.5638,113.4956 89.5638,115.3836 L89.5638,120.3186 L87.7298,120.3186 L87.7298,114.2266 Z" id="Fill-96" fill="#FFFFFF" mask="url(#mask-2)"></path>
            <path d="M92.41,109.868 L94.244,109.868 L94.244,107.908 L92.41,107.908 L92.41,109.868 Z M92.394,120.318 L94.228,120.318 L94.228,111.104 L92.394,111.104 L92.394,120.318 Z" id="Fill-97" fill="#FFFFFF" mask="url(#mask-2)"></path>
            <path d="M100.6015,117.2585 L100.6015,117.3835 C100.6015,119.0465 100.1805,120.4605 98.0365,120.4605 C95.9115,120.4605 95.5245,119.0385 95.5245,117.1355 L95.5245,113.9725 C95.5245,112.4695 96.0225,110.9615 98.1235,110.9615 C100.3785,110.9615 100.6015,112.5945 100.6015,113.7345 L100.6015,114.0795 L98.7965,114.0795 L98.7965,113.6905 C98.7965,112.9825 98.6835,112.5075 98.0895,112.5075 C97.5465,112.5075 97.3605,112.9285 97.3605,113.7055 L97.3605,117.6995 C97.3605,118.3375 97.4785,118.9155 98.0855,118.9155 C98.6735,118.9155 98.7965,118.4485 98.7965,117.6965 L98.7965,117.2585 L100.6015,117.2585 Z" id="Fill-98" fill="#FFFFFF" mask="url(#mask-2)"></path>
            <path d="M104.9255,116.1415 L104.6195,116.1415 C103.7835,116.1415 103.2325,116.4585 103.2325,117.6065 L103.2325,117.7515 C103.2325,118.4015 103.4685,118.8645 104.0405,118.8645 C104.6545,118.8645 104.9255,118.4405 104.9255,117.1975 L104.9255,116.1415 Z M106.7125,118.4315 C106.7125,119.0125 106.7145,119.9685 106.7485,120.3185 L105.0725,120.3185 C105.0355,120.1455 104.9705,119.7735 104.9545,119.6425 C104.6405,120.2065 104.1425,120.4605 103.4345,120.4605 C102.0495,120.4605 101.4905,119.1775 101.4905,117.7865 L101.4905,117.6265 C101.4905,115.3565 103.0205,114.7525 104.6805,114.7525 L104.8925,114.7525 L104.8925,113.5765 C104.8925,112.8545 104.8055,112.4485 104.2475,112.4485 C103.7035,112.4485 103.5775,112.8725 103.5775,113.4445 L103.5775,113.5945 L101.7745,113.5945 L101.7745,113.4765 C101.7745,112.1425 102.2865,110.9615 104.3115,110.9615 C106.0905,110.9615 106.7125,111.9425 106.7125,113.4315 L106.7125,118.4315 Z" id="Fill-99" fill="#FFFFFF" mask="url(#mask-2)"></path>
            <path d="M108.2727,113.9467 C108.2727,112.0747 108.2727,111.5217 108.2547,111.1047 L110.0067,111.1047 C110.0397,111.3157 110.0727,111.6767 110.0727,111.9417 C110.3397,111.4077 110.8337,110.9617 111.7717,110.9617 C112.8927,110.9617 113.6647,111.6417 113.6647,113.3827 L113.6647,120.3187 L111.8307,120.3187 L111.8307,113.7287 C111.8307,112.8977 111.5437,112.6057 111.0377,112.6057 C110.3847,112.6057 110.1067,112.9517 110.1067,114.2037 L110.1067,120.3187 L108.2727,120.3187 L108.2727,113.9467 Z" id="Fill-100" fill="#FFFFFF" mask="url(#mask-2)"></path>
            <path d="M50.6077,136.6855 L49.1777,136.6855 C49.1287,136.4755 49.0937,136.0465 49.0777,135.7925 C48.7477,136.5835 48.0577,136.8595 47.2907,136.8595 C45.5397,136.8595 44.9767,135.5925 44.9767,133.5775 L44.9767,127.9915 C44.9767,126.0495 45.7327,124.6195 47.7997,124.6195 C50.2977,124.6195 50.5607,126.4555 50.5607,127.7325 L50.5607,128.1185 L48.7267,128.1185 L48.7267,127.6425 C48.7267,127.0155 48.6357,126.2905 47.7977,126.2905 C47.1297,126.2905 46.8447,126.7535 46.8447,127.7025 L46.8447,133.7865 C46.8447,134.7375 47.1197,135.2355 47.7827,135.2355 C48.5777,135.2355 48.7717,134.5695 48.7717,133.3475 L48.7717,131.6115 L47.7317,131.6115 L47.7317,130.0345 L50.6077,130.0345 L50.6077,136.6855 Z" id="Fill-101" fill="#FFFFFF" mask="url(#mask-2)"></path>
            <path d="M55.1431,132.5085 L54.8371,132.5085 C54.0011,132.5085 53.4501,132.8255 53.4501,133.9735 L53.4501,134.1185 C53.4501,134.7685 53.6861,135.2305 54.2581,135.2305 C54.8721,135.2305 55.1431,134.8075 55.1431,133.5645 L55.1431,132.5085 Z M56.9301,134.7985 C56.9301,135.3795 56.9321,136.3355 56.9661,136.6855 L55.2901,136.6855 C55.2531,136.5125 55.1881,136.1405 55.1721,136.0095 C54.8581,136.5735 54.3601,136.8275 53.6521,136.8275 C52.2671,136.8275 51.7081,135.5445 51.7081,134.1535 L51.7081,133.9935 C51.7081,131.7235 53.2371,131.1195 54.8981,131.1195 L55.1101,131.1195 L55.1101,129.9435 C55.1101,129.2215 55.0231,128.8155 54.4651,128.8155 C53.9211,128.8155 53.7951,129.2395 53.7951,129.8115 L53.7951,129.9615 L51.9921,129.9615 L51.9921,129.8435 C51.9921,128.5095 52.5041,127.3285 54.5291,127.3285 C56.3081,127.3285 56.9301,128.3095 56.9301,129.7985 L56.9301,134.7985 Z" id="Fill-102" fill="#FFFFFF" mask="url(#mask-2)"></path>
            <path d="M58.4903,130.1421 C58.4903,128.3081 58.4903,127.8871 58.4723,127.4711 L60.2243,127.4711 C60.2753,127.7511 60.2753,127.9671 60.2903,128.2821 C60.6143,127.6621 61.1693,127.3281 61.9093,127.3281 C62.6603,127.3281 63.1613,127.6561 63.3863,128.3231 C63.7113,127.8121 64.1893,127.3281 65.1563,127.3281 C66.1563,127.3281 66.9753,127.8331 66.9753,129.6341 L66.9753,136.6861 L65.1413,136.6861 L65.1413,129.9681 C65.1413,129.3261 64.9723,128.9721 64.4553,128.9721 C63.8113,128.9721 63.6573,129.4721 63.6573,130.3811 L63.6573,136.6861 L61.8073,136.6861 L61.8073,130.0131 C61.8073,129.1731 61.5583,128.9721 61.1183,128.9721 C60.4643,128.9721 60.3243,129.4761 60.3243,130.3561 L60.3243,136.6861 L58.4903,136.6861 L58.4903,130.1421 Z" id="Fill-103" fill="#FFFFFF" mask="url(#mask-2)"></path>
            <path d="M71.7949,131.1303 L71.7949,130.1873 C71.7949,129.3343 71.5979,128.8743 70.9399,128.8743 C70.3499,128.8743 70.0639,129.2933 70.0639,130.1893 L70.0639,131.1303 L71.7949,131.1303 Z M70.0479,132.5663 L70.0479,133.9203 C70.0479,134.6313 70.2129,135.2823 70.9089,135.2823 C71.6399,135.2823 71.7299,134.6283 71.7299,133.9663 L71.7299,133.9223 L73.5169,133.9223 L73.5169,133.9633 C73.5169,134.9303 73.3109,136.8283 70.9519,136.8283 C68.6049,136.8283 68.2609,135.3743 68.2609,133.5113 L68.2609,130.4923 C68.2609,129.2313 68.6589,127.3283 70.9419,127.3283 C72.9099,127.3283 73.5509,128.6553 73.5509,130.4783 L73.5509,132.5663 L70.0479,132.5663 Z" id="Fill-104" fill="#FFFFFF" mask="url(#mask-2)"></path>
            <path d="M76.2637,133.8014 L76.2637,134.2224 C76.2637,134.7904 76.4237,135.2824 77.0107,135.2824 C77.5087,135.2824 77.7217,134.9794 77.7217,134.3654 C77.7217,133.7704 77.5537,133.3584 76.4377,132.6394 C75.1707,131.8244 74.5607,131.1574 74.5607,129.8394 C74.5607,128.2804 75.3977,127.3284 77.0007,127.3284 C78.7427,127.3284 79.4357,128.2894 79.4357,129.9774 L79.4357,130.3464 L77.6637,130.3464 L77.6637,129.7784 C77.6637,129.1364 77.4487,128.8744 77.0127,128.8744 C76.5607,128.8744 76.3817,129.2024 76.3817,129.6894 C76.3817,130.2054 76.5547,130.4404 77.3927,130.9754 C79.0047,132.0014 79.5737,132.6534 79.5737,134.1624 C79.5737,135.9264 78.6877,136.8274 76.9567,136.8274 C74.8867,136.8274 74.4117,135.5264 74.4117,134.2104 L74.4117,133.8014 L76.2637,133.8014 Z" id="Fill-105" fill="#FFFFFF" mask="url(#mask-2)"></path>
        </g>
    </g>
</svg>