<?xml version="1.0" encoding="UTF-8" standalone="no"?>
<svg
   version="1.1"
   viewBox="0 0 189.76 126.41"
   id="svg408"
   sodipodi:docname="leftIWF2.svg"
   inkscape:version="1.2.2 (732a01da63, 2022-12-09)"
   xmlns:inkscape="http://www.inkscape.org/namespaces/inkscape"
   xmlns:sodipodi="http://sodipodi.sourceforge.net/DTD/sodipodi-0.dtd"
   xmlns="http://www.w3.org/2000/svg"
   xmlns:svg="http://www.w3.org/2000/svg">
  <sodipodi:namedview
     id="namedview410"
     pagecolor="#512c53"
     bordercolor="#000000"
     borderopacity="0.25"
     inkscape:showpageshadow="2"
     inkscape:pageopacity="0"
     inkscape:pagecheckerboard="0"
     inkscape:deskcolor="#d1d1d1"
     showgrid="false"
     inkscape:zoom="3.1443212"
     inkscape:cx="78.236282"
     inkscape:cy="52.157521"
     inkscape:window-width="1472"
     inkscape:window-height="1029"
     inkscape:window-x="2153"
     inkscape:window-y="26"
     inkscape:window-maximized="0"
     inkscape:current-layer="svg408" />
  <defs
     id="defs388">
    <mask
       id="cropMask">
      <rect
         width="254"
         height="254"
         fill="#fff"
         id="rect376" />
      <rect
         width="63.5"
         height="254"
         id="rect378" />
      <rect
         width="254"
         height="63.5"
         id="rect380" />
      <rect
         y="190.5"
         width="254"
         height="63.5"
         id="rect382" />
    </mask>
    <clipPath
       id="clipPath326">
      <rect
         x="64.244"
         y="64.244"
         width="190.35"
         height="126.41"
         fill="#32ff00"
         stroke="#000"
         id="rect385" />
    </clipPath>
  </defs>
  <!-- Background circles -->
  <g
     transform="translate(-64.244 -64.244)"
     clip-path="url(#clipPath326)"
     mask="url(#cropMask)"
     id="g406">
    <circle
       cx="127"
       cy="127"
       r="113"
       d="M 240,127 A 113,113 0 0 1 127,240 113,113 0 0 1 14,127 113,113 0 0 1 127,14 113,113 0 0 1 240,127 Z"
       fill="#fff"
       id="circle390" />
    <circle
       cx="127"
       cy="127"
       r="127"
       d="M 254,127 A 127,127 0 0 1 127,254 127,127 0 0 1 0,127 127,127 0 0 1 127,0 127,127 0 0 1 254,127 Z"
       fill="#fff"
       fill-opacity=".5"
       id="circle392" />
    <!-- IWF Logo scaled and positioned -->
    <g
       transform="matrix(.20212 0 0 .20212 89.357 61.107)"
       fill="#00b4f1"
       id="g404">
      <path
         x="142.39999"
         y="432"
         width="37.400002"
         height="139.3"
         d="m142.4 432h37.4v139.3h-37.4z"
         id="path394" />
      <polygon
         d="M 307.5,432 H 283.3 L 260.8,496.2 245.7,432 h -35.8 l 29,139.3 h 30.9 l 25.6,-68.6 25.6,68.6 h 31.1 L 381,432 h -35.8 l -15.1,64.2 z"
         points="307.5 432 283.3 432 260.8 496.2 245.7 432 209.9 432 238.9 571.3 269.8 571.3 295.4 502.7 321 571.3 352.1 571.3 381 432 345.2 432 330.1 496.2"
         id="polygon396" />
      <polygon
         d="m 439.1,571.4 v -53.9 h 51.6 V 487 h -51.6 v -24.5 h 60.5 V 432 h -94.8 v 139.4 z"
         points="439.1 571.4 439.1 517.5 490.7 517.5 490.7 487 439.1 487 439.1 462.5 499.6 462.5 499.6 432 404.8 432 404.8 571.4"
         id="polygon398" />
      <path
         d="m508.7 219.3v-0.2c0-52.3-28.4-95.9-74.2-120-21.4-11.2-44.7-16-63.4-17.9 57.9 19.2 99.8 73.8 99.8 138.2s-41.8 119-99.8 138.2c18.8-1.9 42.1-6.7 63.4-17.9 45.8-24.1 74.2-67.7 74.2-120v-0.4"
         id="path400" />
      <path
         d="m322.8 219.3c0 23.1-18.8 41.9-41.9 41.9s-41.9-18.7-41.9-41.9c0-23.1 18.7-41.9 41.9-41.9 23.1 0 41.9 18.8 41.9 41.9m106 0c0-81.7-66.2-147.9-147.9-147.9s-147.9 66.2-147.9 147.9 66.2 147.9 147.9 147.9 147.9-66.2 147.9-147.9"
         id="path402" />
    </g>
  </g>
</svg>
