<svg id="Layer_1" data-name="Layer 1" xmlns="http://www.w3.org/2000/svg" viewBox="0 0 600 180"><defs><style>.cls-1{fill:#1c1b1a;}.cls-2{fill:#bd2827;}.cls-3{fill:#010101;}</style></defs><path class="cls-1" d="M380.03428,1.89473,363.19237,80.122a1.31233,1.31233,0,0,1-1.28195,1.03663H245.00876a1.31014,1.31014,0,0,1-1.28194-1.03663L226.88491,1.89473a1.31053,1.31053,0,0,1,1.28193-1.5879h25.82867v.0079l11.16817,53.422a.85862.85862,0,0,0,.82561.70163H340.9299a.86081.86081,0,0,0,.82561-.70163L352.92366.31473V.30683h25.82869A1.31314,1.31314,0,0,1,380.03428,1.89473Z"/><path class="cls-1" d="M286.65823,135.79537H256.9475a1.308,1.308,0,0,1-1.27972-1.03743l-6.76085-31.97589a1.308,1.308,0,0,1,1.27971-1.57858h43.23244a1.308,1.308,0,0,1,1.27971,1.57858l-6.76085,31.97589A1.308,1.308,0,0,1,286.65823,135.79537Z"/><path class="cls-1" d="M350.348,135.79537H320.6373a1.308,1.308,0,0,1-1.27972-1.03743l-6.76085-31.97589a1.308,1.308,0,0,1,1.27972-1.57858h43.23243a1.308,1.308,0,0,1,1.27972,1.57858l-6.76086,31.97589A1.308,1.308,0,0,1,350.348,135.79537Z"/><path class="cls-1" d="M290.59575.30688h25.72687a1.19249,1.19249,0,0,1,1.12485.99725l6.622,31.95361a1.28783,1.28783,0,0,1-1.11508,1.641H283.964a1.28783,1.28783,0,0,1-1.11508-1.641l6.622-31.95361A1.19249,1.19249,0,0,1,290.59575.30688Z"/><rect class="cls-2" x="66.74203" y="0.30683" width="26.58829" height="135.48855"/><rect class="cls-2" x="33.37102" y="0.30683" width="26.58829" height="135.48855"/><rect class="cls-2" y="26.99968" width="26.58829" height="82.10284"/><rect class="cls-2" x="506.66968" y="0.30683" width="26.58829" height="135.48855" transform="translate(1039.92765 136.1022) rotate(180)"/><rect class="cls-2" x="540.0407" y="0.30683" width="26.58829" height="135.48855" transform="translate(1106.66968 136.1022) rotate(180)"/><rect class="cls-2" x="573.41171" y="26.99968" width="26.58829" height="82.10284" transform="translate(1173.41171 136.1022) rotate(180)"/><path class="cls-2" d="M421.41875,81.34524V72.7471L439.18155,54.757h45.935V81.34524Z"/><path class="cls-1" d="M493.288.2989q-3.88936,13.29419-7.78132,26.58834H435.52472a10.1109,10.1109,0,0,0-10.11089,10.1109v98.79844H398.82549V37.29634A36.99744,36.99744,0,0,1,435.82293.2989Z"/><path class="cls-1" d="M217.09629,92.35048v6.44926a36.96,36.96,0,0,1-36.99684,36.99684H107.03427q3.88934-13.29417,7.78131-26.58834h65.58194A10.11013,10.11013,0,0,0,190.508,99.09781V92.05243A10.11012,10.11012,0,0,0,180.39752,81.942H143.48773a36.98714,36.98714,0,0,1-36.99684-36.99684V37.29574A36.96,36.96,0,0,1,143.48773.2989h63.29766q-3.88935,13.29419-7.78131,26.58834H143.18967a10.11013,10.11013,0,0,0-10.11044,10.11044v8.24555a10.11013,10.11013,0,0,0,10.11044,10.11043h36.90978a36.98717,36.98717,0,0,1,36.99684,36.99682Z"/><path class="cls-3" d="M12.29053,179.96973a10.28842,10.28842,0,0,1-3.61475-.64161,9.861,9.861,0,0,1-3.19531-1.9707l1.72607-2.05176a10.03616,10.03616,0,0,0,2.40186,1.57422,6.615,6.615,0,0,0,2.752.54785,3.55735,3.55735,0,0,0,2.11035-.55957A1.74845,1.74845,0,0,0,15.252,175.375v-.0459a1.88388,1.88388,0,0,0-.15185-.78125,1.69215,1.69215,0,0,0-.561-.6416,4.40858,4.40858,0,0,0-1.12256-.55957,16.1392,16.1392,0,0,0-1.85839-.51367,18.00694,18.00694,0,0,1-2.32618-.6875,6.333,6.333,0,0,1-1.707-.93262,3.60606,3.60606,0,0,1-1.05224-1.34082,4.58219,4.58219,0,0,1-.36231-1.91309v-.04589a4.39453,4.39453,0,0,1,1.561-3.417,5.34944,5.34944,0,0,1,1.75293-.96777,6.8686,6.8686,0,0,1,2.23632-.34961,9.35727,9.35727,0,0,1,3.23.52441,9.62384,9.62384,0,0,1,2.69385,1.52735l-1.53955,2.16894a9.9907,9.9907,0,0,0-2.21533-1.24707,5.99672,5.99672,0,0,0-2.21533-.43164,3.06061,3.06061,0,0,0-1.959.55957,1.702,1.702,0,0,0-.6997,1.376v.04687a1.97878,1.97878,0,0,0,.16357.82715,1.60945,1.60945,0,0,0,.59619.65332,5.0585,5.0585,0,0,0,1.19238.54786q.75952.25781,1.92872.53613a18.53616,18.53616,0,0,1,2.27978.72363,5.6949,5.6949,0,0,1,1.64795.96777,3.82684,3.82684,0,0,1,.99414,1.32911,4.28737,4.28737,0,0,1,.33887,1.76074v.04687a4.75665,4.75665,0,0,1-.42822,2.05176,4.38335,4.38335,0,0,1-1.19092,1.53906,5.23273,5.23273,0,0,1-1.834.95606A8.04123,8.04123,0,0,1,12.29053,179.96973Z"/><path class="cls-3" d="M23.99268,163.41211h2.84521v16.32422H23.99268Z"/><path class="cls-3" d="M33.624,163.41211h2.65284l8.72753,11.28711V163.41211h2.84522v16.32422H45.45215l-8.9834-11.61426v11.61426H33.624Z"/><path class="cls-3" d="M62.19189,180.0166a9.06575,9.06575,0,0,1-3.4746-.6416,7.78025,7.78025,0,0,1-4.38428-4.43066,8.91638,8.91638,0,0,1-.60645-3.32325v-.04687a8.56783,8.56783,0,0,1,.62256-3.24219,8.24254,8.24254,0,0,1,1.749-2.69336,8.37818,8.37818,0,0,1,6.07032-2.50683,11.50486,11.50486,0,0,1,1.94775.15136,9.021,9.021,0,0,1,1.62061.43164,8.20061,8.20061,0,0,1,1.41064.6875,10.36471,10.36471,0,0,1,1.29443.94532l-1.81884,2.16894a10.31122,10.31122,0,0,0-.95606-.72363,5.97749,5.97749,0,0,0-1.02637-.54785,6.38973,6.38973,0,0,0-1.17773-.34961,7.25189,7.25189,0,0,0-1.41064-.12793,4.736,4.736,0,0,0-2.08741.4668,5.44569,5.44569,0,0,0-1.6792,1.25,5.83612,5.83612,0,0,0-1.11914,1.835,6.07138,6.07138,0,0,0-.4082,2.21972v.04688a6.7089,6.7089,0,0,0,.39551,2.33691,5.22006,5.22006,0,0,0,2.873,3.06055,5.58835,5.58835,0,0,0,2.26806.44433,6.79183,6.79183,0,0,0,2.17529-.33984,6.098,6.098,0,0,0,1.75635-.90332v-3.07129H62.05225v-2.49512h6.9497v6.85645a12.33921,12.33921,0,0,1-1.34131.97949,10.11467,10.11467,0,0,1-1.58593.81543,10.00054,10.00054,0,0,1-1.83057.54883A10.35109,10.35109,0,0,1,62.19189,180.0166Z"/><path class="cls-3" d="M80.56885,163.29492h2.65869l7.1831,16.44141H87.37891l-1.65577-3.94141H78.00391l-1.6792,3.94141H73.38623Zm4.10449,9.958-2.82178-6.5293-2.79834,6.5293Z"/><path class="cls-3" d="M95.42676,163.41211h6.43652a8.11,8.11,0,0,1,2.57666.38477,5.47674,5.47674,0,0,1,1.959,1.10742,4.90179,4.90179,0,0,1,1.23632,1.72558,5.62113,5.62113,0,0,1,.43116,2.23926v.0459a5.36417,5.36417,0,0,1-.51465,2.41406,5.00147,5.00147,0,0,1-1.40235,1.73731,6.25923,6.25923,0,0,1-2.08007,1.06152,8.7361,8.7361,0,0,1-2.54834.36133H98.27148v5.24707H95.42676Zm6.19092,8.48828a3.81881,3.81881,0,0,0,2.58593-.81934,2.65855,2.65855,0,0,0,.94776-2.10742v-.04687a2.58787,2.58787,0,0,0-.95948-2.18848A4.11435,4.11435,0,0,0,101.61768,166h-3.3462v5.90039Z"/><path class="cls-3" d="M121.24023,180.0166a8.72566,8.72566,0,0,1-3.45166-.665,8.13414,8.13414,0,0,1-4.43115-4.47754,8.4575,8.4575,0,0,1-.62939-3.25293v-.04687a8.46246,8.46246,0,0,1,.62939-3.25391,8.24232,8.24232,0,0,1,1.77246-2.68164,8.5134,8.5134,0,0,1,6.15674-2.50683,8.7273,8.7273,0,0,1,3.45166.665,8.18526,8.18526,0,0,1,2.68164,1.80664,8.29592,8.29592,0,0,1,1.74951,2.67089,8.45736,8.45736,0,0,1,.6294,3.25293v.04688a8.45379,8.45379,0,0,1-.6294,3.25293,8.23988,8.23988,0,0,1-1.77246,2.68164,8.50895,8.50895,0,0,1-6.15674,2.50781Zm.04639-2.63574a5.33119,5.33119,0,0,0,2.21777-.45508,5.2552,5.2552,0,0,0,1.73-1.23535,5.71779,5.71779,0,0,0,1.126-1.83105,6.13274,6.13274,0,0,0,.40674-2.23829v-.04687a6.231,6.231,0,0,0-.40674-2.251,5.59005,5.59005,0,0,0-1.13769-1.84179,5.51994,5.51994,0,0,0-1.75342-1.24805,5.39517,5.39517,0,0,0-6.17676,1.22461,5.71636,5.71636,0,0,0-1.12646,1.83008,6.14788,6.14788,0,0,0-.40625,2.23925v.04688a6.232,6.232,0,0,0,.40625,2.25,5.57767,5.57767,0,0,0,1.13818,1.84277,5.49112,5.49112,0,0,0,1.75342,1.24707A5.2919,5.2919,0,0,0,121.28662,177.38086Z"/><path class="cls-3" d="M135.66211,163.41211H142.938a7.9885,7.9885,0,0,1,2.72851.43066,5.49882,5.49882,0,0,1,1.98243,1.20118,4.7334,4.7334,0,0,1,1.00293,1.5625,5.29938,5.29938,0,0,1,.3496,1.959v.04687a5.28146,5.28146,0,0,1-.2915,1.80762,4.73008,4.73008,0,0,1-.80469,1.42188,4.83038,4.83038,0,0,1-1.22412,1.0498,6.06341,6.06341,0,0,1-1.57422.665l4.40772,6.17969h-3.38184l-4.02343-5.69043h-3.60254v5.69043h-2.84473Zm7.05566,8.0918a3.78973,3.78973,0,0,0,2.45606-.73731,2.43894,2.43894,0,0,0,.9126-2.00293v-.04687a2.40933,2.40933,0,0,0-.88916-2.02539A3.99432,3.99432,0,0,0,142.69434,166h-4.1875v5.50391Z"/><path class="cls-3" d="M154.93652,163.41211H167.0166V166h-9.23535v4.19824h8.186v2.58887h-8.186v4.36035h9.352v2.58887H154.93652Z"/><path class="cls-3" d="M180.96191,163.41211H184.064l3.89454,12.10351,4.01123-12.15039H194.395l4.01123,12.15039,3.89453-12.10351h3.0083l-5.69043,16.44043H197.147l-4.01123-11.73047-4.01123,11.73047h-2.47217Z"/><path class="cls-3" d="M210.38379,163.41211h12.08008V166h-9.23535v4.19824h8.186v2.58887h-8.186v4.36035h9.352v2.58887H210.38379Z"/><path class="cls-3" d="M228.62988,163.41211h2.84522v16.32422h-2.84522Z"/><path class="cls-3" d="M245.94043,180.0166a9.0658,9.0658,0,0,1-3.47461-.6416,7.78025,7.78025,0,0,1-4.38428-4.43066,8.91657,8.91657,0,0,1-.60644-3.32325v-.04687a8.56783,8.56783,0,0,1,.62256-3.24219,8.24238,8.24238,0,0,1,1.749-2.69336,8.37818,8.37818,0,0,1,6.07031-2.50683,11.505,11.505,0,0,1,1.94776.15136,9.02106,9.02106,0,0,1,1.6206.43164,8.20106,8.20106,0,0,1,1.41065.6875,10.36471,10.36471,0,0,1,1.29443.94532l-1.81885,2.16894a10.30977,10.30977,0,0,0-.95605-.72363,5.97786,5.97786,0,0,0-1.02637-.54785,6.38973,6.38973,0,0,0-1.17773-.34961,7.252,7.252,0,0,0-1.41065-.12793,4.736,4.736,0,0,0-2.0874.4668,5.44546,5.44546,0,0,0-1.6792,1.25,5.83594,5.83594,0,0,0-1.11914,1.835,6.07138,6.07138,0,0,0-.4082,2.21972v.04688a6.7089,6.7089,0,0,0,.3955,2.33691,5.22006,5.22006,0,0,0,2.873,3.06055,5.5884,5.5884,0,0,0,2.26807.44433,6.79183,6.79183,0,0,0,2.17529-.33984,6.09812,6.09812,0,0,0,1.75635-.90332v-3.07129h-4.17432v-2.49512h6.94971v6.85645a12.34019,12.34019,0,0,1-1.34131.97949,10.11522,10.11522,0,0,1-1.58594.81543,10.0002,10.0002,0,0,1-1.83056.54883A10.35123,10.35123,0,0,1,245.94043,180.0166Z"/><path class="cls-3" d="M259.02393,163.41211h2.84472v6.78613h7.83594v-6.78613h2.84521v16.32422h-2.84521v-6.87988h-7.83594v6.87988h-2.84472Z"/><path class="cls-3" d="M282.8457,166.07031h-5.17724v-2.6582H290.915v2.6582h-5.17725v13.666H282.8457Z"/><path class="cls-3" d="M296.04541,163.41211h2.84473v13.73535h8.58252v2.58887H296.04541Z"/><path class="cls-3" d="M312.67188,163.41211h2.8457v16.32422h-2.8457Z"/><path class="cls-3" d="M322.30371,163.41211h12.12695V166h-9.28125v4.501h8.23243v2.58886h-8.23243v6.64649h-2.8457Z"/><path class="cls-3" d="M344.22363,166.07031H339.0459v-2.6582H352.292v2.6582h-5.17676v13.666h-2.8916Z"/><path class="cls-3" d="M357.50391,163.41211h2.8457v16.32422h-2.8457Z"/><path class="cls-3" d="M367.13477,163.41211h2.65332l8.72753,11.28711V163.41211h2.84473v16.32422h-2.39648l-8.9834-11.61426v11.61426h-2.8457Z"/><path class="cls-3" d="M395.7041,180.0166a9.0708,9.0708,0,0,1-3.47558-.6416,7.78124,7.78124,0,0,1-4.38379-4.43066,8.92619,8.92619,0,0,1-.60645-3.32325v-.04687a8.54937,8.54937,0,0,1,.62305-3.24219,8.24254,8.24254,0,0,1,1.749-2.69336,8.376,8.376,0,0,1,6.07031-2.50683,11.503,11.503,0,0,1,1.94727.15136,9.0045,9.0045,0,0,1,1.62012.43164,8.17085,8.17085,0,0,1,1.41113.6875,10.4053,10.4053,0,0,1,1.29492.94532l-1.81933,2.16894a10.377,10.377,0,0,0-.95606-.72363,5.95941,5.95941,0,0,0-1.02637-.54785,6.37839,6.37839,0,0,0-1.17773-.34961,7.24984,7.24984,0,0,0-1.41113-.12793,4.73392,4.73392,0,0,0-2.08692.4668,5.43763,5.43763,0,0,0-1.67871,1.25,5.8475,5.8475,0,0,0-1.12012,1.835,6.09182,6.09182,0,0,0-.4082,2.21972v.04688a6.72026,6.72026,0,0,0,.39551,2.33691,5.22392,5.22392,0,0,0,2.87305,3.06055,5.59072,5.59072,0,0,0,2.26855.44433,6.7889,6.7889,0,0,0,2.17481-.33984,6.09467,6.09467,0,0,0,1.75683-.90332v-3.07129h-4.1748v-2.49512h6.95019v6.85645a12.33189,12.33189,0,0,1-1.34082.97949,10.13594,10.13594,0,0,1-1.58594.81543,10.02861,10.02861,0,0,1-1.83105.54883A10.34972,10.34972,0,0,1,395.7041,180.0166Z"/><path class="cls-3" d="M417.9043,163.41211h12.127V166H420.75v4.501h8.23242v2.58886H420.75v6.64649h-2.8457Z"/><path class="cls-3" d="M435.35254,163.41211h12.08008V166h-9.23438v4.19824h8.18555v2.58887h-8.18555v4.36035h9.35156v2.58887H435.35254Z"/><path class="cls-3" d="M453.48926,163.41211h6.08691a9.67143,9.67143,0,0,1,3.50977.61719,8.285,8.285,0,0,1,2.752,1.71484,7.63926,7.63926,0,0,1,1.78418,2.57617,8.11279,8.11279,0,0,1,.62988,3.207v.04688a8.18628,8.18628,0,0,1-.62988,3.21777,7.6044,7.6044,0,0,1-1.78418,2.58887,8.43769,8.43769,0,0,1-2.752,1.72559,9.49115,9.49115,0,0,1-3.50977.62988h-6.08691Zm6.06347,13.73535a6.35437,6.35437,0,0,0,2.332-.40918,5.08589,5.08589,0,0,0,1.78418-1.14746,5.188,5.188,0,0,0,1.14257-1.75684,5.89133,5.89133,0,0,0,.40821-2.21289v-.04687a5.97445,5.97445,0,0,0-.40821-2.22461,5.15355,5.15355,0,0,0-1.14257-1.76856,5.23783,5.23783,0,0,0-1.78418-1.15917,6.19716,6.19716,0,0,0-2.332-.42188H456.335v11.14746Z"/><path class="cls-3" d="M474.07715,163.41211h12.08008V166h-9.23438v4.19824h8.18555v2.58887h-8.18555v4.36035h9.35156v2.58887H474.07715Z"/><path class="cls-3" d="M492.21387,163.41211h7.27636a7.9886,7.9886,0,0,1,2.72852.43066,5.50289,5.50289,0,0,1,1.98242,1.20118,4.74106,4.74106,0,0,1,1.00293,1.5625,5.28941,5.28941,0,0,1,.34961,1.959v.04687a5.28152,5.28152,0,0,1-.292,1.80762,4.71775,4.71775,0,0,1-.80371,1.42188,4.84977,4.84977,0,0,1-1.22461,1.0498,6.05628,6.05628,0,0,1-1.57422.665l4.40723,6.17969h-3.38086l-4.02442-5.69043h-3.60156v5.69043h-2.8457Zm7.05664,8.0918a3.79247,3.79247,0,0,0,2.45605-.73731,2.44132,2.44132,0,0,0,.91211-2.00293v-.04687a2.4083,2.4083,0,0,0-.88965-2.02539A3.9914,3.9914,0,0,0,499.24609,166h-4.18652v5.50391Z"/><path class="cls-3" d="M517.6709,163.29492h2.6582l7.18262,16.44141h-3.03125l-1.65625-3.94141h-7.71875l-1.67969,3.94141H510.4873Zm4.10449,9.958-2.82227-6.5293-2.79882,6.5293Z"/><path class="cls-3" d="M534.49707,166.07031h-5.17773v-2.6582h13.24609v2.6582h-5.17676v13.666h-2.8916Z"/><path class="cls-3" d="M547.77734,163.41211h2.84571v16.32422h-2.84571Z"/><path class="cls-3" d="M565.08789,180.0166a8.72316,8.72316,0,0,1-3.45117-.665,8.198,8.198,0,0,1-2.68164-1.80761,8.28787,8.28787,0,0,1-1.749-2.66993,8.44872,8.44872,0,0,1-.62988-3.25293v-.04687a8.45367,8.45367,0,0,1,.62988-3.25391,8.22688,8.22688,0,0,1,1.77247-2.68164,8.51108,8.51108,0,0,1,6.15625-2.50683,8.71981,8.71981,0,0,1,3.45117.665,8.18448,8.18448,0,0,1,2.68261,1.80664,8.30256,8.30256,0,0,1,1.749,2.67089,8.44876,8.44876,0,0,1,.62988,3.25293v.04688a8.44519,8.44519,0,0,1-.62988,3.25293,8.23207,8.23207,0,0,1-1.77246,2.68164,8.50681,8.50681,0,0,1-6.15723,2.50781Zm.04688-2.63574a5.33446,5.33446,0,0,0,2.21777-.45508,5.2429,5.2429,0,0,0,1.72949-1.23535,5.71156,5.71156,0,0,0,1.12695-1.83105,6.153,6.153,0,0,0,.40625-2.23829v-.04687a6.25167,6.25167,0,0,0-.40625-2.251,5.58428,5.58428,0,0,0-1.13867-1.84179,5.5068,5.5068,0,0,0-1.75293-1.24805,5.39418,5.39418,0,0,0-6.17676,1.22461,5.71789,5.71789,0,0,0-1.12695,1.83008,6.15818,6.15818,0,0,0-.40625,2.23925v.04688a6.24254,6.24254,0,0,0,.40625,2.25,5.59512,5.59512,0,0,0,1.13867,1.84277,5.5,5.5,0,0,0,1.75293,1.24707A5.299,5.299,0,0,0,565.13477,177.38086Z"/><path class="cls-3" d="M579.50977,163.41211h2.65332l8.72753,11.28711V163.41211h2.84473v16.32422h-2.39648l-8.9834-11.61426v11.61426h-2.8457Z"/></svg>