<?xml version="1.0" encoding="UTF-8"?>
<!-- Generator: Adobe Illustrator 24.3.0, SVG Export Plug-In . SVG Version: 6.00 Build 0)  -->
<svg version="1.1" id="Layer_1" xmlns="http://www.w3.org/2000/svg" xmlns:xlink="http://www.w3.org/1999/xlink" x="0px" y="0px" viewBox="0 0 1047.01 1011.28" style="enable-background:new 0 0 1047.01 1011.28;" xml:space="preserve">
<style type="text/css">
	.st0{fill:#D62228;}
	.st1{fill:#1A1A1A;}
</style>
<path class="st0" d="M574.38,1008.8H265.5c0,0,24.48-54.86,30.83-68.46s4.65-32.79-9.97-44.43C241.92,860.54,0,650.18,0,650.18  s40.63-24.48,59.67-35.36c19.04-10.88,7.25-43.52-0.91-65.28c-8.16-21.76-41.71-129.66-41.71-129.66s138.01,13.03,164.12,10.88  c20.47-1.69,48.06-84.33,48.06-84.33s122.41,137.82,142.36,137.82s11.79-35.36,6.35-75.26s-40.8-233.94-40.8-233.94  s81.61,39.9,106.99,39.9s29.02-21.76,60.75-90.67s69.51-121.5,69.51-121.5V1008.8z"/>
<path class="st1" d="M634.83,0.06c-17.88,0-32.38,14.5-32.38,32.38v946.7c0,17.88,14.5,32.38,32.38,32.38  c17.88,0,32.38-14.5,32.38-32.38V32.43C667.21,14.55,652.71,0.06,634.83,0.06z"/>
<path class="st1" d="M721.38,0.06C703.5,0.06,689,14.55,689,32.43v946.7c0,17.88,14.5,32.38,32.38,32.38  c17.88,0,32.38-14.5,32.38-32.38V32.43C753.76,14.55,739.26,0.06,721.38,0.06z"/>
<path class="st1" d="M807.86,66.93c-17.88,0-32.38,14.5-32.38,32.38v812.95c0,17.88,14.5,32.38,32.38,32.38  c17.88,0,32.38-14.5,32.38-32.38V99.31C840.24,81.42,825.74,66.93,807.86,66.93z"/>
<path class="st1" d="M925.92,480.53h-15.87v-57.17c0-13.15-10.66-23.81-23.81-23.81h-2.34c-13.15,0-23.81,10.66-23.81,23.81V588.2  c0,13.15,10.66,23.81,23.81,23.81h2.34c13.15,0,23.81-10.66,23.81-23.81v-57.17h15.87c5.41,0,9.8-4.39,9.8-9.8v-30.91  C935.72,484.92,931.33,480.53,925.92,480.53z"/>
</svg>