<?xml version="1.0" encoding="UTF-8" standalone="no"?>
<svg
   width="123.92916"
   height="136.99922"
   viewBox="0 0 123.92916 136.99922"
   version="1.1"
   id="svg9351"
   sodipodi:docname="Logo_ES_color.svg"
   inkscape:version="1.2.2 (732a01da63, 2022-12-09)"
   xmlns:inkscape="http://www.inkscape.org/namespaces/inkscape"
   xmlns:sodipodi="http://sodipodi.sourceforge.net/DTD/sodipodi-0.dtd"
   xmlns:xlink="http://www.w3.org/1999/xlink"
   xmlns="http://www.w3.org/2000/svg"
   xmlns:svg="http://www.w3.org/2000/svg"
   xmlns:rdf="http://www.w3.org/1999/02/22-rdf-syntax-ns#"
   xmlns:cc="http://creativecommons.org/ns#"
   xmlns:dc="http://purl.org/dc/elements/1.1/">
  <sodipodi:namedview
     id="namedview9353"
     pagecolor="#ffffff"
     bordercolor="#000000"
     borderopacity="0.25"
     inkscape:showpageshadow="false"
     inkscape:pageopacity="0"
     inkscape:pagecheckerboard="0"
     inkscape:deskcolor="#d1d1d1"
     showgrid="false"
     showborder="false"
     borderlayer="false"
     inkscape:zoom="4.0066225"
     inkscape:cx="49.917355"
     inkscape:cy="78.495041"
     inkscape:window-width="1350"
     inkscape:window-height="1152"
     inkscape:window-x="2355"
     inkscape:window-y="11"
     inkscape:window-maximized="0"
     inkscape:current-layer="svg9351" />
  <title
     id="title9263">Group 109</title>
  <defs
     id="defs9267">
    <polygon
       id="path-1"
       points="22.871781,0 22.871781,22.463124 0,22.463124 0,0 " />
    <polygon
       id="path-3"
       points="302,137 302,0 0,0 0,137 " />
    <mask
       id="mask-4"
       fill="#ffffff">
      <use
         xlink:href="#path-3"
         id="use9310" />
    </mask>
    <mask
       id="mask-2"
       fill="#ffffff">
      <use
         xlink:href="#path-1"
         id="use256" />
    </mask>
    <mask
       id="mask-2-3"
       fill="#ffffff">
      <use
         xlink:href="#path-1"
         id="use256-4" />
    </mask>
    <mask
       id="mask-2-4"
       fill="#ffffff">
      <use
         xlink:href="#path-1"
         id="use256-1" />
    </mask>
    <mask
       id="mask-2-0"
       fill="#ffffff">
      <use
         xlink:href="#path-1"
         id="use256-9" />
    </mask>
  </defs>
  <g
     id="Clip-75"
     transform="translate(0,-7.8445294e-4)"
     style="fill:#000000;fill-rule:evenodd;stroke:none;stroke-width:1;fill-opacity:1" />
  <path
     d="M 11.546781,18.72803 H 28.252729 V 10.974497 H 11.546781 Z M 39.785354,2.7204828 C 39.730302,1.2143332 38.471969,0.00156891 36.947812,0.00156891 H 2.8800104 2.8516979 C 1.3133854,0.00156891 0.056625,1.2143332 0,2.734603 V 95.627952 H 11.546781 V 29.700957 H 28.252729 V 41.776826 H 39.79951 Z"
     id="Fill-74"
     fill="#ffffff"
     mask="url(#mask-4)"
     transform="translate(0,-7.8445294e-4)"
     style="fill-rule:evenodd;stroke:none;stroke-width:1;fill:#6700cb;fill-opacity:1;font-variation-settings:normal;opacity:1;vector-effect:none;stroke-linecap:butt;stroke-linejoin:miter;stroke-miterlimit:4;stroke-dasharray:none;stroke-dashoffset:0;stroke-opacity:1;-inkscape-stroke:none;stop-color:#000000;stop-opacity:1" />
  <path
     d="M 112.38143,0.02902476 V 84.68248 H 95.675488 V 7.8445294e-4 H 84.128706 V 92.810981 c 0,1.576751 1.27249,2.845995 2.851698,2.845995 h 34.096116 c 1.58078,0 2.8517,-1.269244 2.8517,-2.845995 V 0.02902476 Z"
     id="Fill-76"
     fill="#ffffff"
     mask="url(#mask-4)"
     transform="translate(0,-7.8445294e-4)"
     style="fill-rule:evenodd;stroke:none;stroke-width:1;fill:#ff5500;fill-opacity:1;font-variation-settings:normal;opacity:1;vector-effect:none;stroke-linecap:butt;stroke-linejoin:miter;stroke-miterlimit:4;stroke-dasharray:none;stroke-dashoffset:0;stroke-opacity:1;-inkscape-stroke:none;stop-color:#000000;stop-opacity:1" />
  <path
     d="M 52.940443,8.0884943 V 25.183293 L 76.46813,42.516565 V 77.179972 H 47.517026 V 46.642788 h -3.062469 v 22.882492 5.158563 2.510249 c 0,1.575181 1.27249,2.844426 2.851698,2.844426 h 29.356917 c 1.580781,0 2.853271,-1.269245 2.853271,-2.844426 V 42.78171 c 0,-1.214333 -0.602427,-2.273344 -1.538313,-2.915027 L 56.001339,23.691263 V 10.975281 h 7.018354 16.49675 V 10.528143 8.0884943 Z"
     id="Fill-77"
     fill="#ffffff"
     mask="url(#mask-4)"
     transform="translate(0,-7.8445294e-4)"
     style="fill-rule:evenodd;stroke:none;stroke-width:1;fill:#ff6feb;fill-opacity:1;font-variation-settings:normal;opacity:1;vector-effect:none;stroke-linecap:butt;stroke-linejoin:miter;stroke-miterlimit:4;stroke-dasharray:none;stroke-dashoffset:0;stroke-opacity:1;-inkscape-stroke:none;stop-color:#000000;stop-opacity:1" />
  <path
     d="m 45.85288,30.37088 0.02831,0.02824 22.072739,16.230332 V 69.078926 H 56.001339 V 46.643572 H 52.926287 V 71.951593 H 71.016401 V 45.165663 L 47.517026,27.846511 V 2.8601154 H 79.516443 V 2.8459953 0.00156891 H 76.663172 72.358099 61.99887 47.334568 47.292099 c -1.565052,0 -2.837542,1.26767599 -2.851698,2.83030619 v 24.6663379 0.05648 c 0.01416,1.143732 0.559958,2.160383 1.412479,2.816186"
     id="Fill-78"
     fill="#ffffff"
     mask="url(#mask-4)"
     transform="translate(0,-7.8445294e-4)"
     style="fill-rule:evenodd;stroke:none;stroke-width:1;fill:#ff6feb;fill-opacity:1;font-variation-settings:normal;opacity:1;vector-effect:none;stroke-linecap:butt;stroke-linejoin:miter;stroke-miterlimit:4;stroke-dasharray:none;stroke-dashoffset:0;stroke-opacity:1;-inkscape-stroke:none;stop-color:#000000;stop-opacity:1" />
  <polygon
     id="Fill-79"
     fill="#ffffff"
     mask="url(#mask-4)"
     points="74.889079,75.605418 74.889079,43.311059 51.361392,25.977787 51.361392,6.5123714 79.515027,6.5123714 79.515027,4.8948295 79.515027,4.4351401 49.082235,4.4351401 49.082235,27.052487 72.595767,44.37007 72.595767,73.512497 51.361392,73.512497 51.361392,46.643415 49.082235,46.643415 49.082235,75.605418 "
     transform="translate(0,-7.8445294e-4)"
     style="fill-rule:evenodd;stroke:none;stroke-width:1;fill:#ff6feb;fill-opacity:1;font-variation-settings:normal;opacity:1;vector-effect:none;stroke-linecap:butt;stroke-linejoin:miter;stroke-miterlimit:4;stroke-dasharray:none;stroke-dashoffset:0;stroke-opacity:1;-inkscape-stroke:none;stop-color:#000000;stop-opacity:1" />
  <polygon
     id="Fill-80"
     fill="#ffffff"
     mask="url(#mask-4)"
     points="32.880565,67.851414 20.843033,76.74868 20.843033,91.207716 79.473502,91.207716 79.473502,89.507022 79.473502,89.116365 23.12219,89.116365 23.12219,77.696299 35.143992,68.800602 35.143992,51.078241 16.202929,51.078241 16.202929,52.793056 16.202929,53.155473 32.880565,53.155473 "
     transform="translate(0,-7.8445294e-4)"
     style="fill-rule:evenodd;stroke:none;stroke-width:1;fill:#ff6feb;fill-opacity:1;font-variation-settings:normal;opacity:1;vector-effect:none;stroke-linecap:butt;stroke-linejoin:miter;stroke-miterlimit:4;stroke-dasharray:none;stroke-dashoffset:0;stroke-opacity:1;-inkscape-stroke:none;stop-color:#000000;stop-opacity:1" />
  <path
     d="m 36.724301,49.501962 v 20.078857 l -12.035958,8.897266 v 9.062 H 79.47303 V 86.049624 84.668987 H 27.749238 v -4.866746 l 10.59674,-7.808444 c 0.880833,-0.641683 1.453375,-1.688143 1.453375,-2.858547 V 69.12113 49.487842 c 0,-1.575182 -1.27249,-2.844427 -2.851698,-2.844427 H 16.202457 v 0.627562 2.02232 0.222785 h 20.521844 z"
     id="Fill-81"
     fill="#ffffff"
     mask="url(#mask-4)"
     transform="translate(0,-7.8445294e-4)"
     style="fill-rule:evenodd;stroke:none;stroke-width:1;fill:#ff6feb;fill-opacity:1;font-variation-settings:normal;opacity:1;vector-effect:none;stroke-linecap:butt;stroke-linejoin:miter;stroke-miterlimit:4;stroke-dasharray:none;stroke-dashoffset:0;stroke-opacity:1;-inkscape-stroke:none;stop-color:#000000;stop-opacity:1" />
  <path
     d="M 19.263825,92.770033 V 75.95293 L 31.299783,67.057234 V 54.71622 H 16.202929 v 2.427098 0.459689 h 12.035958 v 8.130071 L 17.796294,73.44425 c -0.965771,0.640114 -1.593365,1.728934 -1.593365,2.955819 v 16.398204 c 0,1.575182 1.270917,2.844426 2.851698,2.844426 h 60.433031 v -0.892707 -1.743054 -0.236905 z"
     id="Fill-82"
     fill="#ffffff"
     mask="url(#mask-4)"
     transform="translate(0,-7.8445294e-4)"
     style="fill-rule:evenodd;stroke:none;stroke-width:1;fill:#ff6feb;fill-opacity:1;font-variation-settings:normal;opacity:1;vector-effect:none;stroke-linecap:butt;stroke-linejoin:miter;stroke-miterlimit:4;stroke-dasharray:none;stroke-dashoffset:0;stroke-opacity:1;-inkscape-stroke:none;stop-color:#000000;stop-opacity:1" />
  <path
     d="m 3.3550313,117.32514 c 0,1.63166 -0.209198,2.92757 -2.39083338,2.92757 -0.26582292,0 -0.65747917,-0.0267 -0.96419792,-0.0831 v -1.60342 c 0.15414583,0.0141 0.30671875,0.0424 0.57254167,0.0424 0.65747913,0 0.89498953,-0.18199 0.89498953,-1.04646 v -9.63465 h 1.8875001 z"
     id="Fill-83"
     fill="#ffffff"
     mask="url(#mask-4)"
     transform="translate(0,-7.8445294e-4)"
     style="fill-rule:evenodd;stroke:none;stroke-width:1;fill:#6500ca;fill-opacity:1;font-variation-settings:normal;opacity:1;vector-effect:none;stroke-linecap:butt;stroke-linejoin:miter;stroke-miterlimit:4;stroke-dasharray:none;stroke-dashoffset:0;stroke-opacity:1;-inkscape-stroke:none;stop-color:#000000;stop-opacity:1" />
  <path
     d="m 10.372756,117.3391 c 0,1.39476 0,2.25922 0.01416,2.76127 H 8.5827771 c -0.02674,-0.19611 -0.069208,-0.64168 -0.069208,-0.8927 -0.3350312,0.8221 -0.9925104,1.04489 -1.7616666,1.04489 -0.8808334,0 -1.8875,-0.41733 -1.8875,-2.45377 v -7.13852 h 1.8875 v 6.65059 c 0,0.86447 0.2516667,1.26924 0.811625,1.26924 0.6150104,0 0.9075729,-0.39065 0.9075729,-1.61754 v -6.30229 H 10.3586 v 6.67883 z"
     id="Fill-84"
     fill="#ffffff"
     mask="url(#mask-4)"
     transform="translate(0,-7.8445294e-4)"
     style="fill-rule:evenodd;stroke:none;stroke-width:1;fill:#6500ca;fill-opacity:1;font-variation-settings:normal;opacity:1;vector-effect:none;stroke-linecap:butt;stroke-linejoin:miter;stroke-miterlimit:4;stroke-dasharray:none;stroke-dashoffset:0;stroke-opacity:1;-inkscape-stroke:none;stop-color:#000000;stop-opacity:1" />
  <path
     d="m 15.321624,114.41105 v -0.96174 c 0,-0.87859 -0.195042,-1.3524 -0.880833,-1.3524 -0.600854,0 -0.89499,0.43145 -0.89499,1.3524 v 0.96174 z m -1.789979,1.46379 v 1.39476 c 0,0.72483 0.168302,1.39475 0.880833,1.39475 0.755,0 0.839938,-0.66992 0.839938,-1.35239 v -0.0424 h 1.830875 v 0.0424 c 0,0.98998 -0.209198,2.94169 -2.6425,2.94169 -2.417573,0 -2.768334,-1.49202 -2.768334,-3.40295 v -3.09545 c 0,-1.29592 0.405813,-3.24921 2.754177,-3.24921 2.02749,0 2.684969,1.36652 2.684969,3.23509 v 2.14783 h -3.579958 z"
     id="Fill-85"
     fill="#ffffff"
     mask="url(#mask-4)"
     transform="translate(0,-7.8445294e-4)"
     style="fill-rule:evenodd;stroke:none;stroke-width:1;fill:#6500ca;fill-opacity:1;font-variation-settings:normal;opacity:1;vector-effect:none;stroke-linecap:butt;stroke-linejoin:miter;stroke-miterlimit:4;stroke-dasharray:none;stroke-dashoffset:0;stroke-opacity:1;-inkscape-stroke:none;stop-color:#000000;stop-opacity:1" />
  <path
     d="m 20.144501,113.49073 v 3.31824 c 0,0.9633 0.223354,1.44966 0.838365,1.44966 0.811625,0 0.937458,-0.62599 0.937458,-1.78384 v -2.7754 c 0,-0.80798 -0.08494,-1.50614 -0.838365,-1.50614 -0.602427,0 -0.937458,0.39065 -0.937458,1.29748 z m 3.663323,6.07951 c 0,2.09135 -0.210771,3.83441 -2.908323,3.83441 -2.250844,0 -2.628344,-1.40888 -2.628344,-2.45377 v -0.0424 h 1.8875 v 0.0424 c 0,0.25102 0.09752,0.90682 0.852521,0.90682 0.783313,0 0.909146,-0.60089 0.909146,-1.78541 v -1.03234 c -0.23751,0.53029 -0.769156,0.86447 -1.566625,0.86447 -1.733354,0 -2.110854,-1.33828 -2.110854,-2.95582 v -3.56926 c 0,-1.28337 0.489177,-2.87267 2.307469,-2.87267 0.99251,0 1.410906,0.45969 1.565052,0.97586 0,-0.27926 0.05662,-0.66835 0.08494,-0.83623 h 1.634261 c -0.01258,0.58521 -0.0409,1.36652 -0.0409,2.3565 v 6.56744 z"
     id="Fill-86"
     fill="#ffffff"
     mask="url(#mask-4)"
     transform="translate(0,-7.8445294e-4)"
     style="fill-rule:evenodd;stroke:none;stroke-width:1;fill:#6500ca;fill-opacity:1;font-variation-settings:normal;opacity:1;vector-effect:none;stroke-linecap:butt;stroke-linejoin:miter;stroke-miterlimit:4;stroke-dasharray:none;stroke-dashoffset:0;stroke-opacity:1;-inkscape-stroke:none;stop-color:#000000;stop-opacity:1" />
  <path
     d="m 27.008395,113.44884 v 3.82029 c 0,0.76719 0.23751,1.32572 0.909146,1.32572 0.629166,0 0.866677,-0.46126 0.866677,-1.35396 v -3.80617 c 0,-0.72483 -0.196615,-1.25512 -0.880834,-1.25512 -0.61501,-0.0141 -0.894989,0.43301 -0.894989,1.26924 m 3.663323,0.11139 v 3.62574 c 0,2.02232 -1.006667,3.06722 -2.796646,3.06722 -1.845031,0 -2.754177,-1.05902 -2.754177,-3.0531 v -3.72301 c 0,-2.05056 1.160812,-2.96994 2.810802,-2.96994 1.719198,0 2.740021,1.04489 2.740021,3.05309"
     id="Fill-87"
     fill="#ffffff"
     mask="url(#mask-4)"
     transform="translate(0,-7.8445294e-4)"
     style="fill-rule:evenodd;stroke:none;stroke-width:1;fill:#6500ca;fill-opacity:1;font-variation-settings:normal;opacity:1;vector-effect:none;stroke-linecap:butt;stroke-linejoin:miter;stroke-miterlimit:4;stroke-dasharray:none;stroke-dashoffset:0;stroke-opacity:1;-inkscape-stroke:none;stop-color:#000000;stop-opacity:1" />
  <path
     d="m 33.536943,117.14393 v 0.43301 c 0,0.58521 0.168302,1.08726 0.769156,1.08726 0.517489,0 0.726687,-0.30751 0.726687,-0.93507 0,-0.61344 -0.168302,-1.03077 -1.314958,-1.76973 -1.299229,-0.83779 -1.928396,-1.52027 -1.928396,-2.87266 0,-1.60342 0.866677,-2.57929 2.502511,-2.57929 1.788406,0 2.50251,0.98998 2.50251,2.71892 v 0.37654 h -1.818291 v -0.58677 c 0,-0.65424 -0.223355,-0.91938 -0.670063,-0.91938 -0.462437,0 -0.643323,0.33417 -0.643323,0.83622 0,0.53029 0.180886,0.7672 1.034979,1.32416 1.662573,1.04646 2.236688,1.71638 2.236688,3.26332 0,1.81209 -0.909146,2.73304 -2.684969,2.73304 -2.125011,0 -2.614188,-1.33828 -2.614188,-2.67656 v -0.41889 h 1.901657 z"
     id="Fill-88"
     fill="#ffffff"
     mask="url(#mask-4)"
     transform="translate(0,-7.8445294e-4)"
     style="fill-rule:evenodd;stroke:none;stroke-width:1;fill:#6500ca;fill-opacity:1;font-variation-settings:normal;opacity:1;vector-effect:none;stroke-linecap:butt;stroke-linejoin:miter;stroke-miterlimit:4;stroke-dasharray:none;stroke-dashoffset:0;stroke-opacity:1;-inkscape-stroke:none;stop-color:#000000;stop-opacity:1" />
  <path
     d="m 42.441853,113.54658 h 0.51749 c 1.173396,0 1.37001,-0.68404 1.37001,-1.86856 v -0.59933 c 0,-0.8927 -0.168302,-1.61754 -1.215864,-1.61754 h -0.685792 v 4.08543 z m -1.8875,-5.63394 h 2.725865 c 1.944125,0 2.936635,0.96331 2.936635,3.10957 v 0.72484 c 0,2.0082 -0.72826,3.34647 -3.034156,3.34647 h -0.726688 v 5.0205 h -1.8875 v -12.20138 z"
     id="Fill-89"
     fill="#ffffff"
     mask="url(#mask-4)"
     transform="translate(0,-7.8445294e-4)"
     style="fill-rule:evenodd;stroke:none;stroke-width:1;fill:#6500ca;fill-opacity:1;font-variation-settings:normal;opacity:1;vector-effect:none;stroke-linecap:butt;stroke-linejoin:miter;stroke-miterlimit:4;stroke-dasharray:none;stroke-dashoffset:0;stroke-opacity:1;-inkscape-stroke:none;stop-color:#000000;stop-opacity:1" />
  <path
     d="m 50.312413,115.8193 h -0.308291 c -0.866677,0 -1.425063,0.32006 -1.425063,1.50615 v 0.15375 c 0,0.66836 0.237511,1.14217 0.824209,1.14217 0.629166,0 0.909145,-0.43145 0.909145,-1.71482 z m 1.830875,2.34238 c 0,0.59932 0,1.57518 0.04247,1.93916 H 50.46656 c -0.04247,-0.18199 -0.111677,-0.55853 -0.125833,-0.69816 -0.322448,0.57108 -0.838365,0.83623 -1.566625,0.83623 -1.425063,0 -1.999177,-1.31004 -1.999177,-2.74716 v -0.1663 c 0,-2.32826 1.580781,-2.9417 3.285823,-2.9417 h 0.223354 v -1.21433 c 0,-0.73896 -0.08337,-1.15629 -0.655906,-1.15629 -0.559959,0 -0.685792,0.43145 -0.685792,1.01822 v 0.15219 h -1.859187 v -0.0973 c 0,-1.36652 0.531646,-2.57929 2.614187,-2.57929 1.830875,0 2.474198,1.0041 2.474198,2.53692 v 5.11778 z"
     id="Fill-90"
     fill="#ffffff"
     mask="url(#mask-4)"
     transform="translate(0,-7.8445294e-4)"
     style="fill-rule:evenodd;stroke:none;stroke-width:1;fill:#6500ca;fill-opacity:1;font-variation-settings:normal;opacity:1;vector-effect:none;stroke-linecap:butt;stroke-linejoin:miter;stroke-miterlimit:4;stroke-dasharray:none;stroke-dashoffset:0;stroke-opacity:1;-inkscape-stroke:none;stop-color:#000000;stop-opacity:1" />
  <path
     d="m 53.751281,113.5742 c 0,-1.92505 0,-2.48201 -0.01416,-2.91346 h 1.804135 c 0.02674,0.22278 0.06921,0.5852 0.06921,0.86446 0.279979,-0.54441 0.783312,-1.00409 1.74751,-1.00409 1.146656,0 1.942552,0.69659 1.942552,2.482 v 7.11028 h -1.885927 v -6.76198 c 0,-0.85035 -0.294135,-1.15785 -0.811625,-1.15785 -0.670062,0 -0.950042,0.34829 -0.950042,1.64578 v 6.27405 h -1.8875 v -6.53919 z"
     id="Fill-91"
     fill="#ffffff"
     mask="url(#mask-4)"
     transform="translate(0,-7.8445294e-4)"
     style="fill-rule:evenodd;stroke:none;stroke-width:1;fill:#6500ca;fill-opacity:1;font-variation-settings:normal;opacity:1;vector-effect:none;stroke-linecap:butt;stroke-linejoin:miter;stroke-miterlimit:4;stroke-dasharray:none;stroke-dashoffset:0;stroke-opacity:1;-inkscape-stroke:none;stop-color:#000000;stop-opacity:1" />
  <path
     d="m 63.942366,115.8193 h -0.306719 c -0.866677,0 -1.426635,0.32006 -1.426635,1.50615 v 0.15375 c 0,0.66836 0.23751,1.14217 0.824208,1.14217 0.629166,0 0.909146,-0.43145 0.909146,-1.71482 z m 1.845031,2.34238 c 0,0.59932 0,1.57518 0.04247,1.93916 h -1.719198 c -0.04247,-0.18199 -0.111677,-0.55853 -0.125834,-0.69816 -0.322448,0.57108 -0.839937,0.83623 -1.566625,0.83623 -1.425062,0 -1.999177,-1.31004 -1.999177,-2.74716 v -0.1663 c 0,-2.32826 1.580782,-2.9417 3.285823,-2.9417 h 0.223354 v -1.21433 c 0,-0.73896 -0.08336,-1.15629 -0.657479,-1.15629 -0.558385,0 -0.684219,0.43145 -0.684219,1.01822 v 0.15219 h -1.859187 v -0.0973 c 0,-1.36652 0.531646,-2.57929 2.614188,-2.57929 1.830875,0 2.474197,1.0041 2.474197,2.53692 v 5.11778 z"
     id="Fill-92"
     fill="#ffffff"
     mask="url(#mask-4)"
     transform="translate(0,-7.8445294e-4)"
     style="fill-rule:evenodd;stroke:none;stroke-width:1;fill:#6500ca;fill-opacity:1;font-variation-settings:normal;opacity:1;vector-effect:none;stroke-linecap:butt;stroke-linejoin:miter;stroke-miterlimit:4;stroke-dasharray:none;stroke-dashoffset:0;stroke-opacity:1;-inkscape-stroke:none;stop-color:#000000;stop-opacity:1" />
  <path
     d="m 67.381391,113.39299 c 0,-1.88269 0,-2.31414 -0.01416,-2.73304 h 1.804136 c 0.05505,0.29339 0.05505,0.50205 0.06921,0.83623 0.335031,-0.64168 0.909146,-0.97586 1.664146,-0.97586 0.769156,0 1.285073,0.33418 1.522583,1.01822 0.336605,-0.53029 0.825782,-1.01822 1.818292,-1.01822 1.033406,0 1.873344,0.51617 1.873344,2.37062 v 7.23736 h -1.8875 v -6.88907 c 0,-0.6558 -0.168302,-1.01822 -0.698375,-1.01822 -0.657479,0 -0.825782,0.51617 -0.825782,1.45124 v 6.47017 h -1.900083 v -6.8467 c 0,-0.86447 -0.251666,-1.06059 -0.714104,-1.06059 -0.670063,0 -0.810052,0.51617 -0.810052,1.423 v 6.49841 H 67.38139 Z"
     id="Fill-93"
     fill="#ffffff"
     mask="url(#mask-4)"
     transform="translate(0,-7.8445294e-4)"
     style="fill-rule:evenodd;stroke:none;stroke-width:1;fill:#6500ca;fill-opacity:1;font-variation-settings:normal;opacity:1;vector-effect:none;stroke-linecap:butt;stroke-linejoin:miter;stroke-miterlimit:4;stroke-dasharray:none;stroke-dashoffset:0;stroke-opacity:1;-inkscape-stroke:none;stop-color:#000000;stop-opacity:1" />
  <path
     d="m 81.067339,114.41105 v -0.96174 c 0,-0.87859 -0.195042,-1.3524 -0.880834,-1.3524 -0.600854,0 -0.894989,0.43145 -0.894989,1.3524 v 0.96174 z m -1.802563,1.46379 v 1.39476 c 0,0.72483 0.166729,1.39475 0.87926,1.39475 0.755,0 0.839938,-0.66992 0.839938,-1.35239 v -0.0424 h 1.830875 v 0.0424 c 0,0.98998 -0.209198,2.94169 -2.6425,2.94169 -2.417573,0 -2.768333,-1.49202 -2.768333,-3.40295 v -3.09545 c 0,-1.29592 0.405812,-3.24921 2.754177,-3.24921 2.027489,0 2.684968,1.36652 2.684968,3.23509 v 2.14783 h -3.578385 z"
     id="Fill-94"
     fill="#ffffff"
     mask="url(#mask-4)"
     transform="translate(0,-7.8445294e-4)"
     style="fill-rule:evenodd;stroke:none;stroke-width:1;fill:#6500ca;fill-opacity:1;font-variation-settings:normal;opacity:1;vector-effect:none;stroke-linecap:butt;stroke-linejoin:miter;stroke-miterlimit:4;stroke-dasharray:none;stroke-dashoffset:0;stroke-opacity:1;-inkscape-stroke:none;stop-color:#000000;stop-opacity:1" />
  <path
     d="m 84.128863,113.8533 c 0,-1.56106 0.01416,-2.23098 -0.01416,-3.20684 h 1.789979 c 0.01416,0.18042 0.05505,1.01822 0.05505,1.53282 0.3775,-1.28179 1.203282,-1.67245 2.084115,-1.67245 v 2.31413 c -1.077448,0 -2.02749,0.27927 -2.02749,2.21687 v 5.06286 h -1.8875 z"
     id="Fill-95"
     fill="#ffffff"
     mask="url(#mask-4)"
     transform="translate(0,-7.8445294e-4)"
     style="fill-rule:evenodd;stroke:none;stroke-width:1;fill:#6500ca;fill-opacity:1;font-variation-settings:normal;opacity:1;vector-effect:none;stroke-linecap:butt;stroke-linejoin:miter;stroke-miterlimit:4;stroke-dasharray:none;stroke-dashoffset:0;stroke-opacity:1;-inkscape-stroke:none;stop-color:#000000;stop-opacity:1" />
  <path
     d="m 88.951583,109.37784 h 1.8875 v -2.0082 h -1.8875 z m -0.02831,10.73603 h 1.8875 v -9.45423 h -1.8875 z"
     id="Fill-96"
     fill="#ffffff"
     mask="url(#mask-4)"
     transform="translate(0,-7.8445294e-4)"
     style="fill-rule:evenodd;stroke:none;stroke-width:1;fill:#6500ca;fill-opacity:1;font-variation-settings:normal;opacity:1;vector-effect:none;stroke-linecap:butt;stroke-linejoin:miter;stroke-miterlimit:4;stroke-dasharray:none;stroke-dashoffset:0;stroke-opacity:1;-inkscape-stroke:none;stop-color:#000000;stop-opacity:1" />
  <path
     d="m 97.367474,116.96256 v 0.12551 c 0,1.7007 -0.432552,3.15194 -2.6425,3.15194 -2.180063,0 -2.585875,-1.46536 -2.585875,-3.41708 v -3.24921 c 0,-1.54694 0.517489,-3.08133 2.670812,-3.08133 2.320053,0 2.543407,1.67403 2.543407,2.84443 v 0.3483 H 95.49413 v -0.40321 c 0,-0.72484 -0.111677,-1.21433 -0.726687,-1.21433 -0.559959,0 -0.755,0.43301 -0.755,1.22845 v 4.09955 c 0,0.65423 0.125833,1.241 0.740844,1.241 0.600854,0 0.726687,-0.47537 0.726687,-1.25512 v -0.44714 h 1.8875 z"
     id="Fill-97"
     fill="#ffffff"
     mask="url(#mask-4)"
     transform="translate(0,-7.8445294e-4)"
     style="fill-rule:evenodd;stroke:none;stroke-width:1;fill:#6500ca;fill-opacity:1;font-variation-settings:normal;opacity:1;vector-effect:none;stroke-linecap:butt;stroke-linejoin:miter;stroke-miterlimit:4;stroke-dasharray:none;stroke-dashoffset:0;stroke-opacity:1;-inkscape-stroke:none;stop-color:#000000;stop-opacity:1" />
  <path
     d="m 101.81301,115.8193 h -0.30672 c -0.86825,0 -1.42664,0.32006 -1.42664,1.50615 v 0.15375 c 0,0.66836 0.23752,1.14217 0.82421,1.14217 0.62917,0 0.90915,-0.43145 0.90915,-1.71482 z m 1.83087,2.34238 c 0,0.59932 0,1.57518 0.0425,1.93916 h -1.7192 c -0.0425,-0.18199 -0.11167,-0.55853 -0.12583,-0.69816 -0.32245,0.57108 -0.83994,0.83623 -1.56662,0.83623 -1.425067,0 -1.999181,-1.31004 -1.999181,-2.74716 v -0.1663 c 0,-2.32826 1.566625,-2.9417 3.285821,-2.9417 h 0.22336 v -1.21433 c 0,-0.73896 -0.0834,-1.15629 -0.65748,-1.15629 -0.55839,0 -0.68422,0.43145 -0.68422,1.01822 v 0.15219 h -1.85919 v -0.0973 c 0,-1.36652 0.531646,-2.57929 2.61419,-2.57929 1.83087,0 2.4742,1.0041 2.4742,2.53692 v 5.11778 z"
     id="Fill-98"
     fill="#ffffff"
     mask="url(#mask-4)"
     transform="translate(0,-7.8445294e-4)"
     style="fill-rule:evenodd;stroke:none;stroke-width:1;fill:#6500ca;fill-opacity:1;font-variation-settings:normal;opacity:1;vector-effect:none;stroke-linecap:butt;stroke-linejoin:miter;stroke-miterlimit:4;stroke-dasharray:none;stroke-dashoffset:0;stroke-opacity:1;-inkscape-stroke:none;stop-color:#000000;stop-opacity:1" />
  <path
     d="m 105.25188,113.5742 c 0,-1.92505 0,-2.48201 -0.0142,-2.91346 h 1.80413 c 0.0268,0.22278 0.0692,0.5852 0.0692,0.86446 0.27998,-0.54441 0.78332,-1.00409 1.74751,-1.00409 1.14666,0 1.94256,0.69659 1.94256,2.482 v 7.11028 h -1.88593 v -6.76198 c 0,-0.85035 -0.29414,-1.15785 -0.81163,-1.15785 -0.67006,0 -0.95004,0.34829 -0.95004,1.64578 v 6.27405 h -1.8875 v -6.53919 z"
     id="Fill-99"
     fill="#ffffff"
     mask="url(#mask-4)"
     transform="translate(0,-7.8445294e-4)"
     style="fill-rule:evenodd;stroke:none;stroke-width:1;fill:#6500ca;fill-opacity:1;font-variation-settings:normal;opacity:1;vector-effect:none;stroke-linecap:butt;stroke-linejoin:miter;stroke-miterlimit:4;stroke-dasharray:none;stroke-dashoffset:0;stroke-opacity:1;-inkscape-stroke:none;stop-color:#000000;stop-opacity:1" />
  <path
     d="m 114.00311,113.44884 v 3.82029 c 0,0.76719 0.23751,1.32572 0.90915,1.32572 0.62917,0 0.86668,-0.46126 0.86668,-1.35396 v -3.80617 c 0,-0.72483 -0.19662,-1.25512 -0.88084,-1.25512 -0.61501,-0.0141 -0.89499,0.43301 -0.89499,1.26924 m 3.66333,0.11139 v 3.62574 c 0,2.02232 -1.00667,3.06722 -2.79665,3.06722 -1.84503,0 -2.75418,-1.05902 -2.75418,-3.0531 v -3.72301 c 0,-2.05056 1.16082,-2.96994 2.81081,-2.96994 1.71919,0 2.74002,1.04489 2.74002,3.05309"
     id="Fill-100"
     fill="#ffffff"
     mask="url(#mask-4)"
     transform="translate(0,-7.8445294e-4)"
     style="fill-rule:evenodd;stroke:none;stroke-width:1;fill:#6500ca;fill-opacity:1;font-variation-settings:normal;opacity:1;vector-effect:none;stroke-linecap:butt;stroke-linejoin:miter;stroke-miterlimit:4;stroke-dasharray:none;stroke-dashoffset:0;stroke-opacity:1;-inkscape-stroke:none;stop-color:#000000;stop-opacity:1" />
  <path
     d="m 120.53166,117.14393 v 0.43301 c 0,0.58521 0.1683,1.08726 0.76916,1.08726 0.51749,0 0.72668,-0.30751 0.72668,-0.93507 0,-0.61344 -0.1683,-1.03077 -1.31495,-1.76973 -1.29923,-0.83779 -1.9284,-1.52027 -1.9284,-2.87266 0,-1.60342 0.86668,-2.57929 2.50251,-2.57929 1.78841,0 2.50251,0.98998 2.50251,2.71892 v 0.37654 h -1.81829 v -0.58677 c 0,-0.65424 -0.22336,-0.91938 -0.67006,-0.91938 -0.46244,0 -0.64333,0.33417 -0.64333,0.83622 0,0.53029 0.18089,0.7672 1.03498,1.32416 1.66258,1.04646 2.23669,1.71638 2.23669,3.26332 0,1.81209 -0.90914,2.73304 -2.68497,2.73304 -2.12501,0 -2.61419,-1.33828 -2.61419,-2.67656 v -0.41889 h 1.90166 z"
     id="Fill-101"
     fill="#ffffff"
     mask="url(#mask-4)"
     transform="translate(0,-7.8445294e-4)"
     style="fill-rule:evenodd;stroke:none;stroke-width:1;fill:#6500ca;fill-opacity:1;font-variation-settings:normal;opacity:1;vector-effect:none;stroke-linecap:butt;stroke-linejoin:miter;stroke-miterlimit:4;stroke-dasharray:none;stroke-dashoffset:0;stroke-opacity:1;-inkscape-stroke:none;stop-color:#000000;stop-opacity:1" />
  <path
     d="m 48.928404,134.07195 c 0,1.63166 -0.209198,2.92758 -2.390833,2.92758 -0.265823,0 -0.655906,-0.0267 -0.964198,-0.0831 V 135.313 c 0.154146,0.0141 0.308292,0.0424 0.572542,0.0424 0.657479,0 0.894989,-0.182 0.894989,-1.04646 v -9.64878 h 1.8875 z"
     id="Fill-102"
     fill="#ffffff"
     mask="url(#mask-4)"
     transform="translate(0,-7.8445294e-4)"
     style="fill-rule:evenodd;stroke:none;stroke-width:1;fill:#6500ca;fill-opacity:1;font-variation-settings:normal;opacity:1;vector-effect:none;stroke-linecap:butt;stroke-linejoin:miter;stroke-miterlimit:4;stroke-dasharray:none;stroke-dashoffset:0;stroke-opacity:1;-inkscape-stroke:none;stop-color:#000000;stop-opacity:1" />
  <path
     d="m 55.946129,134.09988 c 0,1.39475 0,2.25922 0.01416,2.76127 H 54.15615 c -0.02674,-0.19611 -0.06921,-0.64168 -0.06921,-0.89271 -0.335032,0.82211 -0.992511,1.0449 -1.761667,1.0449 -0.880833,0 -1.8875,-0.41733 -1.8875,-2.45377 v -7.13852 h 1.8875 v 6.65059 c 0,0.86446 0.251667,1.26924 0.811625,1.26924 0.61501,0 0.907573,-0.39066 0.907573,-1.61754 v -6.30229 h 1.8875 v 6.67883 z"
     id="Fill-103"
     fill="#ffffff"
     mask="url(#mask-4)"
     transform="translate(0,-7.8445294e-4)"
     style="fill-rule:evenodd;stroke:none;stroke-width:1;fill:#6500ca;fill-opacity:1;font-variation-settings:normal;opacity:1;vector-effect:none;stroke-linecap:butt;stroke-linejoin:miter;stroke-miterlimit:4;stroke-dasharray:none;stroke-dashoffset:0;stroke-opacity:1;-inkscape-stroke:none;stop-color:#000000;stop-opacity:1" />
  <path
     d="m 57.525809,130.32085 c 0,-1.92504 0,-2.482 -0.01416,-2.91345 h 1.804135 c 0.02674,0.22278 0.06921,0.5852 0.06921,0.86289 0.279979,-0.54284 0.783312,-1.00253 1.74751,-1.00253 1.146657,0 1.942552,0.6966 1.942552,2.48201 v 7.11028 h -1.885927 v -6.76198 c 0,-0.85035 -0.294135,-1.15785 -0.811625,-1.15785 -0.671635,0 -0.950041,0.34829 -0.950041,1.64578 v 6.27405 h -1.8875 v -6.5392 z"
     id="Fill-104"
     fill="#ffffff"
     mask="url(#mask-4)"
     transform="translate(0,-7.8445294e-4)"
     style="fill-rule:evenodd;stroke:none;stroke-width:1;fill:#6500ca;fill-opacity:1;font-variation-settings:normal;opacity:1;vector-effect:none;stroke-linecap:butt;stroke-linejoin:miter;stroke-miterlimit:4;stroke-dasharray:none;stroke-dashoffset:0;stroke-opacity:1;-inkscape-stroke:none;stop-color:#000000;stop-opacity:1" />
  <path
     d="m 64.668896,126.13846 h 1.8875 v -2.0082 h -1.8875 z m -0.01416,10.72191 h 1.8875 v -9.45423 h -1.8875 z"
     id="Fill-105"
     fill="#ffffff"
     mask="url(#mask-4)"
     transform="translate(0,-7.8445294e-4)"
     style="fill-rule:evenodd;stroke:none;stroke-width:1;fill:#6500ca;fill-opacity:1;font-variation-settings:normal;opacity:1;vector-effect:none;stroke-linecap:butt;stroke-linejoin:miter;stroke-miterlimit:4;stroke-dasharray:none;stroke-dashoffset:0;stroke-opacity:1;-inkscape-stroke:none;stop-color:#000000;stop-opacity:1" />
  <path
     d="m 69.75791,130.1955 v 3.82028 c 0,0.7672 0.237511,1.32416 0.909146,1.32416 0.629167,0 0.866677,-0.45969 0.866677,-1.3524 v -3.80616 c 0,-0.72484 -0.196614,-1.25513 -0.880833,-1.25513 -0.61501,0 -0.89499,0.43302 -0.89499,1.26925 m 3.663323,0.11139 v 3.62574 c 0,2.02232 -1.006666,3.06721 -2.796645,3.06721 -1.845032,0 -2.754178,-1.05901 -2.754178,-3.05309 v -3.72301 c 0,-2.05056 1.160813,-2.96994 2.810802,-2.96994 1.719198,0 2.740021,1.05901 2.740021,3.05309"
     id="Fill-106"
     fill="#ffffff"
     mask="url(#mask-4)"
     transform="translate(0,-7.8445294e-4)"
     style="fill-rule:evenodd;stroke:none;stroke-width:1;fill:#6500ca;fill-opacity:1;font-variation-settings:normal;opacity:1;vector-effect:none;stroke-linecap:butt;stroke-linejoin:miter;stroke-miterlimit:4;stroke-dasharray:none;stroke-dashoffset:0;stroke-opacity:1;-inkscape-stroke:none;stop-color:#000000;stop-opacity:1" />
  <path
     d="m 74.734619,130.5998 c 0,-1.56106 0.01416,-2.23098 -0.01416,-3.20684 h 1.78998 c 0.01416,0.18043 0.05505,1.01822 0.05505,1.53439 0.3775,-1.28336 1.203281,-1.67402 2.084114,-1.67402 v 2.31413 c -1.077448,0 -2.027489,0.27927 -2.027489,2.21844 v 5.06129 h -1.8875 z"
     id="Fill-107"
     fill="#ffffff"
     mask="url(#mask-4)"
     transform="translate(0,-7.8445294e-4)"
     style="fill-rule:evenodd;stroke:none;stroke-width:1;fill:#6500ca;fill-opacity:1;font-variation-settings:normal;opacity:1;vector-effect:none;stroke-linecap:butt;stroke-linejoin:miter;stroke-miterlimit:4;stroke-dasharray:none;stroke-dashoffset:0;stroke-opacity:1;-inkscape-stroke:none;stop-color:#000000;stop-opacity:1" />
  <metadata
     id="metadata9472">
    <rdf:RDF>
      <cc:Work
         rdf:about="">
        <dc:title>Group 109</dc:title>
      </cc:Work>
    </rdf:RDF>
  </metadata>
</svg>
