<?xml version="1.0" encoding="UTF-8" standalone="no"?>
<svg
   width="123.6191"
   height="136.8591"
   viewBox="0 0 123.61911 136.8591"
   version="1.1"
   id="svg292"
   sodipodi:docname="Logo_EN_black.svg"
   inkscape:version="1.2.2 (732a01da63, 2022-12-09)"
   xmlns:inkscape="http://www.inkscape.org/namespaces/inkscape"
   xmlns:sodipodi="http://sodipodi.sourceforge.net/DTD/sodipodi-0.dtd"
   xmlns:xlink="http://www.w3.org/1999/xlink"
   xmlns="http://www.w3.org/2000/svg"
   xmlns:svg="http://www.w3.org/2000/svg"
   xmlns:rdf="http://www.w3.org/1999/02/22-rdf-syntax-ns#"
   xmlns:cc="http://creativecommons.org/ns#"
   xmlns:dc="http://purl.org/dc/elements/1.1/">
  <sodipodi:namedview
     id="namedview294"
     pagecolor="#41ffff"
     bordercolor="#000000"
     borderopacity="0.25"
     inkscape:showpageshadow="2"
     inkscape:pageopacity="0"
     inkscape:pagecheckerboard="0"
     inkscape:deskcolor="#d1d1d1"
     showgrid="false"
     inkscape:zoom="4.3136767"
     inkscape:cx="82.644117"
     inkscape:cy="68.387138"
     inkscape:window-width="1920"
     inkscape:window-height="1009"
     inkscape:window-x="1912"
     inkscape:window-y="-8"
     inkscape:window-maximized="1"
     inkscape:current-layer="svg292" />
  <title
     id="title214">Group 106</title>
  <defs
     id="defs217">
    <polygon
       id="path-1"
       points="301.831,137 301.831,0 0,0 0,137 " />
    <mask
       id="mask-2"
       fill="#ffffff">
      <use
         xlink:href="#path-1"
         id="use256" />
    </mask>
  </defs>
  <g
     id="Clip-76"
     transform="translate(0,-4e-4)"
     style="fill:#000000;fill-rule:evenodd;stroke:none;stroke-width:1;fill-opacity:1" />
  <path
     d="m 11.518,18.726 h 16.66 V 10.972 H 11.518 Z M 39.693,2.719 C 39.626,1.207 38.379,0.001 36.851,0.001 H 36.85 2.879 2.878 c -0.011,0 -0.022,0 -0.033,0 -1.533,0 -2.782,1.212 -2.842,2.73 L 0,2.734 V 95.631 H 11.518 V 29.697 h 16.66 V 41.776 H 39.696 V 2.719 Z"
     id="Fill-75"
     fill="#ffffff"
     mask="url(#mask-2)"
     transform="translate(0,-4e-4)"
     style="fill-rule:evenodd;stroke:none;stroke-width:1;fill:#000000;fill-opacity:1" />
  <path
     d="m 112.1011,0.0284 v 84.659 h -16.66 V 4e-4 h -11.518 v 92.813 c 0,1.571 1.274,2.845 2.845,2.845 h 34.006 c 1.571,0 2.845,-1.274 2.845,-2.845 V 0.0284 Z"
     id="Fill-77"
     fill="#ffffff"
     mask="url(#mask-2)"
     transform="translate(0,-4e-4)"
     style="fill-rule:evenodd;stroke:none;stroke-width:1;fill:#000000;fill-opacity:1" />
  <path
     d="m 52.8034,8.0872 v 17.097 l 23.466,17.33 v 34.659 h -28.877 v -30.534 h -3.055 v 22.884 5.162 2.515 c 0,1.572 1.274,2.846 2.846,2.846 h 29.288 c 1.571,0 2.846,-1.274 2.846,-2.846 v -34.417 c 0,-1.211 -0.607,-2.28 -1.533,-2.921 l 0.002,-0.002 -21.919,-16.171 v -12.718 h 6.999 v -10e-4 h 16.451 v -0.447 -2.436 z"
     id="Fill-78"
     fill="#ffffff"
     mask="url(#mask-2)"
     transform="translate(0,-4e-4)"
     style="fill-rule:evenodd;stroke:none;stroke-width:1;fill:#000000;fill-opacity:1" />
  <path
     d="m 45.7368,30.3685 -0.001,10e-4 0.028,0.02 c 10e-4,10e-4 0.002,0.002 0.003,0.002 l 22.021,16.234 v 22.449 h -11.92 v -22.436 h -3.065 v 25.308 h 18.048 V 45.1635 L 47.3928,27.8485 V 2.8645 h 31.924 V 2.8465 5e-4 h -2.845 -0.001 -4.291 -10.333 -14.628 v 0.001 c -0.012,0 -0.023,-0.001 -0.036,-0.001 -1.564,0 -2.834,1.263 -2.844,2.825 h -10e-4 v 24.669 h 0.002 c -10e-4,0.017 -0.002,0.033 -0.002,0.05 0,1.152 0.549,2.175 1.399,2.824"
     id="Fill-79"
     fill="#ffffff"
     mask="url(#mask-2)"
     transform="translate(0,-4e-4)"
     style="fill-rule:evenodd;stroke:none;stroke-width:1;fill:#000000;fill-opacity:1" />
  <polygon
     id="Fill-80"
     fill="#ffffff"
     mask="url(#mask-2)"
     points="48.9628,46.6388 48.9628,75.6038 74.6998,75.6038 74.6998,43.3058 51.2338,25.9758 51.2338,6.5178 79.3168,6.5178 79.3168,4.8978 79.3168,4.4338 48.9628,4.4338 48.9628,27.0558 72.4198,44.3718 72.4198,73.5168 51.2338,73.5168 51.2338,46.6388 "
     transform="translate(0,-4e-4)"
     style="fill-rule:evenodd;stroke:none;stroke-width:1;fill:#000000;fill-opacity:1" />
  <polygon
     id="Fill-81"
     fill="#ffffff"
     mask="url(#mask-2)"
     points="16.1598,53.1612 32.7928,53.1612 32.7928,67.8562 20.7878,76.7542 20.7878,91.2092 79.2818,91.2092 79.2818,89.5052 79.2818,89.1242 23.0608,89.1242 23.0608,77.7032 35.0638,68.8022 35.0638,51.0772 16.1598,51.0772 16.1598,52.7932 "
     transform="translate(0,-4e-4)"
     style="fill-rule:evenodd;stroke:none;stroke-width:1;fill:#000000;fill-opacity:1" />
  <path
     d="m 36.6333,49.5074 v 20.084 l -12.003,8.902 v 9.061 h 54.651 v -1.488 -1.379 h -51.592 v -4.866 l 10.562,-7.809 -0.004,-0.006 c 0.879,-0.647 1.448,-1.688 1.448,-2.862 v -0.01 -19.65 c 0,-1.572 -1.273,-2.845 -2.845,-2.845 v 0 h -20.691 v 0.628 2.018 0.222 z"
     id="Fill-82"
     fill="#ffffff"
     mask="url(#mask-2)"
     transform="translate(0,-4e-4)"
     style="fill-rule:evenodd;stroke:none;stroke-width:1;fill:#000000;fill-opacity:1" />
  <path
     d="m 19.2178,92.7789 v -16.816 l 12.005,-8.897 v -12.336 h -15.063 v 2.424 0.457 h 12.007 v 8.135 l -10.414,7.709 c -0.96,0.636 -1.593,1.725 -1.593,2.963 v 16.395 c 0,1.572 1.274,2.846 2.845,2.846 h 60.277 v -0.889 -1.758 -0.233 z"
     id="Fill-83"
     fill="#ffffff"
     mask="url(#mask-2)"
     transform="translate(0,-4e-4)"
     style="fill-rule:evenodd;stroke:none;stroke-width:1;fill:#000000;fill-opacity:1" />
  <path
     d="m 13.217,117.6066 c 0,1.587 -0.21,2.854 -2.328,2.854 -0.263,0 -0.642,-0.033 -0.935,-0.082 v -1.562 c 0.152,0.018 0.305,0.036 0.555,0.036 0.64,0 0.874,-0.171 0.874,-1.025 v -9.401 h 1.834 z"
     id="Fill-84"
     fill="#ffffff"
     mask="url(#mask-2)"
     transform="translate(0,-4e-4)"
     style="fill-rule:evenodd;stroke:none;stroke-width:1;fill:#000000;fill-opacity:1" />
  <path
     d="m 20.0388,117.6273 c 0,1.355 0,2.208 0.018,2.691 h -1.752 c -0.033,-0.19 -0.067,-0.623 -0.067,-0.874 -0.325,0.806 -0.964,1.017 -1.719,1.017 -0.858,0 -1.832,-0.411 -1.832,-2.398 v -6.96 h 1.834 v 6.484 c 0,0.847 0.244,1.232 0.795,1.232 0.598,0 0.889,-0.376 0.889,-1.576 v -6.14 h 1.834 z"
     id="Fill-85"
     fill="#ffffff"
     mask="url(#mask-2)"
     transform="translate(0,-4e-4)"
     style="fill-rule:evenodd;stroke:none;stroke-width:1;fill:#000000;fill-opacity:1" />
  <path
     d="m 21.5784,113.9467 c 0,-1.872 0,-2.425 -0.018,-2.842 h 1.752 c 0.033,0.211 0.066,0.572 0.066,0.837 0.267,-0.534 0.761,-0.98 1.699,-0.98 1.121,0 1.893,0.68 1.893,2.421 v 6.936 h -1.834 v -6.59 c 0,-0.831 -0.287,-1.123 -0.793,-1.123 -0.653,0 -0.931,0.346 -0.931,1.598 v 6.115 h -1.834 z"
     id="Fill-86"
     fill="#ffffff"
     mask="url(#mask-2)"
     transform="translate(0,-4e-4)"
     style="fill-rule:evenodd;stroke:none;stroke-width:1;fill:#000000;fill-opacity:1" />
  <path
     d="m 28.519,109.868 h 1.834 v -1.96 h -1.834 z m -0.016,10.45 h 1.834 v -9.214 h -1.834 z"
     id="Fill-87"
     fill="#ffffff"
     mask="url(#mask-2)"
     transform="translate(0,-4e-4)"
     style="fill-rule:evenodd;stroke:none;stroke-width:1;fill:#000000;fill-opacity:1" />
  <path
     d="m 33.4703,113.8279 v 3.723 c 0,0.744 0.225,1.286 0.879,1.286 0.613,0 0.849,-0.453 0.849,-1.318 v -3.706 c 0,-0.711 -0.19,-1.227 -0.863,-1.227 -0.599,0 -0.865,0.428 -0.865,1.242 m 3.564,0.105 v 3.542 c 0,1.974 -0.982,2.986 -2.719,2.986 -1.796,0 -2.681,-1.037 -2.681,-2.976 v -3.628 c 0,-1.994 1.133,-2.896 2.735,-2.896 1.668,0 2.665,1.024 2.665,2.972"
     id="Fill-88"
     fill="#ffffff"
     mask="url(#mask-2)"
     transform="translate(0,-4e-4)"
     style="fill-rule:evenodd;stroke:none;stroke-width:1;fill:#000000;fill-opacity:1" />
  <path
     d="m 38.3119,114.2266 c 0,-1.53 0.015,-2.182 -0.018,-3.122 h 1.738 c 0.018,0.176 0.051,0.996 0.051,1.491 0.366,-1.245 1.176,-1.625 2.031,-1.63 v 2.261 c -1.051,0.002 -1.968,0.269 -1.968,2.157 v 4.935 h -1.834 z"
     id="Fill-89"
     fill="#ffffff"
     mask="url(#mask-2)"
     transform="translate(0,-4e-4)"
     style="fill-rule:evenodd;stroke:none;stroke-width:1;fill:#000000;fill-opacity:1" />
  <path
     d="m 47.1797,113.9311 h 0.503 c 1.143,0 1.339,-0.668 1.339,-1.829 v -0.584 c 0,-0.864 -0.158,-1.577 -1.176,-1.577 h -0.666 z m -1.834,-5.505 h 2.645 c 1.889,0 2.852,0.933 2.852,3.036 v 0.701 c 0,1.963 -0.701,3.267 -2.954,3.267 h -0.709 v 4.888 h -1.834 z"
     id="Fill-90"
     fill="#ffffff"
     mask="url(#mask-2)"
     transform="translate(0,-4e-4)"
     style="fill-rule:evenodd;stroke:none;stroke-width:1;fill:#000000;fill-opacity:1" />
  <path
     d="m 54.8314,116.1415 h -0.306 c -0.836,0 -1.387,0.317 -1.387,1.465 v 0.145 c 0,0.65 0.236,1.113 0.808,1.113 0.614,0 0.885,-0.424 0.885,-1.667 z m 1.787,2.29 c 0,0.581 0.002,1.537 0.036,1.887 h -1.676 c -0.037,-0.173 -0.102,-0.545 -0.118,-0.676 -0.314,0.564 -0.812,0.818 -1.52,0.818 -1.385,0 -1.944,-1.283 -1.944,-2.674 v -0.16 c 0,-2.27 1.53,-2.874 3.19,-2.874 h 0.212 v -1.176 c 0,-0.722 -0.087,-1.128 -0.645,-1.128 -0.544,0 -0.67,0.424 -0.67,0.996 v 0.15 h -1.803 v -0.118 c 0,-1.334 0.512,-2.515 2.537,-2.515 1.779,0 2.401,0.981 2.401,2.47 z"
     id="Fill-91"
     fill="#ffffff"
     mask="url(#mask-2)"
     transform="translate(0,-4e-4)"
     style="fill-rule:evenodd;stroke:none;stroke-width:1;fill:#000000;fill-opacity:1" />
  <path
     d="m 58.1787,113.9467 c 0,-1.872 0,-2.425 -0.018,-2.842 h 1.752 c 0.033,0.211 0.066,0.572 0.066,0.837 0.267,-0.534 0.761,-0.98 1.699,-0.98 1.121,0 1.893,0.68 1.893,2.421 v 6.936 h -1.834 v -6.59 c 0,-0.831 -0.287,-1.123 -0.793,-1.123 -0.653,0 -0.931,0.346 -0.931,1.598 v 6.115 h -1.834 z"
     id="Fill-92"
     fill="#ffffff"
     mask="url(#mask-2)"
     transform="translate(0,-4e-4)"
     style="fill-rule:evenodd;stroke:none;stroke-width:1;fill:#000000;fill-opacity:1" />
  <path
     d="m 68.0939,116.1415 h -0.306 c -0.836,0 -1.387,0.317 -1.387,1.465 v 0.145 c 0,0.65 0.236,1.113 0.808,1.113 0.614,0 0.885,-0.424 0.885,-1.667 z m 1.787,2.29 c 0,0.581 0.002,1.537 0.036,1.887 h -1.676 c -0.037,-0.173 -0.102,-0.545 -0.118,-0.676 -0.314,0.564 -0.812,0.818 -1.52,0.818 -1.385,0 -1.944,-1.283 -1.944,-2.674 v -0.16 c 0,-2.27 1.53,-2.874 3.19,-2.874 h 0.212 v -1.176 c 0,-0.722 -0.087,-1.128 -0.645,-1.128 -0.544,0 -0.67,0.424 -0.67,0.996 v 0.15 h -1.803 v -0.118 c 0,-1.334 0.512,-2.515 2.537,-2.515 1.779,0 2.401,0.981 2.401,2.47 z"
     id="Fill-93"
     fill="#ffffff"
     mask="url(#mask-2)"
     transform="translate(0,-4e-4)"
     style="fill-rule:evenodd;stroke:none;stroke-width:1;fill:#000000;fill-opacity:1" />
  <path
     d="m 71.4412,113.7751 c 0,-1.834 0,-2.255 -0.018,-2.671 h 1.752 c 0.051,0.28 0.051,0.496 0.066,0.811 0.324,-0.62 0.879,-0.954 1.619,-0.954 0.751,0 1.251,0.328 1.477,0.995 0.325,-0.511 0.803,-0.995 1.77,-0.995 1,0 1.819,0.505 1.819,2.306 v 7.052 h -1.834 v -6.718 c 0,-0.642 -0.169,-0.996 -0.686,-0.996 -0.644,0 -0.798,0.5 -0.798,1.409 v 6.305 h -1.85 v -6.673 c 0,-0.84 -0.249,-1.041 -0.689,-1.041 -0.654,0 -0.794,0.504 -0.794,1.384 v 6.33 h -1.834 z"
     id="Fill-94"
     fill="#ffffff"
     mask="url(#mask-2)"
     transform="translate(0,-4e-4)"
     style="fill-rule:evenodd;stroke:none;stroke-width:1;fill:#000000;fill-opacity:1" />
  <path
     d="m 84.7457,114.7633 v -0.943 c 0,-0.853 -0.197,-1.313 -0.855,-1.313 -0.59,0 -0.876,0.419 -0.876,1.315 v 0.941 z m -1.747,1.436 v 1.354 c 0,0.711 0.165,1.362 0.861,1.362 0.731,0 0.821,-0.654 0.821,-1.316 v -0.044 h 1.787 v 0.041 c 0,0.967 -0.206,2.865 -2.565,2.865 -2.347,0 -2.691,-1.454 -2.691,-3.317 v -3.019 c 0,-1.261 0.398,-3.164 2.682,-3.164 1.967,0 2.608,1.327 2.608,3.15 v 2.088 z"
     id="Fill-95"
     fill="#ffffff"
     mask="url(#mask-2)"
     transform="translate(0,-4e-4)"
     style="fill-rule:evenodd;stroke:none;stroke-width:1;fill:#000000;fill-opacity:1" />
  <path
     d="m 87.7298,114.2266 c 0,-1.53 0.015,-2.182 -0.018,-3.122 h 1.738 c 0.018,0.176 0.051,0.996 0.051,1.491 0.366,-1.245 1.176,-1.625 2.031,-1.63 v 2.261 c -1.051,0.002 -1.968,0.269 -1.968,2.157 v 4.935 h -1.834 z"
     id="Fill-96"
     fill="#ffffff"
     mask="url(#mask-2)"
     transform="translate(0,-4e-4)"
     style="fill-rule:evenodd;stroke:none;stroke-width:1;fill:#000000;fill-opacity:1" />
  <path
     d="m 92.41,109.868 h 1.834 v -1.96 H 92.41 Z m -0.016,10.45 h 1.834 v -9.214 h -1.834 z"
     id="Fill-97"
     fill="#ffffff"
     mask="url(#mask-2)"
     transform="translate(0,-4e-4)"
     style="fill-rule:evenodd;stroke:none;stroke-width:1;fill:#000000;fill-opacity:1" />
  <path
     d="m 100.6015,117.2585 v 0.125 c 0,1.663 -0.421,3.077 -2.565,3.077 -2.125,0 -2.512,-1.422 -2.512,-3.325 v -3.163 c 0,-1.503 0.498,-3.011 2.599,-3.011 2.255,0 2.478,1.633 2.478,2.773 v 0.345 h -1.805 v -0.389 c 0,-0.708 -0.113,-1.183 -0.707,-1.183 -0.543,0 -0.729,0.421 -0.729,1.198 v 3.994 c 0,0.638 0.118,1.216 0.725,1.216 0.588,0 0.711,-0.467 0.711,-1.219 v -0.438 z"
     id="Fill-98"
     fill="#ffffff"
     mask="url(#mask-2)"
     transform="translate(0,-4e-4)"
     style="fill-rule:evenodd;stroke:none;stroke-width:1;fill:#000000;fill-opacity:1" />
  <path
     d="m 104.9255,116.1415 h -0.306 c -0.836,0 -1.387,0.317 -1.387,1.465 v 0.145 c 0,0.65 0.236,1.113 0.808,1.113 0.614,0 0.885,-0.424 0.885,-1.667 z m 1.787,2.29 c 0,0.581 0.002,1.537 0.036,1.887 h -1.676 c -0.037,-0.173 -0.102,-0.545 -0.118,-0.676 -0.314,0.564 -0.812,0.818 -1.52,0.818 -1.385,0 -1.944,-1.283 -1.944,-2.674 v -0.16 c 0,-2.27 1.53,-2.874 3.19,-2.874 h 0.212 v -1.176 c 0,-0.722 -0.087,-1.128 -0.645,-1.128 -0.544,0 -0.67,0.424 -0.67,0.996 v 0.15 h -1.803 v -0.118 c 0,-1.334 0.512,-2.515 2.537,-2.515 1.779,0 2.401,0.981 2.401,2.47 z"
     id="Fill-99"
     fill="#ffffff"
     mask="url(#mask-2)"
     transform="translate(0,-4e-4)"
     style="fill-rule:evenodd;stroke:none;stroke-width:1;fill:#000000;fill-opacity:1" />
  <path
     d="m 108.2727,113.9467 c 0,-1.872 0,-2.425 -0.018,-2.842 h 1.752 c 0.033,0.211 0.066,0.572 0.066,0.837 0.267,-0.534 0.761,-0.98 1.699,-0.98 1.121,0 1.893,0.68 1.893,2.421 v 6.936 h -1.834 v -6.59 c 0,-0.831 -0.287,-1.123 -0.793,-1.123 -0.653,0 -0.931,0.346 -0.931,1.598 v 6.115 h -1.834 z"
     id="Fill-100"
     fill="#ffffff"
     mask="url(#mask-2)"
     transform="translate(0,-4e-4)"
     style="fill-rule:evenodd;stroke:none;stroke-width:1;fill:#000000;fill-opacity:1" />
  <path
     d="m 50.6077,136.6855 h -1.43 c -0.049,-0.21 -0.084,-0.639 -0.1,-0.893 -0.33,0.791 -1.02,1.067 -1.787,1.067 -1.751,0 -2.314,-1.267 -2.314,-3.282 v -5.586 c 0,-1.942 0.756,-3.372 2.823,-3.372 2.498,0 2.761,1.836 2.761,3.113 v 0.386 h -1.834 v -0.476 c 0,-0.627 -0.091,-1.352 -0.929,-1.352 -0.668,0 -0.953,0.463 -0.953,1.412 v 6.084 c 0,0.951 0.275,1.449 0.938,1.449 0.795,0 0.989,-0.666 0.989,-1.888 v -1.736 h -1.04 v -1.577 h 2.876 z"
     id="Fill-101"
     fill="#ffffff"
     mask="url(#mask-2)"
     transform="translate(0,-4e-4)"
     style="fill-rule:evenodd;stroke:none;stroke-width:1;fill:#000000;fill-opacity:1" />
  <path
     d="m 55.1431,132.5085 h -0.306 c -0.836,0 -1.387,0.317 -1.387,1.465 v 0.145 c 0,0.65 0.236,1.112 0.808,1.112 0.614,0 0.885,-0.423 0.885,-1.666 z m 1.787,2.29 c 0,0.581 0.002,1.537 0.036,1.887 h -1.676 c -0.037,-0.173 -0.102,-0.545 -0.118,-0.676 -0.314,0.564 -0.812,0.818 -1.52,0.818 -1.385,0 -1.944,-1.283 -1.944,-2.674 v -0.16 c 0,-2.27 1.529,-2.874 3.19,-2.874 h 0.212 v -1.176 c 0,-0.722 -0.087,-1.128 -0.645,-1.128 -0.544,0 -0.67,0.424 -0.67,0.996 v 0.15 h -1.803 v -0.118 c 0,-1.334 0.512,-2.515 2.537,-2.515 1.779,0 2.401,0.981 2.401,2.47 z"
     id="Fill-102"
     fill="#ffffff"
     mask="url(#mask-2)"
     transform="translate(0,-4e-4)"
     style="fill-rule:evenodd;stroke:none;stroke-width:1;fill:#000000;fill-opacity:1" />
  <path
     d="m 58.4903,130.1421 c 0,-1.834 0,-2.255 -0.018,-2.671 h 1.752 c 0.051,0.28 0.051,0.496 0.066,0.811 0.324,-0.62 0.879,-0.954 1.619,-0.954 0.751,0 1.252,0.328 1.477,0.995 0.325,-0.511 0.803,-0.995 1.77,-0.995 1,0 1.819,0.505 1.819,2.306 v 7.052 h -1.834 v -6.718 c 0,-0.642 -0.169,-0.996 -0.686,-0.996 -0.644,0 -0.798,0.5 -0.798,1.409 v 6.305 h -1.85 v -6.673 c 0,-0.84 -0.249,-1.041 -0.689,-1.041 -0.654,0 -0.794,0.504 -0.794,1.384 v 6.33 h -1.834 z"
     id="Fill-103"
     fill="#ffffff"
     mask="url(#mask-2)"
     transform="translate(0,-4e-4)"
     style="fill-rule:evenodd;stroke:none;stroke-width:1;fill:#000000;fill-opacity:1" />
  <path
     d="m 71.7949,131.1303 v -0.943 c 0,-0.853 -0.197,-1.313 -0.855,-1.313 -0.59,0 -0.876,0.419 -0.876,1.315 v 0.941 z m -1.747,1.436 v 1.354 c 0,0.711 0.165,1.362 0.861,1.362 0.731,0 0.821,-0.654 0.821,-1.316 v -0.044 h 1.787 v 0.041 c 0,0.967 -0.206,2.865 -2.565,2.865 -2.347,0 -2.691,-1.454 -2.691,-3.317 v -3.019 c 0,-1.261 0.398,-3.164 2.681,-3.164 1.968,0 2.609,1.327 2.609,3.15 v 2.088 z"
     id="Fill-104"
     fill="#ffffff"
     mask="url(#mask-2)"
     transform="translate(0,-4e-4)"
     style="fill-rule:evenodd;stroke:none;stroke-width:1;fill:#000000;fill-opacity:1" />
  <path
     d="m 76.2637,133.8014 v 0.421 c 0,0.568 0.16,1.06 0.747,1.06 0.498,0 0.711,-0.303 0.711,-0.917 0,-0.595 -0.168,-1.007 -1.284,-1.726 -1.267,-0.815 -1.877,-1.482 -1.877,-2.8 0,-1.559 0.837,-2.511 2.44,-2.511 1.742,0 2.435,0.961 2.435,2.649 v 0.369 h -1.772 v -0.568 c 0,-0.642 -0.215,-0.904 -0.651,-0.904 -0.452,0 -0.631,0.328 -0.631,0.815 0,0.516 0.173,0.751 1.011,1.286 1.612,1.026 2.181,1.678 2.181,3.187 0,1.764 -0.886,2.665 -2.617,2.665 -2.07,0 -2.545,-1.301 -2.545,-2.617 v -0.409 z"
     id="Fill-105"
     fill="#ffffff"
     mask="url(#mask-2)"
     transform="translate(0,-4e-4)"
     style="fill-rule:evenodd;stroke:none;stroke-width:1;fill:#000000;fill-opacity:1" />
  <metadata
     id="metadata400">
    <rdf:RDF>
      <cc:Work
         rdf:about="">
        <dc:title>Group 106</dc:title>
      </cc:Work>
    </rdf:RDF>
  </metadata>
</svg>
